G04 #@! TF.GenerationSoftware,KiCad,Pcbnew,5.0.1-33cea8e~68~ubuntu18.04.1*
G04 #@! TF.CreationDate,2018-11-17T13:39:52+01:00*
G04 #@! TF.ProjectId,MCP1702_SOT89_breakoutmodule_JST,4D4350313730325F534F5438395F6272,rev?*
G04 #@! TF.SameCoordinates,Original*
G04 #@! TF.FileFunction,Copper,L2,Bot,Signal*
G04 #@! TF.FilePolarity,Positive*
%FSLAX46Y46*%
G04 Gerber Fmt 4.6, Leading zero omitted, Abs format (unit mm)*
G04 Created by KiCad (PCBNEW 5.0.1-33cea8e~68~ubuntu18.04.1) date za 17 nov 2018 13:39:52 CET*
%MOMM*%
%LPD*%
G01*
G04 APERTURE LIST*
G04 #@! TA.AperFunction,ComponentPad*
%ADD10R,1.300000X1.300000*%
G04 #@! TD*
G04 #@! TA.AperFunction,ComponentPad*
%ADD11C,1.300000*%
G04 #@! TD*
G04 #@! TA.AperFunction,ComponentPad*
%ADD12R,0.600000X0.600000*%
G04 #@! TD*
G04 #@! TA.AperFunction,ComponentPad*
%ADD13O,1.200000X1.750000*%
G04 #@! TD*
G04 #@! TA.AperFunction,Conductor*
%ADD14C,0.100000*%
G04 #@! TD*
G04 #@! TA.AperFunction,ComponentPad*
%ADD15C,1.200000*%
G04 #@! TD*
G04 #@! TA.AperFunction,ViaPad*
%ADD16C,0.550000*%
G04 #@! TD*
G04 #@! TA.AperFunction,Conductor*
%ADD17C,0.600000*%
G04 #@! TD*
G04 #@! TA.AperFunction,Conductor*
%ADD18C,0.254000*%
G04 #@! TD*
G04 APERTURE END LIST*
D10*
G04 #@! TO.P,J1,1*
G04 #@! TO.N,+12V*
X130810000Y-73660000D03*
D11*
G04 #@! TO.P,J1,2*
X130810000Y-76200000D03*
G04 #@! TO.P,J1,3*
G04 #@! TO.N,GND*
X130810000Y-78740000D03*
G04 #@! TO.P,J1,4*
X130810000Y-81280000D03*
G04 #@! TD*
G04 #@! TO.P,J4,4*
G04 #@! TO.N,VDD*
X140970000Y-73660000D03*
G04 #@! TO.P,J4,3*
X140970000Y-76200000D03*
G04 #@! TO.P,J4,2*
G04 #@! TO.N,GND*
X140970000Y-78740000D03*
D10*
G04 #@! TO.P,J4,1*
X140970000Y-81280000D03*
G04 #@! TD*
D12*
G04 #@! TO.P,U1,TAB*
G04 #@! TO.N,+12V*
X136200000Y-77800000D03*
X135600000Y-77800000D03*
X135600000Y-78400000D03*
X136200000Y-78400000D03*
X135900000Y-79000000D03*
X135900000Y-77200000D03*
G04 #@! TD*
D13*
G04 #@! TO.P,J2,2*
G04 #@! TO.N,GND*
X136900000Y-83900000D03*
D14*
G04 #@! TD*
G04 #@! TO.N,VDD*
G04 #@! TO.C,J2*
G36*
X135274505Y-83026204D02*
X135298773Y-83029804D01*
X135322572Y-83035765D01*
X135345671Y-83044030D01*
X135367850Y-83054520D01*
X135388893Y-83067132D01*
X135408599Y-83081747D01*
X135426777Y-83098223D01*
X135443253Y-83116401D01*
X135457868Y-83136107D01*
X135470480Y-83157150D01*
X135480970Y-83179329D01*
X135489235Y-83202428D01*
X135495196Y-83226227D01*
X135498796Y-83250495D01*
X135500000Y-83274999D01*
X135500000Y-84525001D01*
X135498796Y-84549505D01*
X135495196Y-84573773D01*
X135489235Y-84597572D01*
X135480970Y-84620671D01*
X135470480Y-84642850D01*
X135457868Y-84663893D01*
X135443253Y-84683599D01*
X135426777Y-84701777D01*
X135408599Y-84718253D01*
X135388893Y-84732868D01*
X135367850Y-84745480D01*
X135345671Y-84755970D01*
X135322572Y-84764235D01*
X135298773Y-84770196D01*
X135274505Y-84773796D01*
X135250001Y-84775000D01*
X134549999Y-84775000D01*
X134525495Y-84773796D01*
X134501227Y-84770196D01*
X134477428Y-84764235D01*
X134454329Y-84755970D01*
X134432150Y-84745480D01*
X134411107Y-84732868D01*
X134391401Y-84718253D01*
X134373223Y-84701777D01*
X134356747Y-84683599D01*
X134342132Y-84663893D01*
X134329520Y-84642850D01*
X134319030Y-84620671D01*
X134310765Y-84597572D01*
X134304804Y-84573773D01*
X134301204Y-84549505D01*
X134300000Y-84525001D01*
X134300000Y-83274999D01*
X134301204Y-83250495D01*
X134304804Y-83226227D01*
X134310765Y-83202428D01*
X134319030Y-83179329D01*
X134329520Y-83157150D01*
X134342132Y-83136107D01*
X134356747Y-83116401D01*
X134373223Y-83098223D01*
X134391401Y-83081747D01*
X134411107Y-83067132D01*
X134432150Y-83054520D01*
X134454329Y-83044030D01*
X134477428Y-83035765D01*
X134501227Y-83029804D01*
X134525495Y-83026204D01*
X134549999Y-83025000D01*
X135250001Y-83025000D01*
X135274505Y-83026204D01*
X135274505Y-83026204D01*
G37*
D15*
G04 #@! TO.P,J2,1*
G04 #@! TO.N,VDD*
X134900000Y-83900000D03*
G04 #@! TD*
D14*
G04 #@! TO.N,+12V*
G04 #@! TO.C,J3*
G36*
X137274505Y-70126204D02*
X137298773Y-70129804D01*
X137322572Y-70135765D01*
X137345671Y-70144030D01*
X137367850Y-70154520D01*
X137388893Y-70167132D01*
X137408599Y-70181747D01*
X137426777Y-70198223D01*
X137443253Y-70216401D01*
X137457868Y-70236107D01*
X137470480Y-70257150D01*
X137480970Y-70279329D01*
X137489235Y-70302428D01*
X137495196Y-70326227D01*
X137498796Y-70350495D01*
X137500000Y-70374999D01*
X137500000Y-71625001D01*
X137498796Y-71649505D01*
X137495196Y-71673773D01*
X137489235Y-71697572D01*
X137480970Y-71720671D01*
X137470480Y-71742850D01*
X137457868Y-71763893D01*
X137443253Y-71783599D01*
X137426777Y-71801777D01*
X137408599Y-71818253D01*
X137388893Y-71832868D01*
X137367850Y-71845480D01*
X137345671Y-71855970D01*
X137322572Y-71864235D01*
X137298773Y-71870196D01*
X137274505Y-71873796D01*
X137250001Y-71875000D01*
X136549999Y-71875000D01*
X136525495Y-71873796D01*
X136501227Y-71870196D01*
X136477428Y-71864235D01*
X136454329Y-71855970D01*
X136432150Y-71845480D01*
X136411107Y-71832868D01*
X136391401Y-71818253D01*
X136373223Y-71801777D01*
X136356747Y-71783599D01*
X136342132Y-71763893D01*
X136329520Y-71742850D01*
X136319030Y-71720671D01*
X136310765Y-71697572D01*
X136304804Y-71673773D01*
X136301204Y-71649505D01*
X136300000Y-71625001D01*
X136300000Y-70374999D01*
X136301204Y-70350495D01*
X136304804Y-70326227D01*
X136310765Y-70302428D01*
X136319030Y-70279329D01*
X136329520Y-70257150D01*
X136342132Y-70236107D01*
X136356747Y-70216401D01*
X136373223Y-70198223D01*
X136391401Y-70181747D01*
X136411107Y-70167132D01*
X136432150Y-70154520D01*
X136454329Y-70144030D01*
X136477428Y-70135765D01*
X136501227Y-70129804D01*
X136525495Y-70126204D01*
X136549999Y-70125000D01*
X137250001Y-70125000D01*
X137274505Y-70126204D01*
X137274505Y-70126204D01*
G37*
D15*
G04 #@! TD*
G04 #@! TO.P,J3,1*
G04 #@! TO.N,+12V*
X136900000Y-71000000D03*
D13*
G04 #@! TO.P,J3,2*
G04 #@! TO.N,GND*
X134900000Y-71000000D03*
G04 #@! TD*
D16*
G04 #@! TO.N,GND*
X133800000Y-73900000D03*
X138200000Y-73900000D03*
G04 #@! TO.N,VDD*
X133600000Y-75100000D03*
G04 #@! TD*
D17*
G04 #@! TO.N,GND*
X133800000Y-73900000D02*
X137700000Y-73900000D01*
X137700000Y-73900000D02*
X138200000Y-73900000D01*
G04 #@! TO.N,VDD*
X139530000Y-75100000D02*
X140970000Y-73660000D01*
X133600000Y-75100000D02*
X139530000Y-75100000D01*
X140630000Y-76200000D02*
X139530000Y-75100000D01*
X140970000Y-76200000D02*
X140630000Y-76200000D01*
G04 #@! TD*
D18*
G04 #@! TO.N,+12V*
G36*
X141990000Y-72862735D02*
X141697894Y-72570629D01*
X141225602Y-72375000D01*
X140714398Y-72375000D01*
X140242106Y-72570629D01*
X139880629Y-72932106D01*
X139685000Y-73404398D01*
X139685000Y-73622711D01*
X139142711Y-74165000D01*
X139100605Y-74165000D01*
X139153317Y-73900000D01*
X139080750Y-73535181D01*
X138874097Y-73225903D01*
X138564819Y-73019250D01*
X138292086Y-72965000D01*
X133707914Y-72965000D01*
X133435181Y-73019250D01*
X133125903Y-73225903D01*
X132919250Y-73535181D01*
X132846683Y-73900000D01*
X132919250Y-74264819D01*
X132995715Y-74379256D01*
X132925903Y-74425903D01*
X132719250Y-74735181D01*
X132646683Y-75100000D01*
X132719250Y-75464819D01*
X132925903Y-75774097D01*
X133235181Y-75980750D01*
X133507914Y-76035000D01*
X139142711Y-76035000D01*
X139771046Y-76663335D01*
X139880629Y-76927894D01*
X140242106Y-77289371D01*
X140678185Y-77470000D01*
X140242106Y-77650629D01*
X139880629Y-78012106D01*
X139685000Y-78484398D01*
X139685000Y-78995602D01*
X139880629Y-79467894D01*
X140242106Y-79829371D01*
X140611938Y-79982560D01*
X140320000Y-79982560D01*
X140072235Y-80031843D01*
X139862191Y-80172191D01*
X139721843Y-80382235D01*
X139672560Y-80630000D01*
X139672560Y-81930000D01*
X139721843Y-82177765D01*
X139862191Y-82387809D01*
X140072235Y-82528157D01*
X140320000Y-82577440D01*
X141620000Y-82577440D01*
X141867765Y-82528157D01*
X141990001Y-82446481D01*
X141990001Y-89990000D01*
X129810000Y-89990000D01*
X129810000Y-83274999D01*
X133652560Y-83274999D01*
X133652560Y-84525001D01*
X133720873Y-84868436D01*
X133915414Y-85159586D01*
X134206564Y-85354127D01*
X134549999Y-85422440D01*
X135250001Y-85422440D01*
X135593436Y-85354127D01*
X135884586Y-85159586D01*
X135978573Y-85018926D01*
X136009616Y-85065385D01*
X136418128Y-85338344D01*
X136900000Y-85434195D01*
X137381873Y-85338344D01*
X137790385Y-85065385D01*
X138063344Y-84656872D01*
X138135000Y-84296635D01*
X138135000Y-83503364D01*
X138063344Y-83143127D01*
X137790385Y-82734615D01*
X137381872Y-82461656D01*
X136900000Y-82365805D01*
X136418127Y-82461656D01*
X136009615Y-82734615D01*
X135978572Y-82781074D01*
X135884586Y-82640414D01*
X135593436Y-82445873D01*
X135250001Y-82377560D01*
X134549999Y-82377560D01*
X134206564Y-82445873D01*
X133915414Y-82640414D01*
X133720873Y-82931564D01*
X133652560Y-83274999D01*
X129810000Y-83274999D01*
X129810000Y-82097265D01*
X130082106Y-82369371D01*
X130554398Y-82565000D01*
X131065602Y-82565000D01*
X131537894Y-82369371D01*
X131899371Y-82007894D01*
X132095000Y-81535602D01*
X132095000Y-81024398D01*
X131899371Y-80552106D01*
X131537894Y-80190629D01*
X131101815Y-80010000D01*
X131537894Y-79829371D01*
X131899371Y-79467894D01*
X132095000Y-78995602D01*
X132095000Y-78484398D01*
X131899371Y-78012106D01*
X131537894Y-77650629D01*
X131102366Y-77470228D01*
X131139428Y-77468083D01*
X131473729Y-77329611D01*
X131529410Y-77099016D01*
X130810000Y-76379605D01*
X130090590Y-77099016D01*
X130146271Y-77329611D01*
X130532574Y-77464040D01*
X130082106Y-77650629D01*
X129810000Y-77922735D01*
X129810000Y-76895026D01*
X129910984Y-76919410D01*
X130630395Y-76200000D01*
X130989605Y-76200000D01*
X131709016Y-76919410D01*
X131939611Y-76863729D01*
X132107622Y-76380922D01*
X132078083Y-75870572D01*
X131939611Y-75536271D01*
X131709016Y-75480590D01*
X130989605Y-76200000D01*
X130630395Y-76200000D01*
X129910984Y-75480590D01*
X129810000Y-75504974D01*
X129810000Y-74852344D01*
X130033690Y-74945000D01*
X130448987Y-74945000D01*
X130146271Y-75070389D01*
X130090590Y-75300984D01*
X130810000Y-76020395D01*
X131529410Y-75300984D01*
X131473729Y-75070389D01*
X131113403Y-74945000D01*
X131586310Y-74945000D01*
X131819699Y-74848327D01*
X131998327Y-74669698D01*
X132095000Y-74436309D01*
X132095000Y-73945750D01*
X131936250Y-73787000D01*
X130937000Y-73787000D01*
X130937000Y-73807000D01*
X130683000Y-73807000D01*
X130683000Y-73787000D01*
X130663000Y-73787000D01*
X130663000Y-73533000D01*
X130683000Y-73533000D01*
X130683000Y-72533750D01*
X130937000Y-72533750D01*
X130937000Y-73533000D01*
X131936250Y-73533000D01*
X132095000Y-73374250D01*
X132095000Y-72883691D01*
X131998327Y-72650302D01*
X131819699Y-72471673D01*
X131586310Y-72375000D01*
X131095750Y-72375000D01*
X130937000Y-72533750D01*
X130683000Y-72533750D01*
X130524250Y-72375000D01*
X130033690Y-72375000D01*
X129810000Y-72467656D01*
X129810000Y-70603364D01*
X133665000Y-70603364D01*
X133665000Y-71396635D01*
X133736656Y-71756872D01*
X134009615Y-72165385D01*
X134418127Y-72438344D01*
X134900000Y-72534195D01*
X135381872Y-72438344D01*
X135745410Y-72195436D01*
X135761673Y-72234699D01*
X135940302Y-72413327D01*
X136173691Y-72510000D01*
X136614250Y-72510000D01*
X136773000Y-72351250D01*
X136773000Y-71127000D01*
X137027000Y-71127000D01*
X137027000Y-72351250D01*
X137185750Y-72510000D01*
X137626309Y-72510000D01*
X137859698Y-72413327D01*
X138038327Y-72234699D01*
X138135000Y-72001310D01*
X138135000Y-71285750D01*
X137976250Y-71127000D01*
X137027000Y-71127000D01*
X136773000Y-71127000D01*
X136753000Y-71127000D01*
X136753000Y-70873000D01*
X136773000Y-70873000D01*
X136773000Y-69648750D01*
X137027000Y-69648750D01*
X137027000Y-70873000D01*
X137976250Y-70873000D01*
X138135000Y-70714250D01*
X138135000Y-69998690D01*
X138038327Y-69765301D01*
X137859698Y-69586673D01*
X137626309Y-69490000D01*
X137185750Y-69490000D01*
X137027000Y-69648750D01*
X136773000Y-69648750D01*
X136614250Y-69490000D01*
X136173691Y-69490000D01*
X135940302Y-69586673D01*
X135761673Y-69765301D01*
X135745410Y-69804564D01*
X135381873Y-69561656D01*
X134900000Y-69465805D01*
X134418128Y-69561656D01*
X134009616Y-69834615D01*
X133736656Y-70243127D01*
X133665000Y-70603364D01*
X129810000Y-70603364D01*
X129810000Y-64910000D01*
X141990000Y-64910000D01*
X141990000Y-72862735D01*
X141990000Y-72862735D01*
G37*
X141990000Y-72862735D02*
X141697894Y-72570629D01*
X141225602Y-72375000D01*
X140714398Y-72375000D01*
X140242106Y-72570629D01*
X139880629Y-72932106D01*
X139685000Y-73404398D01*
X139685000Y-73622711D01*
X139142711Y-74165000D01*
X139100605Y-74165000D01*
X139153317Y-73900000D01*
X139080750Y-73535181D01*
X138874097Y-73225903D01*
X138564819Y-73019250D01*
X138292086Y-72965000D01*
X133707914Y-72965000D01*
X133435181Y-73019250D01*
X133125903Y-73225903D01*
X132919250Y-73535181D01*
X132846683Y-73900000D01*
X132919250Y-74264819D01*
X132995715Y-74379256D01*
X132925903Y-74425903D01*
X132719250Y-74735181D01*
X132646683Y-75100000D01*
X132719250Y-75464819D01*
X132925903Y-75774097D01*
X133235181Y-75980750D01*
X133507914Y-76035000D01*
X139142711Y-76035000D01*
X139771046Y-76663335D01*
X139880629Y-76927894D01*
X140242106Y-77289371D01*
X140678185Y-77470000D01*
X140242106Y-77650629D01*
X139880629Y-78012106D01*
X139685000Y-78484398D01*
X139685000Y-78995602D01*
X139880629Y-79467894D01*
X140242106Y-79829371D01*
X140611938Y-79982560D01*
X140320000Y-79982560D01*
X140072235Y-80031843D01*
X139862191Y-80172191D01*
X139721843Y-80382235D01*
X139672560Y-80630000D01*
X139672560Y-81930000D01*
X139721843Y-82177765D01*
X139862191Y-82387809D01*
X140072235Y-82528157D01*
X140320000Y-82577440D01*
X141620000Y-82577440D01*
X141867765Y-82528157D01*
X141990001Y-82446481D01*
X141990001Y-89990000D01*
X129810000Y-89990000D01*
X129810000Y-83274999D01*
X133652560Y-83274999D01*
X133652560Y-84525001D01*
X133720873Y-84868436D01*
X133915414Y-85159586D01*
X134206564Y-85354127D01*
X134549999Y-85422440D01*
X135250001Y-85422440D01*
X135593436Y-85354127D01*
X135884586Y-85159586D01*
X135978573Y-85018926D01*
X136009616Y-85065385D01*
X136418128Y-85338344D01*
X136900000Y-85434195D01*
X137381873Y-85338344D01*
X137790385Y-85065385D01*
X138063344Y-84656872D01*
X138135000Y-84296635D01*
X138135000Y-83503364D01*
X138063344Y-83143127D01*
X137790385Y-82734615D01*
X137381872Y-82461656D01*
X136900000Y-82365805D01*
X136418127Y-82461656D01*
X136009615Y-82734615D01*
X135978572Y-82781074D01*
X135884586Y-82640414D01*
X135593436Y-82445873D01*
X135250001Y-82377560D01*
X134549999Y-82377560D01*
X134206564Y-82445873D01*
X133915414Y-82640414D01*
X133720873Y-82931564D01*
X133652560Y-83274999D01*
X129810000Y-83274999D01*
X129810000Y-82097265D01*
X130082106Y-82369371D01*
X130554398Y-82565000D01*
X131065602Y-82565000D01*
X131537894Y-82369371D01*
X131899371Y-82007894D01*
X132095000Y-81535602D01*
X132095000Y-81024398D01*
X131899371Y-80552106D01*
X131537894Y-80190629D01*
X131101815Y-80010000D01*
X131537894Y-79829371D01*
X131899371Y-79467894D01*
X132095000Y-78995602D01*
X132095000Y-78484398D01*
X131899371Y-78012106D01*
X131537894Y-77650629D01*
X131102366Y-77470228D01*
X131139428Y-77468083D01*
X131473729Y-77329611D01*
X131529410Y-77099016D01*
X130810000Y-76379605D01*
X130090590Y-77099016D01*
X130146271Y-77329611D01*
X130532574Y-77464040D01*
X130082106Y-77650629D01*
X129810000Y-77922735D01*
X129810000Y-76895026D01*
X129910984Y-76919410D01*
X130630395Y-76200000D01*
X130989605Y-76200000D01*
X131709016Y-76919410D01*
X131939611Y-76863729D01*
X132107622Y-76380922D01*
X132078083Y-75870572D01*
X131939611Y-75536271D01*
X131709016Y-75480590D01*
X130989605Y-76200000D01*
X130630395Y-76200000D01*
X129910984Y-75480590D01*
X129810000Y-75504974D01*
X129810000Y-74852344D01*
X130033690Y-74945000D01*
X130448987Y-74945000D01*
X130146271Y-75070389D01*
X130090590Y-75300984D01*
X130810000Y-76020395D01*
X131529410Y-75300984D01*
X131473729Y-75070389D01*
X131113403Y-74945000D01*
X131586310Y-74945000D01*
X131819699Y-74848327D01*
X131998327Y-74669698D01*
X132095000Y-74436309D01*
X132095000Y-73945750D01*
X131936250Y-73787000D01*
X130937000Y-73787000D01*
X130937000Y-73807000D01*
X130683000Y-73807000D01*
X130683000Y-73787000D01*
X130663000Y-73787000D01*
X130663000Y-73533000D01*
X130683000Y-73533000D01*
X130683000Y-72533750D01*
X130937000Y-72533750D01*
X130937000Y-73533000D01*
X131936250Y-73533000D01*
X132095000Y-73374250D01*
X132095000Y-72883691D01*
X131998327Y-72650302D01*
X131819699Y-72471673D01*
X131586310Y-72375000D01*
X131095750Y-72375000D01*
X130937000Y-72533750D01*
X130683000Y-72533750D01*
X130524250Y-72375000D01*
X130033690Y-72375000D01*
X129810000Y-72467656D01*
X129810000Y-70603364D01*
X133665000Y-70603364D01*
X133665000Y-71396635D01*
X133736656Y-71756872D01*
X134009615Y-72165385D01*
X134418127Y-72438344D01*
X134900000Y-72534195D01*
X135381872Y-72438344D01*
X135745410Y-72195436D01*
X135761673Y-72234699D01*
X135940302Y-72413327D01*
X136173691Y-72510000D01*
X136614250Y-72510000D01*
X136773000Y-72351250D01*
X136773000Y-71127000D01*
X137027000Y-71127000D01*
X137027000Y-72351250D01*
X137185750Y-72510000D01*
X137626309Y-72510000D01*
X137859698Y-72413327D01*
X138038327Y-72234699D01*
X138135000Y-72001310D01*
X138135000Y-71285750D01*
X137976250Y-71127000D01*
X137027000Y-71127000D01*
X136773000Y-71127000D01*
X136753000Y-71127000D01*
X136753000Y-70873000D01*
X136773000Y-70873000D01*
X136773000Y-69648750D01*
X137027000Y-69648750D01*
X137027000Y-70873000D01*
X137976250Y-70873000D01*
X138135000Y-70714250D01*
X138135000Y-69998690D01*
X138038327Y-69765301D01*
X137859698Y-69586673D01*
X137626309Y-69490000D01*
X137185750Y-69490000D01*
X137027000Y-69648750D01*
X136773000Y-69648750D01*
X136614250Y-69490000D01*
X136173691Y-69490000D01*
X135940302Y-69586673D01*
X135761673Y-69765301D01*
X135745410Y-69804564D01*
X135381873Y-69561656D01*
X134900000Y-69465805D01*
X134418128Y-69561656D01*
X134009616Y-69834615D01*
X133736656Y-70243127D01*
X133665000Y-70603364D01*
X129810000Y-70603364D01*
X129810000Y-64910000D01*
X141990000Y-64910000D01*
X141990000Y-72862735D01*
G04 #@! TD*
M02*
