G04 #@! TF.GenerationSoftware,KiCad,Pcbnew,5.0.1-33cea8e~68~ubuntu18.04.1*
G04 #@! TF.CreationDate,2018-11-10T11:43:34+01:00*
G04 #@! TF.ProjectId,MCP1702_SOT89_breakoutmodule,4D4350313730325F534F5438395F6272,rev?*
G04 #@! TF.SameCoordinates,Original*
G04 #@! TF.FileFunction,Copper,L2,Bot,Signal*
G04 #@! TF.FilePolarity,Positive*
%FSLAX46Y46*%
G04 Gerber Fmt 4.6, Leading zero omitted, Abs format (unit mm)*
G04 Created by KiCad (PCBNEW 5.0.1-33cea8e~68~ubuntu18.04.1) date za 10 nov 2018 11:43:34 CET*
%MOMM*%
%LPD*%
G01*
G04 APERTURE LIST*
G04 #@! TA.AperFunction,ComponentPad*
%ADD10R,1.300000X1.300000*%
G04 #@! TD*
G04 #@! TA.AperFunction,ComponentPad*
%ADD11C,1.300000*%
G04 #@! TD*
G04 #@! TA.AperFunction,ComponentPad*
%ADD12R,0.600000X0.600000*%
G04 #@! TD*
G04 #@! TA.AperFunction,ViaPad*
%ADD13C,0.550000*%
G04 #@! TD*
G04 #@! TA.AperFunction,Conductor*
%ADD14C,0.600000*%
G04 #@! TD*
G04 #@! TA.AperFunction,Conductor*
%ADD15C,0.254000*%
G04 #@! TD*
G04 APERTURE END LIST*
D10*
G04 #@! TO.P,J1,1*
G04 #@! TO.N,+12V*
X130810000Y-73660000D03*
D11*
G04 #@! TO.P,J1,2*
X130810000Y-76200000D03*
G04 #@! TO.P,J1,3*
G04 #@! TO.N,GND*
X130810000Y-78740000D03*
G04 #@! TO.P,J1,4*
X130810000Y-81280000D03*
G04 #@! TD*
G04 #@! TO.P,J4,4*
G04 #@! TO.N,VDD*
X140970000Y-73660000D03*
G04 #@! TO.P,J4,3*
X140970000Y-76200000D03*
G04 #@! TO.P,J4,2*
G04 #@! TO.N,GND*
X140970000Y-78740000D03*
D10*
G04 #@! TO.P,J4,1*
X140970000Y-81280000D03*
G04 #@! TD*
D12*
G04 #@! TO.P,U1,TAB*
G04 #@! TO.N,+12V*
X136200000Y-77800000D03*
X135600000Y-77800000D03*
X135600000Y-78400000D03*
X136200000Y-78400000D03*
X135900000Y-79000000D03*
X135900000Y-77200000D03*
G04 #@! TD*
D13*
G04 #@! TO.N,GND*
X133800000Y-73900000D03*
X138200000Y-73900000D03*
G04 #@! TO.N,VDD*
X133600000Y-75100000D03*
G04 #@! TD*
D14*
G04 #@! TO.N,GND*
X133800000Y-73900000D02*
X137700000Y-73900000D01*
X137700000Y-73900000D02*
X138200000Y-73900000D01*
G04 #@! TO.N,VDD*
X139530000Y-75100000D02*
X140970000Y-73660000D01*
X133600000Y-75100000D02*
X139530000Y-75100000D01*
X140630000Y-76200000D02*
X139530000Y-75100000D01*
X140970000Y-76200000D02*
X140630000Y-76200000D01*
G04 #@! TD*
D15*
G04 #@! TO.N,+12V*
G36*
X141990000Y-72862735D02*
X141697894Y-72570629D01*
X141225602Y-72375000D01*
X140714398Y-72375000D01*
X140242106Y-72570629D01*
X139880629Y-72932106D01*
X139685000Y-73404398D01*
X139685000Y-73622711D01*
X139142711Y-74165000D01*
X139100605Y-74165000D01*
X139153317Y-73900000D01*
X139080750Y-73535181D01*
X138874097Y-73225903D01*
X138564819Y-73019250D01*
X138292086Y-72965000D01*
X133707914Y-72965000D01*
X133435181Y-73019250D01*
X133125903Y-73225903D01*
X132919250Y-73535181D01*
X132846683Y-73900000D01*
X132919250Y-74264819D01*
X132995715Y-74379256D01*
X132925903Y-74425903D01*
X132719250Y-74735181D01*
X132646683Y-75100000D01*
X132719250Y-75464819D01*
X132925903Y-75774097D01*
X133235181Y-75980750D01*
X133507914Y-76035000D01*
X139142711Y-76035000D01*
X139771046Y-76663335D01*
X139880629Y-76927894D01*
X140242106Y-77289371D01*
X140678185Y-77470000D01*
X140242106Y-77650629D01*
X139880629Y-78012106D01*
X139685000Y-78484398D01*
X139685000Y-78995602D01*
X139880629Y-79467894D01*
X140242106Y-79829371D01*
X140611938Y-79982560D01*
X140320000Y-79982560D01*
X140072235Y-80031843D01*
X139862191Y-80172191D01*
X139721843Y-80382235D01*
X139672560Y-80630000D01*
X139672560Y-81930000D01*
X139721843Y-82177765D01*
X139862191Y-82387809D01*
X140072235Y-82528157D01*
X140320000Y-82577440D01*
X141620000Y-82577440D01*
X141867765Y-82528157D01*
X141990001Y-82446481D01*
X141990001Y-88490000D01*
X129810000Y-88490000D01*
X129810000Y-82097265D01*
X130082106Y-82369371D01*
X130554398Y-82565000D01*
X131065602Y-82565000D01*
X131537894Y-82369371D01*
X131899371Y-82007894D01*
X132095000Y-81535602D01*
X132095000Y-81024398D01*
X131899371Y-80552106D01*
X131537894Y-80190629D01*
X131101815Y-80010000D01*
X131537894Y-79829371D01*
X131899371Y-79467894D01*
X132095000Y-78995602D01*
X132095000Y-78484398D01*
X131899371Y-78012106D01*
X131537894Y-77650629D01*
X131102366Y-77470228D01*
X131139428Y-77468083D01*
X131473729Y-77329611D01*
X131529410Y-77099016D01*
X130810000Y-76379605D01*
X130090590Y-77099016D01*
X130146271Y-77329611D01*
X130532574Y-77464040D01*
X130082106Y-77650629D01*
X129810000Y-77922735D01*
X129810000Y-76895026D01*
X129910984Y-76919410D01*
X130630395Y-76200000D01*
X130989605Y-76200000D01*
X131709016Y-76919410D01*
X131939611Y-76863729D01*
X132107622Y-76380922D01*
X132078083Y-75870572D01*
X131939611Y-75536271D01*
X131709016Y-75480590D01*
X130989605Y-76200000D01*
X130630395Y-76200000D01*
X129910984Y-75480590D01*
X129810000Y-75504974D01*
X129810000Y-74852344D01*
X130033690Y-74945000D01*
X130448987Y-74945000D01*
X130146271Y-75070389D01*
X130090590Y-75300984D01*
X130810000Y-76020395D01*
X131529410Y-75300984D01*
X131473729Y-75070389D01*
X131113403Y-74945000D01*
X131586310Y-74945000D01*
X131819699Y-74848327D01*
X131998327Y-74669698D01*
X132095000Y-74436309D01*
X132095000Y-73945750D01*
X131936250Y-73787000D01*
X130937000Y-73787000D01*
X130937000Y-73807000D01*
X130683000Y-73807000D01*
X130683000Y-73787000D01*
X130663000Y-73787000D01*
X130663000Y-73533000D01*
X130683000Y-73533000D01*
X130683000Y-72533750D01*
X130937000Y-72533750D01*
X130937000Y-73533000D01*
X131936250Y-73533000D01*
X132095000Y-73374250D01*
X132095000Y-72883691D01*
X131998327Y-72650302D01*
X131819699Y-72471673D01*
X131586310Y-72375000D01*
X131095750Y-72375000D01*
X130937000Y-72533750D01*
X130683000Y-72533750D01*
X130524250Y-72375000D01*
X130033690Y-72375000D01*
X129810000Y-72467656D01*
X129810000Y-66410000D01*
X141990000Y-66410000D01*
X141990000Y-72862735D01*
X141990000Y-72862735D01*
G37*
X141990000Y-72862735D02*
X141697894Y-72570629D01*
X141225602Y-72375000D01*
X140714398Y-72375000D01*
X140242106Y-72570629D01*
X139880629Y-72932106D01*
X139685000Y-73404398D01*
X139685000Y-73622711D01*
X139142711Y-74165000D01*
X139100605Y-74165000D01*
X139153317Y-73900000D01*
X139080750Y-73535181D01*
X138874097Y-73225903D01*
X138564819Y-73019250D01*
X138292086Y-72965000D01*
X133707914Y-72965000D01*
X133435181Y-73019250D01*
X133125903Y-73225903D01*
X132919250Y-73535181D01*
X132846683Y-73900000D01*
X132919250Y-74264819D01*
X132995715Y-74379256D01*
X132925903Y-74425903D01*
X132719250Y-74735181D01*
X132646683Y-75100000D01*
X132719250Y-75464819D01*
X132925903Y-75774097D01*
X133235181Y-75980750D01*
X133507914Y-76035000D01*
X139142711Y-76035000D01*
X139771046Y-76663335D01*
X139880629Y-76927894D01*
X140242106Y-77289371D01*
X140678185Y-77470000D01*
X140242106Y-77650629D01*
X139880629Y-78012106D01*
X139685000Y-78484398D01*
X139685000Y-78995602D01*
X139880629Y-79467894D01*
X140242106Y-79829371D01*
X140611938Y-79982560D01*
X140320000Y-79982560D01*
X140072235Y-80031843D01*
X139862191Y-80172191D01*
X139721843Y-80382235D01*
X139672560Y-80630000D01*
X139672560Y-81930000D01*
X139721843Y-82177765D01*
X139862191Y-82387809D01*
X140072235Y-82528157D01*
X140320000Y-82577440D01*
X141620000Y-82577440D01*
X141867765Y-82528157D01*
X141990001Y-82446481D01*
X141990001Y-88490000D01*
X129810000Y-88490000D01*
X129810000Y-82097265D01*
X130082106Y-82369371D01*
X130554398Y-82565000D01*
X131065602Y-82565000D01*
X131537894Y-82369371D01*
X131899371Y-82007894D01*
X132095000Y-81535602D01*
X132095000Y-81024398D01*
X131899371Y-80552106D01*
X131537894Y-80190629D01*
X131101815Y-80010000D01*
X131537894Y-79829371D01*
X131899371Y-79467894D01*
X132095000Y-78995602D01*
X132095000Y-78484398D01*
X131899371Y-78012106D01*
X131537894Y-77650629D01*
X131102366Y-77470228D01*
X131139428Y-77468083D01*
X131473729Y-77329611D01*
X131529410Y-77099016D01*
X130810000Y-76379605D01*
X130090590Y-77099016D01*
X130146271Y-77329611D01*
X130532574Y-77464040D01*
X130082106Y-77650629D01*
X129810000Y-77922735D01*
X129810000Y-76895026D01*
X129910984Y-76919410D01*
X130630395Y-76200000D01*
X130989605Y-76200000D01*
X131709016Y-76919410D01*
X131939611Y-76863729D01*
X132107622Y-76380922D01*
X132078083Y-75870572D01*
X131939611Y-75536271D01*
X131709016Y-75480590D01*
X130989605Y-76200000D01*
X130630395Y-76200000D01*
X129910984Y-75480590D01*
X129810000Y-75504974D01*
X129810000Y-74852344D01*
X130033690Y-74945000D01*
X130448987Y-74945000D01*
X130146271Y-75070389D01*
X130090590Y-75300984D01*
X130810000Y-76020395D01*
X131529410Y-75300984D01*
X131473729Y-75070389D01*
X131113403Y-74945000D01*
X131586310Y-74945000D01*
X131819699Y-74848327D01*
X131998327Y-74669698D01*
X132095000Y-74436309D01*
X132095000Y-73945750D01*
X131936250Y-73787000D01*
X130937000Y-73787000D01*
X130937000Y-73807000D01*
X130683000Y-73807000D01*
X130683000Y-73787000D01*
X130663000Y-73787000D01*
X130663000Y-73533000D01*
X130683000Y-73533000D01*
X130683000Y-72533750D01*
X130937000Y-72533750D01*
X130937000Y-73533000D01*
X131936250Y-73533000D01*
X132095000Y-73374250D01*
X132095000Y-72883691D01*
X131998327Y-72650302D01*
X131819699Y-72471673D01*
X131586310Y-72375000D01*
X131095750Y-72375000D01*
X130937000Y-72533750D01*
X130683000Y-72533750D01*
X130524250Y-72375000D01*
X130033690Y-72375000D01*
X129810000Y-72467656D01*
X129810000Y-66410000D01*
X141990000Y-66410000D01*
X141990000Y-72862735D01*
G04 #@! TD*
M02*
