G04 #@! TF.GenerationSoftware,KiCad,Pcbnew,5.0.1-33cea8e~68~ubuntu18.04.1*
G04 #@! TF.CreationDate,2018-11-22T23:02:21+01:00*
G04 #@! TF.ProjectId,FT230XQ_breakout,465432333058515F627265616B6F7574,rev?*
G04 #@! TF.SameCoordinates,Original*
G04 #@! TF.FileFunction,Legend,Bot*
G04 #@! TF.FilePolarity,Positive*
%FSLAX46Y46*%
G04 Gerber Fmt 4.6, Leading zero omitted, Abs format (unit mm)*
G04 Created by KiCad (PCBNEW 5.0.1-33cea8e~68~ubuntu18.04.1) date do 22 nov 2018 23:02:21 CET*
%MOMM*%
%LPD*%
G01*
G04 APERTURE LIST*
%ADD10C,0.010000*%
%ADD11C,0.150000*%
G04 APERTURE END LIST*
D10*
G04 #@! TO.C,N1*
G36*
X149968931Y-68555814D02*
X150413555Y-68639635D01*
X150541053Y-68948920D01*
X150668551Y-69258206D01*
X150416246Y-69629246D01*
X150345996Y-69733157D01*
X150283272Y-69827087D01*
X150230938Y-69906652D01*
X150191857Y-69967470D01*
X150168893Y-70005157D01*
X150163942Y-70015421D01*
X150176676Y-70033910D01*
X150211882Y-70073420D01*
X150265062Y-70129522D01*
X150331718Y-70197787D01*
X150407354Y-70273786D01*
X150487472Y-70353092D01*
X150567574Y-70431275D01*
X150643164Y-70503907D01*
X150709745Y-70566559D01*
X150762818Y-70614803D01*
X150797887Y-70644210D01*
X150809623Y-70651241D01*
X150831260Y-70641123D01*
X150878662Y-70612759D01*
X150947193Y-70569129D01*
X151032215Y-70513218D01*
X151129093Y-70448006D01*
X151184350Y-70410219D01*
X151285248Y-70341343D01*
X151376299Y-70280140D01*
X151452970Y-70229578D01*
X151510728Y-70192628D01*
X151545043Y-70172258D01*
X151552254Y-70169197D01*
X151572748Y-70176136D01*
X151620513Y-70195051D01*
X151688832Y-70223087D01*
X151770989Y-70257391D01*
X151860270Y-70295109D01*
X151949958Y-70333387D01*
X152033338Y-70369370D01*
X152103694Y-70400206D01*
X152154310Y-70423039D01*
X152178471Y-70435017D01*
X152179422Y-70435724D01*
X152184036Y-70454531D01*
X152194328Y-70504618D01*
X152209287Y-70580793D01*
X152227901Y-70677865D01*
X152249159Y-70790643D01*
X152261418Y-70856442D01*
X152284362Y-70976950D01*
X152306195Y-71085797D01*
X152325722Y-71177476D01*
X152341748Y-71246481D01*
X152353079Y-71287304D01*
X152356674Y-71295511D01*
X152381006Y-71303548D01*
X152435959Y-71310033D01*
X152515108Y-71314970D01*
X152612026Y-71318364D01*
X152720287Y-71320218D01*
X152833465Y-71320538D01*
X152945135Y-71319327D01*
X153048868Y-71316590D01*
X153138241Y-71312331D01*
X153206826Y-71306555D01*
X153248197Y-71299267D01*
X153256810Y-71294895D01*
X153267133Y-71268764D01*
X153281892Y-71213393D01*
X153299352Y-71136107D01*
X153317780Y-71044230D01*
X153323741Y-71012158D01*
X153352066Y-70857524D01*
X153374876Y-70735375D01*
X153393080Y-70641673D01*
X153407583Y-70572384D01*
X153419292Y-70523471D01*
X153429115Y-70490897D01*
X153437956Y-70470628D01*
X153446724Y-70458626D01*
X153448457Y-70456947D01*
X153476371Y-70440184D01*
X153530695Y-70414614D01*
X153604777Y-70382788D01*
X153691965Y-70347260D01*
X153785608Y-70310583D01*
X153879052Y-70275311D01*
X153965647Y-70243996D01*
X154038740Y-70219193D01*
X154091678Y-70203454D01*
X154117811Y-70199332D01*
X154118726Y-70199676D01*
X154140086Y-70213641D01*
X154187084Y-70245322D01*
X154254827Y-70291391D01*
X154338423Y-70348518D01*
X154432982Y-70413373D01*
X154459854Y-70431843D01*
X154557275Y-70497699D01*
X154646163Y-70555650D01*
X154721412Y-70602538D01*
X154777920Y-70635207D01*
X154810581Y-70650500D01*
X154814593Y-70651241D01*
X154835684Y-70638392D01*
X154877464Y-70602888D01*
X154935445Y-70549293D01*
X155005135Y-70482171D01*
X155082045Y-70406087D01*
X155161683Y-70325604D01*
X155239561Y-70245287D01*
X155311186Y-70169699D01*
X155372070Y-70103405D01*
X155417721Y-70050969D01*
X155443650Y-70016955D01*
X155447883Y-70007545D01*
X155437912Y-69985643D01*
X155411020Y-69940800D01*
X155371736Y-69880321D01*
X155340117Y-69833789D01*
X155282098Y-69749475D01*
X155213784Y-69649626D01*
X155145579Y-69549473D01*
X155109075Y-69495627D01*
X154985800Y-69313371D01*
X155068520Y-69160381D01*
X155104759Y-69090682D01*
X155132926Y-69031414D01*
X155148991Y-68991311D01*
X155151226Y-68981103D01*
X155134722Y-68968829D01*
X155088082Y-68944613D01*
X155015609Y-68910263D01*
X154921606Y-68867588D01*
X154810374Y-68818394D01*
X154686215Y-68764490D01*
X154553432Y-68707684D01*
X154416327Y-68649782D01*
X154279202Y-68592593D01*
X154146358Y-68537924D01*
X154022098Y-68487584D01*
X153910725Y-68443380D01*
X153816539Y-68407119D01*
X153743844Y-68380609D01*
X153696941Y-68365658D01*
X153680833Y-68363254D01*
X153660286Y-68382311D01*
X153626933Y-68424036D01*
X153587702Y-68479706D01*
X153584599Y-68484378D01*
X153469423Y-68628264D01*
X153335053Y-68744283D01*
X153185784Y-68831430D01*
X153025913Y-68888699D01*
X152859737Y-68915086D01*
X152691552Y-68909585D01*
X152525655Y-68871190D01*
X152366342Y-68798895D01*
X152331487Y-68777626D01*
X152190737Y-68666996D01*
X152077714Y-68536302D01*
X151993003Y-68390064D01*
X151937194Y-68232808D01*
X151910874Y-68069057D01*
X151914630Y-67903333D01*
X151949050Y-67740162D01*
X152014723Y-67584065D01*
X152112235Y-67439567D01*
X152151813Y-67394869D01*
X152275703Y-67281112D01*
X152406124Y-67198218D01*
X152552315Y-67141356D01*
X152697088Y-67109687D01*
X152859860Y-67101869D01*
X153023440Y-67127938D01*
X153182298Y-67185245D01*
X153330906Y-67271144D01*
X153463735Y-67382986D01*
X153575256Y-67518123D01*
X153587011Y-67535883D01*
X153625508Y-67592150D01*
X153658863Y-67634923D01*
X153680160Y-67655372D01*
X153680833Y-67655669D01*
X153703871Y-67651279D01*
X153756157Y-67633876D01*
X153833390Y-67605268D01*
X153931268Y-67567265D01*
X154045491Y-67521674D01*
X154171758Y-67470303D01*
X154305767Y-67414962D01*
X154443218Y-67357458D01*
X154579808Y-67299601D01*
X154711237Y-67243198D01*
X154833205Y-67190058D01*
X154941409Y-67141990D01*
X155031549Y-67100801D01*
X155099323Y-67068301D01*
X155140430Y-67046297D01*
X155151226Y-67037436D01*
X155142819Y-67010360D01*
X155120272Y-66959697D01*
X155087613Y-66894183D01*
X155068520Y-66858159D01*
X154985800Y-66705168D01*
X155109075Y-66522912D01*
X155172228Y-66429875D01*
X155241727Y-66328015D01*
X155307165Y-66232562D01*
X155340117Y-66184750D01*
X155385273Y-66117505D01*
X155421057Y-66060564D01*
X155442938Y-66021354D01*
X155447563Y-66008619D01*
X155435085Y-65990083D01*
X155400252Y-65949059D01*
X155346678Y-65889525D01*
X155277983Y-65815458D01*
X155197781Y-65730835D01*
X155146286Y-65677315D01*
X155054286Y-65583681D01*
X154971999Y-65502759D01*
X154902945Y-65437823D01*
X154850644Y-65392142D01*
X154818616Y-65368989D01*
X154812116Y-65366768D01*
X154787394Y-65377076D01*
X154737405Y-65405561D01*
X154667212Y-65449063D01*
X154581875Y-65504423D01*
X154486456Y-65568480D01*
X154459854Y-65586697D01*
X154363167Y-65653073D01*
X154276117Y-65712622D01*
X154203595Y-65762016D01*
X154150493Y-65797925D01*
X154121703Y-65817019D01*
X154118726Y-65818864D01*
X154095782Y-65816105D01*
X154045336Y-65801462D01*
X153974041Y-65777487D01*
X153888547Y-65746734D01*
X153795507Y-65711756D01*
X153701574Y-65675107D01*
X153613399Y-65639339D01*
X153537634Y-65607006D01*
X153480931Y-65580662D01*
X153449943Y-65562858D01*
X153448457Y-65561593D01*
X153439601Y-65550706D01*
X153430843Y-65532318D01*
X153421277Y-65502394D01*
X153409996Y-65456897D01*
X153396093Y-65391791D01*
X153378663Y-65303039D01*
X153356798Y-65186607D01*
X153329591Y-65038458D01*
X153323741Y-65006382D01*
X153305374Y-64911314D01*
X153287405Y-64828435D01*
X153271569Y-64765070D01*
X153259600Y-64728542D01*
X153256810Y-64723644D01*
X153232072Y-64715573D01*
X153176790Y-64709013D01*
X153097389Y-64703967D01*
X153000296Y-64700441D01*
X152891938Y-64698439D01*
X152778740Y-64697964D01*
X152667128Y-64699023D01*
X152563529Y-64701618D01*
X152474368Y-64705754D01*
X152406072Y-64711437D01*
X152365066Y-64718669D01*
X152356674Y-64723029D01*
X152348208Y-64747302D01*
X152334435Y-64802574D01*
X152316550Y-64883338D01*
X152295748Y-64984088D01*
X152273223Y-65099317D01*
X152261418Y-65162098D01*
X152239151Y-65281213D01*
X152218979Y-65387435D01*
X152201915Y-65475573D01*
X152188969Y-65540434D01*
X152181155Y-65576826D01*
X152179422Y-65582816D01*
X152159890Y-65592939D01*
X152112843Y-65614338D01*
X152045003Y-65644161D01*
X151963091Y-65679555D01*
X151873828Y-65717668D01*
X151783935Y-65755647D01*
X151700135Y-65790640D01*
X151629147Y-65819794D01*
X151577694Y-65840257D01*
X151552497Y-65849177D01*
X151551396Y-65849343D01*
X151531519Y-65839231D01*
X151485777Y-65810883D01*
X151418717Y-65767277D01*
X151334884Y-65711394D01*
X151238826Y-65646213D01*
X151183650Y-65608321D01*
X151082481Y-65539275D01*
X150990630Y-65477950D01*
X150912744Y-65427337D01*
X150853469Y-65390429D01*
X150817451Y-65370218D01*
X150809377Y-65367299D01*
X150790584Y-65379847D01*
X150750457Y-65414537D01*
X150693493Y-65466937D01*
X150624185Y-65532616D01*
X150547031Y-65607144D01*
X150466525Y-65686087D01*
X150387163Y-65765017D01*
X150313440Y-65839500D01*
X150249852Y-65905106D01*
X150200894Y-65957404D01*
X150171061Y-65991961D01*
X150163942Y-66003522D01*
X150173953Y-66022346D01*
X150202078Y-66067369D01*
X150245454Y-66134213D01*
X150301218Y-66218501D01*
X150366506Y-66315856D01*
X150416246Y-66389293D01*
X150668551Y-66760333D01*
X150413555Y-67378905D01*
X149968931Y-67462725D01*
X149524307Y-67546546D01*
X149524307Y-68471994D01*
X149968931Y-68555814D01*
X149968931Y-68555814D01*
G37*
X149968931Y-68555814D02*
X150413555Y-68639635D01*
X150541053Y-68948920D01*
X150668551Y-69258206D01*
X150416246Y-69629246D01*
X150345996Y-69733157D01*
X150283272Y-69827087D01*
X150230938Y-69906652D01*
X150191857Y-69967470D01*
X150168893Y-70005157D01*
X150163942Y-70015421D01*
X150176676Y-70033910D01*
X150211882Y-70073420D01*
X150265062Y-70129522D01*
X150331718Y-70197787D01*
X150407354Y-70273786D01*
X150487472Y-70353092D01*
X150567574Y-70431275D01*
X150643164Y-70503907D01*
X150709745Y-70566559D01*
X150762818Y-70614803D01*
X150797887Y-70644210D01*
X150809623Y-70651241D01*
X150831260Y-70641123D01*
X150878662Y-70612759D01*
X150947193Y-70569129D01*
X151032215Y-70513218D01*
X151129093Y-70448006D01*
X151184350Y-70410219D01*
X151285248Y-70341343D01*
X151376299Y-70280140D01*
X151452970Y-70229578D01*
X151510728Y-70192628D01*
X151545043Y-70172258D01*
X151552254Y-70169197D01*
X151572748Y-70176136D01*
X151620513Y-70195051D01*
X151688832Y-70223087D01*
X151770989Y-70257391D01*
X151860270Y-70295109D01*
X151949958Y-70333387D01*
X152033338Y-70369370D01*
X152103694Y-70400206D01*
X152154310Y-70423039D01*
X152178471Y-70435017D01*
X152179422Y-70435724D01*
X152184036Y-70454531D01*
X152194328Y-70504618D01*
X152209287Y-70580793D01*
X152227901Y-70677865D01*
X152249159Y-70790643D01*
X152261418Y-70856442D01*
X152284362Y-70976950D01*
X152306195Y-71085797D01*
X152325722Y-71177476D01*
X152341748Y-71246481D01*
X152353079Y-71287304D01*
X152356674Y-71295511D01*
X152381006Y-71303548D01*
X152435959Y-71310033D01*
X152515108Y-71314970D01*
X152612026Y-71318364D01*
X152720287Y-71320218D01*
X152833465Y-71320538D01*
X152945135Y-71319327D01*
X153048868Y-71316590D01*
X153138241Y-71312331D01*
X153206826Y-71306555D01*
X153248197Y-71299267D01*
X153256810Y-71294895D01*
X153267133Y-71268764D01*
X153281892Y-71213393D01*
X153299352Y-71136107D01*
X153317780Y-71044230D01*
X153323741Y-71012158D01*
X153352066Y-70857524D01*
X153374876Y-70735375D01*
X153393080Y-70641673D01*
X153407583Y-70572384D01*
X153419292Y-70523471D01*
X153429115Y-70490897D01*
X153437956Y-70470628D01*
X153446724Y-70458626D01*
X153448457Y-70456947D01*
X153476371Y-70440184D01*
X153530695Y-70414614D01*
X153604777Y-70382788D01*
X153691965Y-70347260D01*
X153785608Y-70310583D01*
X153879052Y-70275311D01*
X153965647Y-70243996D01*
X154038740Y-70219193D01*
X154091678Y-70203454D01*
X154117811Y-70199332D01*
X154118726Y-70199676D01*
X154140086Y-70213641D01*
X154187084Y-70245322D01*
X154254827Y-70291391D01*
X154338423Y-70348518D01*
X154432982Y-70413373D01*
X154459854Y-70431843D01*
X154557275Y-70497699D01*
X154646163Y-70555650D01*
X154721412Y-70602538D01*
X154777920Y-70635207D01*
X154810581Y-70650500D01*
X154814593Y-70651241D01*
X154835684Y-70638392D01*
X154877464Y-70602888D01*
X154935445Y-70549293D01*
X155005135Y-70482171D01*
X155082045Y-70406087D01*
X155161683Y-70325604D01*
X155239561Y-70245287D01*
X155311186Y-70169699D01*
X155372070Y-70103405D01*
X155417721Y-70050969D01*
X155443650Y-70016955D01*
X155447883Y-70007545D01*
X155437912Y-69985643D01*
X155411020Y-69940800D01*
X155371736Y-69880321D01*
X155340117Y-69833789D01*
X155282098Y-69749475D01*
X155213784Y-69649626D01*
X155145579Y-69549473D01*
X155109075Y-69495627D01*
X154985800Y-69313371D01*
X155068520Y-69160381D01*
X155104759Y-69090682D01*
X155132926Y-69031414D01*
X155148991Y-68991311D01*
X155151226Y-68981103D01*
X155134722Y-68968829D01*
X155088082Y-68944613D01*
X155015609Y-68910263D01*
X154921606Y-68867588D01*
X154810374Y-68818394D01*
X154686215Y-68764490D01*
X154553432Y-68707684D01*
X154416327Y-68649782D01*
X154279202Y-68592593D01*
X154146358Y-68537924D01*
X154022098Y-68487584D01*
X153910725Y-68443380D01*
X153816539Y-68407119D01*
X153743844Y-68380609D01*
X153696941Y-68365658D01*
X153680833Y-68363254D01*
X153660286Y-68382311D01*
X153626933Y-68424036D01*
X153587702Y-68479706D01*
X153584599Y-68484378D01*
X153469423Y-68628264D01*
X153335053Y-68744283D01*
X153185784Y-68831430D01*
X153025913Y-68888699D01*
X152859737Y-68915086D01*
X152691552Y-68909585D01*
X152525655Y-68871190D01*
X152366342Y-68798895D01*
X152331487Y-68777626D01*
X152190737Y-68666996D01*
X152077714Y-68536302D01*
X151993003Y-68390064D01*
X151937194Y-68232808D01*
X151910874Y-68069057D01*
X151914630Y-67903333D01*
X151949050Y-67740162D01*
X152014723Y-67584065D01*
X152112235Y-67439567D01*
X152151813Y-67394869D01*
X152275703Y-67281112D01*
X152406124Y-67198218D01*
X152552315Y-67141356D01*
X152697088Y-67109687D01*
X152859860Y-67101869D01*
X153023440Y-67127938D01*
X153182298Y-67185245D01*
X153330906Y-67271144D01*
X153463735Y-67382986D01*
X153575256Y-67518123D01*
X153587011Y-67535883D01*
X153625508Y-67592150D01*
X153658863Y-67634923D01*
X153680160Y-67655372D01*
X153680833Y-67655669D01*
X153703871Y-67651279D01*
X153756157Y-67633876D01*
X153833390Y-67605268D01*
X153931268Y-67567265D01*
X154045491Y-67521674D01*
X154171758Y-67470303D01*
X154305767Y-67414962D01*
X154443218Y-67357458D01*
X154579808Y-67299601D01*
X154711237Y-67243198D01*
X154833205Y-67190058D01*
X154941409Y-67141990D01*
X155031549Y-67100801D01*
X155099323Y-67068301D01*
X155140430Y-67046297D01*
X155151226Y-67037436D01*
X155142819Y-67010360D01*
X155120272Y-66959697D01*
X155087613Y-66894183D01*
X155068520Y-66858159D01*
X154985800Y-66705168D01*
X155109075Y-66522912D01*
X155172228Y-66429875D01*
X155241727Y-66328015D01*
X155307165Y-66232562D01*
X155340117Y-66184750D01*
X155385273Y-66117505D01*
X155421057Y-66060564D01*
X155442938Y-66021354D01*
X155447563Y-66008619D01*
X155435085Y-65990083D01*
X155400252Y-65949059D01*
X155346678Y-65889525D01*
X155277983Y-65815458D01*
X155197781Y-65730835D01*
X155146286Y-65677315D01*
X155054286Y-65583681D01*
X154971999Y-65502759D01*
X154902945Y-65437823D01*
X154850644Y-65392142D01*
X154818616Y-65368989D01*
X154812116Y-65366768D01*
X154787394Y-65377076D01*
X154737405Y-65405561D01*
X154667212Y-65449063D01*
X154581875Y-65504423D01*
X154486456Y-65568480D01*
X154459854Y-65586697D01*
X154363167Y-65653073D01*
X154276117Y-65712622D01*
X154203595Y-65762016D01*
X154150493Y-65797925D01*
X154121703Y-65817019D01*
X154118726Y-65818864D01*
X154095782Y-65816105D01*
X154045336Y-65801462D01*
X153974041Y-65777487D01*
X153888547Y-65746734D01*
X153795507Y-65711756D01*
X153701574Y-65675107D01*
X153613399Y-65639339D01*
X153537634Y-65607006D01*
X153480931Y-65580662D01*
X153449943Y-65562858D01*
X153448457Y-65561593D01*
X153439601Y-65550706D01*
X153430843Y-65532318D01*
X153421277Y-65502394D01*
X153409996Y-65456897D01*
X153396093Y-65391791D01*
X153378663Y-65303039D01*
X153356798Y-65186607D01*
X153329591Y-65038458D01*
X153323741Y-65006382D01*
X153305374Y-64911314D01*
X153287405Y-64828435D01*
X153271569Y-64765070D01*
X153259600Y-64728542D01*
X153256810Y-64723644D01*
X153232072Y-64715573D01*
X153176790Y-64709013D01*
X153097389Y-64703967D01*
X153000296Y-64700441D01*
X152891938Y-64698439D01*
X152778740Y-64697964D01*
X152667128Y-64699023D01*
X152563529Y-64701618D01*
X152474368Y-64705754D01*
X152406072Y-64711437D01*
X152365066Y-64718669D01*
X152356674Y-64723029D01*
X152348208Y-64747302D01*
X152334435Y-64802574D01*
X152316550Y-64883338D01*
X152295748Y-64984088D01*
X152273223Y-65099317D01*
X152261418Y-65162098D01*
X152239151Y-65281213D01*
X152218979Y-65387435D01*
X152201915Y-65475573D01*
X152188969Y-65540434D01*
X152181155Y-65576826D01*
X152179422Y-65582816D01*
X152159890Y-65592939D01*
X152112843Y-65614338D01*
X152045003Y-65644161D01*
X151963091Y-65679555D01*
X151873828Y-65717668D01*
X151783935Y-65755647D01*
X151700135Y-65790640D01*
X151629147Y-65819794D01*
X151577694Y-65840257D01*
X151552497Y-65849177D01*
X151551396Y-65849343D01*
X151531519Y-65839231D01*
X151485777Y-65810883D01*
X151418717Y-65767277D01*
X151334884Y-65711394D01*
X151238826Y-65646213D01*
X151183650Y-65608321D01*
X151082481Y-65539275D01*
X150990630Y-65477950D01*
X150912744Y-65427337D01*
X150853469Y-65390429D01*
X150817451Y-65370218D01*
X150809377Y-65367299D01*
X150790584Y-65379847D01*
X150750457Y-65414537D01*
X150693493Y-65466937D01*
X150624185Y-65532616D01*
X150547031Y-65607144D01*
X150466525Y-65686087D01*
X150387163Y-65765017D01*
X150313440Y-65839500D01*
X150249852Y-65905106D01*
X150200894Y-65957404D01*
X150171061Y-65991961D01*
X150163942Y-66003522D01*
X150173953Y-66022346D01*
X150202078Y-66067369D01*
X150245454Y-66134213D01*
X150301218Y-66218501D01*
X150366506Y-66315856D01*
X150416246Y-66389293D01*
X150668551Y-66760333D01*
X150413555Y-67378905D01*
X149968931Y-67462725D01*
X149524307Y-67546546D01*
X149524307Y-68471994D01*
X149968931Y-68555814D01*
G04 #@! TO.C,N2*
D11*
X155852380Y-64357142D02*
X156852380Y-64690476D01*
X155852380Y-65023809D01*
X155947619Y-65309523D02*
X155900000Y-65357142D01*
X155852380Y-65452380D01*
X155852380Y-65690476D01*
X155900000Y-65785714D01*
X155947619Y-65833333D01*
X156042857Y-65880952D01*
X156138095Y-65880952D01*
X156280952Y-65833333D01*
X156852380Y-65261904D01*
X156852380Y-65880952D01*
X155852380Y-66500000D02*
X155852380Y-66595238D01*
X155900000Y-66690476D01*
X155947619Y-66738095D01*
X156042857Y-66785714D01*
X156233333Y-66833333D01*
X156471428Y-66833333D01*
X156661904Y-66785714D01*
X156757142Y-66738095D01*
X156804761Y-66690476D01*
X156852380Y-66595238D01*
X156852380Y-66500000D01*
X156804761Y-66404761D01*
X156757142Y-66357142D01*
X156661904Y-66309523D01*
X156471428Y-66261904D01*
X156233333Y-66261904D01*
X156042857Y-66309523D01*
X155947619Y-66357142D01*
X155900000Y-66404761D01*
X155852380Y-66500000D01*
X156852380Y-67785714D02*
X156852380Y-67214285D01*
X156852380Y-67500000D02*
X155852380Y-67500000D01*
X155995238Y-67404761D01*
X156090476Y-67309523D01*
X156138095Y-67214285D01*
X156280952Y-68357142D02*
X156233333Y-68261904D01*
X156185714Y-68214285D01*
X156090476Y-68166666D01*
X156042857Y-68166666D01*
X155947619Y-68214285D01*
X155900000Y-68261904D01*
X155852380Y-68357142D01*
X155852380Y-68547619D01*
X155900000Y-68642857D01*
X155947619Y-68690476D01*
X156042857Y-68738095D01*
X156090476Y-68738095D01*
X156185714Y-68690476D01*
X156233333Y-68642857D01*
X156280952Y-68547619D01*
X156280952Y-68357142D01*
X156328571Y-68261904D01*
X156376190Y-68214285D01*
X156471428Y-68166666D01*
X156661904Y-68166666D01*
X156757142Y-68214285D01*
X156804761Y-68261904D01*
X156852380Y-68357142D01*
X156852380Y-68547619D01*
X156804761Y-68642857D01*
X156757142Y-68690476D01*
X156661904Y-68738095D01*
X156471428Y-68738095D01*
X156376190Y-68690476D01*
X156328571Y-68642857D01*
X156280952Y-68547619D01*
X156852380Y-69690476D02*
X156852380Y-69119047D01*
X156852380Y-69404761D02*
X155852380Y-69404761D01*
X155995238Y-69309523D01*
X156090476Y-69214285D01*
X156138095Y-69119047D01*
X156852380Y-70642857D02*
X156852380Y-70071428D01*
X156852380Y-70357142D02*
X155852380Y-70357142D01*
X155995238Y-70261904D01*
X156090476Y-70166666D01*
X156138095Y-70071428D01*
X156852380Y-71595238D02*
X156852380Y-71023809D01*
X156852380Y-71309523D02*
X155852380Y-71309523D01*
X155995238Y-71214285D01*
X156090476Y-71119047D01*
X156138095Y-71023809D01*
X156280952Y-72166666D02*
X156233333Y-72071428D01*
X156185714Y-72023809D01*
X156090476Y-71976190D01*
X156042857Y-71976190D01*
X155947619Y-72023809D01*
X155900000Y-72071428D01*
X155852380Y-72166666D01*
X155852380Y-72357142D01*
X155900000Y-72452380D01*
X155947619Y-72500000D01*
X156042857Y-72547619D01*
X156090476Y-72547619D01*
X156185714Y-72500000D01*
X156233333Y-72452380D01*
X156280952Y-72357142D01*
X156280952Y-72166666D01*
X156328571Y-72071428D01*
X156376190Y-72023809D01*
X156471428Y-71976190D01*
X156661904Y-71976190D01*
X156757142Y-72023809D01*
X156804761Y-72071428D01*
X156852380Y-72166666D01*
X156852380Y-72357142D01*
X156804761Y-72452380D01*
X156757142Y-72500000D01*
X156661904Y-72547619D01*
X156471428Y-72547619D01*
X156376190Y-72500000D01*
X156328571Y-72452380D01*
X156280952Y-72357142D01*
X155852380Y-63128571D02*
X156852380Y-63461904D01*
X155852380Y-63795238D01*
X156757142Y-64128571D02*
X156804761Y-64176190D01*
X156852380Y-64128571D01*
X156804761Y-64080952D01*
X156757142Y-64128571D01*
X156852380Y-64128571D01*
X156233333Y-64128571D02*
X156280952Y-64176190D01*
X156328571Y-64128571D01*
X156280952Y-64080952D01*
X156233333Y-64128571D01*
X156328571Y-64128571D01*
G04 #@! TD*
M02*
