G04 #@! TF.GenerationSoftware,KiCad,Pcbnew,5.0.1-33cea8e~68~ubuntu18.04.1*
G04 #@! TF.CreationDate,2018-11-22T22:55:41+01:00*
G04 #@! TF.ProjectId,jtag_20pin_to_10pin,6A7461675F323070696E5F746F5F3130,rev?*
G04 #@! TF.SameCoordinates,Original*
G04 #@! TF.FileFunction,Legend,Bot*
G04 #@! TF.FilePolarity,Positive*
%FSLAX46Y46*%
G04 Gerber Fmt 4.6, Leading zero omitted, Abs format (unit mm)*
G04 Created by KiCad (PCBNEW 5.0.1-33cea8e~68~ubuntu18.04.1) date do 22 nov 2018 22:55:41 CET*
%MOMM*%
%LPD*%
G01*
G04 APERTURE LIST*
%ADD10C,0.150000*%
G04 APERTURE END LIST*
D10*
X142638095Y-70852380D02*
X142971428Y-70376190D01*
X143209523Y-70852380D02*
X143209523Y-69852380D01*
X142828571Y-69852380D01*
X142733333Y-69900000D01*
X142685714Y-69947619D01*
X142638095Y-70042857D01*
X142638095Y-70185714D01*
X142685714Y-70280952D01*
X142733333Y-70328571D01*
X142828571Y-70376190D01*
X143209523Y-70376190D01*
X141828571Y-70804761D02*
X141923809Y-70852380D01*
X142114285Y-70852380D01*
X142209523Y-70804761D01*
X142257142Y-70709523D01*
X142257142Y-70328571D01*
X142209523Y-70233333D01*
X142114285Y-70185714D01*
X141923809Y-70185714D01*
X141828571Y-70233333D01*
X141780952Y-70328571D01*
X141780952Y-70423809D01*
X142257142Y-70519047D01*
X141400000Y-70804761D02*
X141304761Y-70852380D01*
X141114285Y-70852380D01*
X141019047Y-70804761D01*
X140971428Y-70709523D01*
X140971428Y-70661904D01*
X141019047Y-70566666D01*
X141114285Y-70519047D01*
X141257142Y-70519047D01*
X141352380Y-70471428D01*
X141400000Y-70376190D01*
X141400000Y-70328571D01*
X141352380Y-70233333D01*
X141257142Y-70185714D01*
X141114285Y-70185714D01*
X141019047Y-70233333D01*
X140161904Y-70804761D02*
X140257142Y-70852380D01*
X140447619Y-70852380D01*
X140542857Y-70804761D01*
X140590476Y-70709523D01*
X140590476Y-70328571D01*
X140542857Y-70233333D01*
X140447619Y-70185714D01*
X140257142Y-70185714D01*
X140161904Y-70233333D01*
X140114285Y-70328571D01*
X140114285Y-70423809D01*
X140590476Y-70519047D01*
X139828571Y-70185714D02*
X139447619Y-70185714D01*
X139685714Y-69852380D02*
X139685714Y-70709523D01*
X139638095Y-70804761D01*
X139542857Y-70852380D01*
X139447619Y-70852380D01*
X139802380Y-89402380D02*
X140135714Y-88926190D01*
X140373809Y-89402380D02*
X140373809Y-88402380D01*
X139992857Y-88402380D01*
X139897619Y-88450000D01*
X139850000Y-88497619D01*
X139802380Y-88592857D01*
X139802380Y-88735714D01*
X139850000Y-88830952D01*
X139897619Y-88878571D01*
X139992857Y-88926190D01*
X140373809Y-88926190D01*
X139373809Y-88878571D02*
X139040476Y-88878571D01*
X138897619Y-89402380D02*
X139373809Y-89402380D01*
X139373809Y-88402380D01*
X138897619Y-88402380D01*
X138516666Y-89354761D02*
X138373809Y-89402380D01*
X138135714Y-89402380D01*
X138040476Y-89354761D01*
X137992857Y-89307142D01*
X137945238Y-89211904D01*
X137945238Y-89116666D01*
X137992857Y-89021428D01*
X138040476Y-88973809D01*
X138135714Y-88926190D01*
X138326190Y-88878571D01*
X138421428Y-88830952D01*
X138469047Y-88783333D01*
X138516666Y-88688095D01*
X138516666Y-88592857D01*
X138469047Y-88497619D01*
X138421428Y-88450000D01*
X138326190Y-88402380D01*
X138088095Y-88402380D01*
X137945238Y-88450000D01*
X137516666Y-88878571D02*
X137183333Y-88878571D01*
X137040476Y-89402380D02*
X137516666Y-89402380D01*
X137516666Y-88402380D01*
X137040476Y-88402380D01*
X136754761Y-88402380D02*
X136183333Y-88402380D01*
X136469047Y-89402380D02*
X136469047Y-88402380D01*
X138733333Y-78152380D02*
X138161904Y-78152380D01*
X138447619Y-79152380D02*
X138447619Y-78152380D01*
X137828571Y-79152380D02*
X137828571Y-78152380D01*
X137495238Y-78866666D01*
X137161904Y-78152380D01*
X137161904Y-79152380D01*
X136733333Y-79104761D02*
X136590476Y-79152380D01*
X136352380Y-79152380D01*
X136257142Y-79104761D01*
X136209523Y-79057142D01*
X136161904Y-78961904D01*
X136161904Y-78866666D01*
X136209523Y-78771428D01*
X136257142Y-78723809D01*
X136352380Y-78676190D01*
X136542857Y-78628571D01*
X136638095Y-78580952D01*
X136685714Y-78533333D01*
X136733333Y-78438095D01*
X136733333Y-78342857D01*
X136685714Y-78247619D01*
X136638095Y-78200000D01*
X136542857Y-78152380D01*
X136304761Y-78152380D01*
X136161904Y-78200000D01*
X138635714Y-80752380D02*
X138064285Y-80752380D01*
X138350000Y-81752380D02*
X138350000Y-80752380D01*
X137159523Y-81657142D02*
X137207142Y-81704761D01*
X137350000Y-81752380D01*
X137445238Y-81752380D01*
X137588095Y-81704761D01*
X137683333Y-81609523D01*
X137730952Y-81514285D01*
X137778571Y-81323809D01*
X137778571Y-81180952D01*
X137730952Y-80990476D01*
X137683333Y-80895238D01*
X137588095Y-80800000D01*
X137445238Y-80752380D01*
X137350000Y-80752380D01*
X137207142Y-80800000D01*
X137159523Y-80847619D01*
X136730952Y-81752380D02*
X136730952Y-80752380D01*
X136159523Y-81752380D02*
X136588095Y-81180952D01*
X136159523Y-80752380D02*
X136730952Y-81323809D01*
X138709523Y-85852380D02*
X138138095Y-85852380D01*
X138423809Y-86852380D02*
X138423809Y-85852380D01*
X137804761Y-86852380D02*
X137804761Y-85852380D01*
X137566666Y-85852380D01*
X137423809Y-85900000D01*
X137328571Y-85995238D01*
X137280952Y-86090476D01*
X137233333Y-86280952D01*
X137233333Y-86423809D01*
X137280952Y-86614285D01*
X137328571Y-86709523D01*
X137423809Y-86804761D01*
X137566666Y-86852380D01*
X137804761Y-86852380D01*
X136614285Y-85852380D02*
X136423809Y-85852380D01*
X136328571Y-85900000D01*
X136233333Y-85995238D01*
X136185714Y-86185714D01*
X136185714Y-86519047D01*
X136233333Y-86709523D01*
X136328571Y-86804761D01*
X136423809Y-86852380D01*
X136614285Y-86852380D01*
X136709523Y-86804761D01*
X136804761Y-86709523D01*
X136852380Y-86519047D01*
X136852380Y-86185714D01*
X136804761Y-85995238D01*
X136709523Y-85900000D01*
X136614285Y-85852380D01*
X138073809Y-75652380D02*
X137502380Y-75652380D01*
X137788095Y-76652380D02*
X137788095Y-75652380D01*
X137169047Y-76652380D02*
X137169047Y-75652380D01*
X136930952Y-75652380D01*
X136788095Y-75700000D01*
X136692857Y-75795238D01*
X136645238Y-75890476D01*
X136597619Y-76080952D01*
X136597619Y-76223809D01*
X136645238Y-76414285D01*
X136692857Y-76509523D01*
X136788095Y-76604761D01*
X136930952Y-76652380D01*
X137169047Y-76652380D01*
X136169047Y-76652380D02*
X136169047Y-75652380D01*
G04 #@! TO.C,D2*
X144025000Y-91800000D02*
X144025000Y-92800000D01*
X145375000Y-92800000D02*
X145375000Y-91800000D01*
G04 #@! TO.C,R2*
X143775000Y-92800000D02*
X143775000Y-91800000D01*
X142425000Y-91800000D02*
X142425000Y-92800000D01*
G04 #@! TO.C,S1*
X139301020Y-74198600D02*
X139301020Y-73698220D01*
X139301020Y-71701780D02*
X139301020Y-71201400D01*
X139301020Y-71201400D02*
X143298980Y-71201400D01*
X143298980Y-71201400D02*
X143298980Y-71701780D01*
X143298980Y-73698220D02*
X143298980Y-74198600D01*
X143298980Y-74198600D02*
X139301020Y-74198600D01*
G04 #@! TO.C,D2*
X145152380Y-93961904D02*
X144152380Y-93961904D01*
X144152380Y-94200000D01*
X144200000Y-94342857D01*
X144295238Y-94438095D01*
X144390476Y-94485714D01*
X144580952Y-94533333D01*
X144723809Y-94533333D01*
X144914285Y-94485714D01*
X145009523Y-94438095D01*
X145104761Y-94342857D01*
X145152380Y-94200000D01*
X145152380Y-93961904D01*
X144247619Y-94914285D02*
X144200000Y-94961904D01*
X144152380Y-95057142D01*
X144152380Y-95295238D01*
X144200000Y-95390476D01*
X144247619Y-95438095D01*
X144342857Y-95485714D01*
X144438095Y-95485714D01*
X144580952Y-95438095D01*
X145152380Y-94866666D01*
X145152380Y-95485714D01*
G04 #@! TO.C,R2*
X143552380Y-94533333D02*
X143076190Y-94200000D01*
X143552380Y-93961904D02*
X142552380Y-93961904D01*
X142552380Y-94342857D01*
X142600000Y-94438095D01*
X142647619Y-94485714D01*
X142742857Y-94533333D01*
X142885714Y-94533333D01*
X142980952Y-94485714D01*
X143028571Y-94438095D01*
X143076190Y-94342857D01*
X143076190Y-93961904D01*
X142647619Y-94914285D02*
X142600000Y-94961904D01*
X142552380Y-95057142D01*
X142552380Y-95295238D01*
X142600000Y-95390476D01*
X142647619Y-95438095D01*
X142742857Y-95485714D01*
X142838095Y-95485714D01*
X142980952Y-95438095D01*
X143552380Y-94866666D01*
X143552380Y-95485714D01*
G04 #@! TO.C,S1*
X142061904Y-75404761D02*
X141919047Y-75452380D01*
X141680952Y-75452380D01*
X141585714Y-75404761D01*
X141538095Y-75357142D01*
X141490476Y-75261904D01*
X141490476Y-75166666D01*
X141538095Y-75071428D01*
X141585714Y-75023809D01*
X141680952Y-74976190D01*
X141871428Y-74928571D01*
X141966666Y-74880952D01*
X142014285Y-74833333D01*
X142061904Y-74738095D01*
X142061904Y-74642857D01*
X142014285Y-74547619D01*
X141966666Y-74500000D01*
X141871428Y-74452380D01*
X141633333Y-74452380D01*
X141490476Y-74500000D01*
X140538095Y-75452380D02*
X141109523Y-75452380D01*
X140823809Y-75452380D02*
X140823809Y-74452380D01*
X140919047Y-74595238D01*
X141014285Y-74690476D01*
X141109523Y-74738095D01*
G04 #@! TD*
M02*
