M48
;DRILL file {KiCad 5.0.1-33cea8e~68~ubuntu18.04.1} date za 24 nov 2018 10:41:31 CET
;FORMAT={-:-/ absolute / inch / decimal}
FMAT,2
INCH,TZ
T1C0.0100
T2C0.0157
T3C0.0394
T4C0.0315
%
G90
G05
M72
T1
X5.9567Y-2.6535
X5.9882Y-2.8622
X6.Y-2.6929
X6.0945Y-2.6063
X6.0984Y-2.7992
X6.1102Y-2.7244
X6.1693Y-2.5512
X6.2008Y-2.7835
X6.2087Y-2.9488
X6.2165Y-2.5551
X6.2244Y-2.7835
X6.2717Y-2.5079
X6.2717Y-2.5512
X6.2953Y-2.5709
X6.3031Y-2.5945
X6.3228Y-2.815
X6.3248Y-2.5295
X6.4724Y-2.5945
X6.4724Y-2.6457
X6.4724Y-2.6969
X6.4724Y-2.748
X6.5906Y-2.5472
T2
X5.815Y-2.4567
X5.9213Y-2.9094
X5.9449Y-2.748
X6.0591Y-2.5551
X6.1378Y-2.5787
X6.1378Y-2.7323
X6.1929Y-2.6417
X6.1929Y-2.689
X6.2402Y-2.6417
X6.2402Y-2.689
X6.6535Y-2.4961
X6.4173Y-2.4567
X6.4409Y-2.4449
X6.4409Y-2.4685
X6.4646Y-2.4449
X6.4646Y-2.4685
X6.4882Y-2.4567
T3
X5.7628Y-2.5364
X5.7628Y-2.8179
X5.8986Y-2.5364
X5.8986Y-2.8179
X6.7476Y-2.522
X6.7476Y-2.622
X6.7476Y-2.722
X6.7476Y-2.822
X6.8579Y-2.422
X6.8579Y-2.522
X6.8579Y-2.622
X6.8579Y-2.722
X6.8579Y-2.822
X6.8579Y-2.922
T4
X5.8533Y-2.5984
X5.8533Y-2.7559
T0
M30
