G04 #@! TF.GenerationSoftware,KiCad,Pcbnew,5.0.1-33cea8e~68~ubuntu18.04.1*
G04 #@! TF.CreationDate,2018-11-17T13:39:52+01:00*
G04 #@! TF.ProjectId,MCP1702_SOT89_breakoutmodule_JST,4D4350313730325F534F5438395F6272,rev?*
G04 #@! TF.SameCoordinates,Original*
G04 #@! TF.FileFunction,Legend,Bot*
G04 #@! TF.FilePolarity,Positive*
%FSLAX46Y46*%
G04 Gerber Fmt 4.6, Leading zero omitted, Abs format (unit mm)*
G04 Created by KiCad (PCBNEW 5.0.1-33cea8e~68~ubuntu18.04.1) date za 17 nov 2018 13:39:52 CET*
%MOMM*%
%LPD*%
G01*
G04 APERTURE LIST*
%ADD10C,0.010000*%
%ADD11C,0.150000*%
G04 APERTURE END LIST*
D10*
G04 #@! TO.C,N1*
G36*
X135344186Y-72468931D02*
X135260365Y-72913555D01*
X134951080Y-73041053D01*
X134641794Y-73168551D01*
X134270754Y-72916246D01*
X134166843Y-72845996D01*
X134072913Y-72783272D01*
X133993348Y-72730938D01*
X133932530Y-72691857D01*
X133894843Y-72668893D01*
X133884579Y-72663942D01*
X133866090Y-72676676D01*
X133826580Y-72711882D01*
X133770478Y-72765062D01*
X133702213Y-72831718D01*
X133626214Y-72907354D01*
X133546908Y-72987472D01*
X133468725Y-73067574D01*
X133396093Y-73143164D01*
X133333441Y-73209745D01*
X133285197Y-73262818D01*
X133255790Y-73297887D01*
X133248759Y-73309623D01*
X133258877Y-73331260D01*
X133287241Y-73378662D01*
X133330871Y-73447193D01*
X133386782Y-73532215D01*
X133451994Y-73629093D01*
X133489781Y-73684350D01*
X133558657Y-73785248D01*
X133619860Y-73876299D01*
X133670422Y-73952970D01*
X133707372Y-74010728D01*
X133727742Y-74045043D01*
X133730803Y-74052254D01*
X133723864Y-74072748D01*
X133704949Y-74120513D01*
X133676913Y-74188832D01*
X133642609Y-74270989D01*
X133604891Y-74360270D01*
X133566613Y-74449958D01*
X133530630Y-74533338D01*
X133499794Y-74603694D01*
X133476961Y-74654310D01*
X133464983Y-74678471D01*
X133464276Y-74679422D01*
X133445469Y-74684036D01*
X133395382Y-74694328D01*
X133319207Y-74709287D01*
X133222135Y-74727901D01*
X133109357Y-74749159D01*
X133043558Y-74761418D01*
X132923050Y-74784362D01*
X132814203Y-74806195D01*
X132722524Y-74825722D01*
X132653519Y-74841748D01*
X132612696Y-74853079D01*
X132604489Y-74856674D01*
X132596452Y-74881006D01*
X132589967Y-74935959D01*
X132585030Y-75015108D01*
X132581636Y-75112026D01*
X132579782Y-75220287D01*
X132579462Y-75333465D01*
X132580673Y-75445135D01*
X132583410Y-75548868D01*
X132587669Y-75638241D01*
X132593445Y-75706826D01*
X132600733Y-75748197D01*
X132605105Y-75756810D01*
X132631236Y-75767133D01*
X132686607Y-75781892D01*
X132763893Y-75799352D01*
X132855770Y-75817780D01*
X132887842Y-75823741D01*
X133042476Y-75852066D01*
X133164625Y-75874876D01*
X133258327Y-75893080D01*
X133327616Y-75907583D01*
X133376529Y-75919292D01*
X133409103Y-75929115D01*
X133429372Y-75937956D01*
X133441374Y-75946724D01*
X133443053Y-75948457D01*
X133459816Y-75976371D01*
X133485386Y-76030695D01*
X133517212Y-76104777D01*
X133552740Y-76191965D01*
X133589417Y-76285608D01*
X133624689Y-76379052D01*
X133656004Y-76465647D01*
X133680807Y-76538740D01*
X133696546Y-76591678D01*
X133700668Y-76617811D01*
X133700324Y-76618726D01*
X133686359Y-76640086D01*
X133654678Y-76687084D01*
X133608609Y-76754827D01*
X133551482Y-76838423D01*
X133486627Y-76932982D01*
X133468157Y-76959854D01*
X133402301Y-77057275D01*
X133344350Y-77146163D01*
X133297462Y-77221412D01*
X133264793Y-77277920D01*
X133249500Y-77310581D01*
X133248759Y-77314593D01*
X133261608Y-77335684D01*
X133297112Y-77377464D01*
X133350707Y-77435445D01*
X133417829Y-77505135D01*
X133493913Y-77582045D01*
X133574396Y-77661683D01*
X133654713Y-77739561D01*
X133730301Y-77811186D01*
X133796595Y-77872070D01*
X133849031Y-77917721D01*
X133883045Y-77943650D01*
X133892455Y-77947883D01*
X133914357Y-77937912D01*
X133959200Y-77911020D01*
X134019679Y-77871736D01*
X134066211Y-77840117D01*
X134150525Y-77782098D01*
X134250374Y-77713784D01*
X134350527Y-77645579D01*
X134404373Y-77609075D01*
X134586629Y-77485800D01*
X134739619Y-77568520D01*
X134809318Y-77604759D01*
X134868586Y-77632926D01*
X134908689Y-77648991D01*
X134918897Y-77651226D01*
X134931171Y-77634722D01*
X134955387Y-77588082D01*
X134989737Y-77515609D01*
X135032412Y-77421606D01*
X135081606Y-77310374D01*
X135135510Y-77186215D01*
X135192316Y-77053432D01*
X135250218Y-76916327D01*
X135307407Y-76779202D01*
X135362076Y-76646358D01*
X135412416Y-76522098D01*
X135456620Y-76410725D01*
X135492881Y-76316539D01*
X135519391Y-76243844D01*
X135534342Y-76196941D01*
X135536746Y-76180833D01*
X135517689Y-76160286D01*
X135475964Y-76126933D01*
X135420294Y-76087702D01*
X135415622Y-76084599D01*
X135271736Y-75969423D01*
X135155717Y-75835053D01*
X135068570Y-75685784D01*
X135011301Y-75525913D01*
X134984914Y-75359737D01*
X134990415Y-75191552D01*
X135028810Y-75025655D01*
X135101105Y-74866342D01*
X135122374Y-74831487D01*
X135233004Y-74690737D01*
X135363698Y-74577714D01*
X135509936Y-74493003D01*
X135667192Y-74437194D01*
X135830943Y-74410874D01*
X135996667Y-74414630D01*
X136159838Y-74449050D01*
X136315935Y-74514723D01*
X136460433Y-74612235D01*
X136505131Y-74651813D01*
X136618888Y-74775703D01*
X136701782Y-74906124D01*
X136758644Y-75052315D01*
X136790313Y-75197088D01*
X136798131Y-75359860D01*
X136772062Y-75523440D01*
X136714755Y-75682298D01*
X136628856Y-75830906D01*
X136517014Y-75963735D01*
X136381877Y-76075256D01*
X136364117Y-76087011D01*
X136307850Y-76125508D01*
X136265077Y-76158863D01*
X136244628Y-76180160D01*
X136244331Y-76180833D01*
X136248721Y-76203871D01*
X136266124Y-76256157D01*
X136294732Y-76333390D01*
X136332735Y-76431268D01*
X136378326Y-76545491D01*
X136429697Y-76671758D01*
X136485038Y-76805767D01*
X136542542Y-76943218D01*
X136600399Y-77079808D01*
X136656802Y-77211237D01*
X136709942Y-77333205D01*
X136758010Y-77441409D01*
X136799199Y-77531549D01*
X136831699Y-77599323D01*
X136853703Y-77640430D01*
X136862564Y-77651226D01*
X136889640Y-77642819D01*
X136940303Y-77620272D01*
X137005817Y-77587613D01*
X137041841Y-77568520D01*
X137194832Y-77485800D01*
X137377088Y-77609075D01*
X137470125Y-77672228D01*
X137571985Y-77741727D01*
X137667438Y-77807165D01*
X137715250Y-77840117D01*
X137782495Y-77885273D01*
X137839436Y-77921057D01*
X137878646Y-77942938D01*
X137891381Y-77947563D01*
X137909917Y-77935085D01*
X137950941Y-77900252D01*
X138010475Y-77846678D01*
X138084542Y-77777983D01*
X138169165Y-77697781D01*
X138222685Y-77646286D01*
X138316319Y-77554286D01*
X138397241Y-77471999D01*
X138462177Y-77402945D01*
X138507858Y-77350644D01*
X138531011Y-77318616D01*
X138533232Y-77312116D01*
X138522924Y-77287394D01*
X138494439Y-77237405D01*
X138450937Y-77167212D01*
X138395577Y-77081875D01*
X138331520Y-76986456D01*
X138313303Y-76959854D01*
X138246927Y-76863167D01*
X138187378Y-76776117D01*
X138137984Y-76703595D01*
X138102075Y-76650493D01*
X138082981Y-76621703D01*
X138081136Y-76618726D01*
X138083895Y-76595782D01*
X138098538Y-76545336D01*
X138122513Y-76474041D01*
X138153266Y-76388547D01*
X138188244Y-76295507D01*
X138224893Y-76201574D01*
X138260661Y-76113399D01*
X138292994Y-76037634D01*
X138319338Y-75980931D01*
X138337142Y-75949943D01*
X138338407Y-75948457D01*
X138349294Y-75939601D01*
X138367682Y-75930843D01*
X138397606Y-75921277D01*
X138443103Y-75909996D01*
X138508209Y-75896093D01*
X138596961Y-75878663D01*
X138713393Y-75856798D01*
X138861542Y-75829591D01*
X138893618Y-75823741D01*
X138988686Y-75805374D01*
X139071565Y-75787405D01*
X139134930Y-75771569D01*
X139171458Y-75759600D01*
X139176356Y-75756810D01*
X139184427Y-75732072D01*
X139190987Y-75676790D01*
X139196033Y-75597389D01*
X139199559Y-75500296D01*
X139201561Y-75391938D01*
X139202036Y-75278740D01*
X139200977Y-75167128D01*
X139198382Y-75063529D01*
X139194246Y-74974368D01*
X139188563Y-74906072D01*
X139181331Y-74865066D01*
X139176971Y-74856674D01*
X139152698Y-74848208D01*
X139097426Y-74834435D01*
X139016662Y-74816550D01*
X138915912Y-74795748D01*
X138800683Y-74773223D01*
X138737902Y-74761418D01*
X138618787Y-74739151D01*
X138512565Y-74718979D01*
X138424427Y-74701915D01*
X138359566Y-74688969D01*
X138323174Y-74681155D01*
X138317184Y-74679422D01*
X138307061Y-74659890D01*
X138285662Y-74612843D01*
X138255839Y-74545003D01*
X138220445Y-74463091D01*
X138182332Y-74373828D01*
X138144353Y-74283935D01*
X138109360Y-74200135D01*
X138080206Y-74129147D01*
X138059743Y-74077694D01*
X138050823Y-74052497D01*
X138050657Y-74051396D01*
X138060769Y-74031519D01*
X138089117Y-73985777D01*
X138132723Y-73918717D01*
X138188606Y-73834884D01*
X138253787Y-73738826D01*
X138291679Y-73683650D01*
X138360725Y-73582481D01*
X138422050Y-73490630D01*
X138472663Y-73412744D01*
X138509571Y-73353469D01*
X138529782Y-73317451D01*
X138532701Y-73309377D01*
X138520153Y-73290584D01*
X138485463Y-73250457D01*
X138433063Y-73193493D01*
X138367384Y-73124185D01*
X138292856Y-73047031D01*
X138213913Y-72966525D01*
X138134983Y-72887163D01*
X138060500Y-72813440D01*
X137994894Y-72749852D01*
X137942596Y-72700894D01*
X137908039Y-72671061D01*
X137896478Y-72663942D01*
X137877654Y-72673953D01*
X137832631Y-72702078D01*
X137765787Y-72745454D01*
X137681499Y-72801218D01*
X137584144Y-72866506D01*
X137510707Y-72916246D01*
X137139667Y-73168551D01*
X136521095Y-72913555D01*
X136437275Y-72468931D01*
X136353454Y-72024307D01*
X135428006Y-72024307D01*
X135344186Y-72468931D01*
X135344186Y-72468931D01*
G37*
X135344186Y-72468931D02*
X135260365Y-72913555D01*
X134951080Y-73041053D01*
X134641794Y-73168551D01*
X134270754Y-72916246D01*
X134166843Y-72845996D01*
X134072913Y-72783272D01*
X133993348Y-72730938D01*
X133932530Y-72691857D01*
X133894843Y-72668893D01*
X133884579Y-72663942D01*
X133866090Y-72676676D01*
X133826580Y-72711882D01*
X133770478Y-72765062D01*
X133702213Y-72831718D01*
X133626214Y-72907354D01*
X133546908Y-72987472D01*
X133468725Y-73067574D01*
X133396093Y-73143164D01*
X133333441Y-73209745D01*
X133285197Y-73262818D01*
X133255790Y-73297887D01*
X133248759Y-73309623D01*
X133258877Y-73331260D01*
X133287241Y-73378662D01*
X133330871Y-73447193D01*
X133386782Y-73532215D01*
X133451994Y-73629093D01*
X133489781Y-73684350D01*
X133558657Y-73785248D01*
X133619860Y-73876299D01*
X133670422Y-73952970D01*
X133707372Y-74010728D01*
X133727742Y-74045043D01*
X133730803Y-74052254D01*
X133723864Y-74072748D01*
X133704949Y-74120513D01*
X133676913Y-74188832D01*
X133642609Y-74270989D01*
X133604891Y-74360270D01*
X133566613Y-74449958D01*
X133530630Y-74533338D01*
X133499794Y-74603694D01*
X133476961Y-74654310D01*
X133464983Y-74678471D01*
X133464276Y-74679422D01*
X133445469Y-74684036D01*
X133395382Y-74694328D01*
X133319207Y-74709287D01*
X133222135Y-74727901D01*
X133109357Y-74749159D01*
X133043558Y-74761418D01*
X132923050Y-74784362D01*
X132814203Y-74806195D01*
X132722524Y-74825722D01*
X132653519Y-74841748D01*
X132612696Y-74853079D01*
X132604489Y-74856674D01*
X132596452Y-74881006D01*
X132589967Y-74935959D01*
X132585030Y-75015108D01*
X132581636Y-75112026D01*
X132579782Y-75220287D01*
X132579462Y-75333465D01*
X132580673Y-75445135D01*
X132583410Y-75548868D01*
X132587669Y-75638241D01*
X132593445Y-75706826D01*
X132600733Y-75748197D01*
X132605105Y-75756810D01*
X132631236Y-75767133D01*
X132686607Y-75781892D01*
X132763893Y-75799352D01*
X132855770Y-75817780D01*
X132887842Y-75823741D01*
X133042476Y-75852066D01*
X133164625Y-75874876D01*
X133258327Y-75893080D01*
X133327616Y-75907583D01*
X133376529Y-75919292D01*
X133409103Y-75929115D01*
X133429372Y-75937956D01*
X133441374Y-75946724D01*
X133443053Y-75948457D01*
X133459816Y-75976371D01*
X133485386Y-76030695D01*
X133517212Y-76104777D01*
X133552740Y-76191965D01*
X133589417Y-76285608D01*
X133624689Y-76379052D01*
X133656004Y-76465647D01*
X133680807Y-76538740D01*
X133696546Y-76591678D01*
X133700668Y-76617811D01*
X133700324Y-76618726D01*
X133686359Y-76640086D01*
X133654678Y-76687084D01*
X133608609Y-76754827D01*
X133551482Y-76838423D01*
X133486627Y-76932982D01*
X133468157Y-76959854D01*
X133402301Y-77057275D01*
X133344350Y-77146163D01*
X133297462Y-77221412D01*
X133264793Y-77277920D01*
X133249500Y-77310581D01*
X133248759Y-77314593D01*
X133261608Y-77335684D01*
X133297112Y-77377464D01*
X133350707Y-77435445D01*
X133417829Y-77505135D01*
X133493913Y-77582045D01*
X133574396Y-77661683D01*
X133654713Y-77739561D01*
X133730301Y-77811186D01*
X133796595Y-77872070D01*
X133849031Y-77917721D01*
X133883045Y-77943650D01*
X133892455Y-77947883D01*
X133914357Y-77937912D01*
X133959200Y-77911020D01*
X134019679Y-77871736D01*
X134066211Y-77840117D01*
X134150525Y-77782098D01*
X134250374Y-77713784D01*
X134350527Y-77645579D01*
X134404373Y-77609075D01*
X134586629Y-77485800D01*
X134739619Y-77568520D01*
X134809318Y-77604759D01*
X134868586Y-77632926D01*
X134908689Y-77648991D01*
X134918897Y-77651226D01*
X134931171Y-77634722D01*
X134955387Y-77588082D01*
X134989737Y-77515609D01*
X135032412Y-77421606D01*
X135081606Y-77310374D01*
X135135510Y-77186215D01*
X135192316Y-77053432D01*
X135250218Y-76916327D01*
X135307407Y-76779202D01*
X135362076Y-76646358D01*
X135412416Y-76522098D01*
X135456620Y-76410725D01*
X135492881Y-76316539D01*
X135519391Y-76243844D01*
X135534342Y-76196941D01*
X135536746Y-76180833D01*
X135517689Y-76160286D01*
X135475964Y-76126933D01*
X135420294Y-76087702D01*
X135415622Y-76084599D01*
X135271736Y-75969423D01*
X135155717Y-75835053D01*
X135068570Y-75685784D01*
X135011301Y-75525913D01*
X134984914Y-75359737D01*
X134990415Y-75191552D01*
X135028810Y-75025655D01*
X135101105Y-74866342D01*
X135122374Y-74831487D01*
X135233004Y-74690737D01*
X135363698Y-74577714D01*
X135509936Y-74493003D01*
X135667192Y-74437194D01*
X135830943Y-74410874D01*
X135996667Y-74414630D01*
X136159838Y-74449050D01*
X136315935Y-74514723D01*
X136460433Y-74612235D01*
X136505131Y-74651813D01*
X136618888Y-74775703D01*
X136701782Y-74906124D01*
X136758644Y-75052315D01*
X136790313Y-75197088D01*
X136798131Y-75359860D01*
X136772062Y-75523440D01*
X136714755Y-75682298D01*
X136628856Y-75830906D01*
X136517014Y-75963735D01*
X136381877Y-76075256D01*
X136364117Y-76087011D01*
X136307850Y-76125508D01*
X136265077Y-76158863D01*
X136244628Y-76180160D01*
X136244331Y-76180833D01*
X136248721Y-76203871D01*
X136266124Y-76256157D01*
X136294732Y-76333390D01*
X136332735Y-76431268D01*
X136378326Y-76545491D01*
X136429697Y-76671758D01*
X136485038Y-76805767D01*
X136542542Y-76943218D01*
X136600399Y-77079808D01*
X136656802Y-77211237D01*
X136709942Y-77333205D01*
X136758010Y-77441409D01*
X136799199Y-77531549D01*
X136831699Y-77599323D01*
X136853703Y-77640430D01*
X136862564Y-77651226D01*
X136889640Y-77642819D01*
X136940303Y-77620272D01*
X137005817Y-77587613D01*
X137041841Y-77568520D01*
X137194832Y-77485800D01*
X137377088Y-77609075D01*
X137470125Y-77672228D01*
X137571985Y-77741727D01*
X137667438Y-77807165D01*
X137715250Y-77840117D01*
X137782495Y-77885273D01*
X137839436Y-77921057D01*
X137878646Y-77942938D01*
X137891381Y-77947563D01*
X137909917Y-77935085D01*
X137950941Y-77900252D01*
X138010475Y-77846678D01*
X138084542Y-77777983D01*
X138169165Y-77697781D01*
X138222685Y-77646286D01*
X138316319Y-77554286D01*
X138397241Y-77471999D01*
X138462177Y-77402945D01*
X138507858Y-77350644D01*
X138531011Y-77318616D01*
X138533232Y-77312116D01*
X138522924Y-77287394D01*
X138494439Y-77237405D01*
X138450937Y-77167212D01*
X138395577Y-77081875D01*
X138331520Y-76986456D01*
X138313303Y-76959854D01*
X138246927Y-76863167D01*
X138187378Y-76776117D01*
X138137984Y-76703595D01*
X138102075Y-76650493D01*
X138082981Y-76621703D01*
X138081136Y-76618726D01*
X138083895Y-76595782D01*
X138098538Y-76545336D01*
X138122513Y-76474041D01*
X138153266Y-76388547D01*
X138188244Y-76295507D01*
X138224893Y-76201574D01*
X138260661Y-76113399D01*
X138292994Y-76037634D01*
X138319338Y-75980931D01*
X138337142Y-75949943D01*
X138338407Y-75948457D01*
X138349294Y-75939601D01*
X138367682Y-75930843D01*
X138397606Y-75921277D01*
X138443103Y-75909996D01*
X138508209Y-75896093D01*
X138596961Y-75878663D01*
X138713393Y-75856798D01*
X138861542Y-75829591D01*
X138893618Y-75823741D01*
X138988686Y-75805374D01*
X139071565Y-75787405D01*
X139134930Y-75771569D01*
X139171458Y-75759600D01*
X139176356Y-75756810D01*
X139184427Y-75732072D01*
X139190987Y-75676790D01*
X139196033Y-75597389D01*
X139199559Y-75500296D01*
X139201561Y-75391938D01*
X139202036Y-75278740D01*
X139200977Y-75167128D01*
X139198382Y-75063529D01*
X139194246Y-74974368D01*
X139188563Y-74906072D01*
X139181331Y-74865066D01*
X139176971Y-74856674D01*
X139152698Y-74848208D01*
X139097426Y-74834435D01*
X139016662Y-74816550D01*
X138915912Y-74795748D01*
X138800683Y-74773223D01*
X138737902Y-74761418D01*
X138618787Y-74739151D01*
X138512565Y-74718979D01*
X138424427Y-74701915D01*
X138359566Y-74688969D01*
X138323174Y-74681155D01*
X138317184Y-74679422D01*
X138307061Y-74659890D01*
X138285662Y-74612843D01*
X138255839Y-74545003D01*
X138220445Y-74463091D01*
X138182332Y-74373828D01*
X138144353Y-74283935D01*
X138109360Y-74200135D01*
X138080206Y-74129147D01*
X138059743Y-74077694D01*
X138050823Y-74052497D01*
X138050657Y-74051396D01*
X138060769Y-74031519D01*
X138089117Y-73985777D01*
X138132723Y-73918717D01*
X138188606Y-73834884D01*
X138253787Y-73738826D01*
X138291679Y-73683650D01*
X138360725Y-73582481D01*
X138422050Y-73490630D01*
X138472663Y-73412744D01*
X138509571Y-73353469D01*
X138529782Y-73317451D01*
X138532701Y-73309377D01*
X138520153Y-73290584D01*
X138485463Y-73250457D01*
X138433063Y-73193493D01*
X138367384Y-73124185D01*
X138292856Y-73047031D01*
X138213913Y-72966525D01*
X138134983Y-72887163D01*
X138060500Y-72813440D01*
X137994894Y-72749852D01*
X137942596Y-72700894D01*
X137908039Y-72671061D01*
X137896478Y-72663942D01*
X137877654Y-72673953D01*
X137832631Y-72702078D01*
X137765787Y-72745454D01*
X137681499Y-72801218D01*
X137584144Y-72866506D01*
X137510707Y-72916246D01*
X137139667Y-73168551D01*
X136521095Y-72913555D01*
X136437275Y-72468931D01*
X136353454Y-72024307D01*
X135428006Y-72024307D01*
X135344186Y-72468931D01*
G04 #@! TO.C,N2*
D11*
X138819047Y-85447619D02*
X138771428Y-85400000D01*
X138676190Y-85352380D01*
X138438095Y-85352380D01*
X138342857Y-85400000D01*
X138295238Y-85447619D01*
X138247619Y-85542857D01*
X138247619Y-85638095D01*
X138295238Y-85780952D01*
X138866666Y-86352380D01*
X138247619Y-86352380D01*
X137628571Y-85352380D02*
X137533333Y-85352380D01*
X137438095Y-85400000D01*
X137390476Y-85447619D01*
X137342857Y-85542857D01*
X137295238Y-85733333D01*
X137295238Y-85971428D01*
X137342857Y-86161904D01*
X137390476Y-86257142D01*
X137438095Y-86304761D01*
X137533333Y-86352380D01*
X137628571Y-86352380D01*
X137723809Y-86304761D01*
X137771428Y-86257142D01*
X137819047Y-86161904D01*
X137866666Y-85971428D01*
X137866666Y-85733333D01*
X137819047Y-85542857D01*
X137771428Y-85447619D01*
X137723809Y-85400000D01*
X137628571Y-85352380D01*
X136342857Y-86352380D02*
X136914285Y-86352380D01*
X136628571Y-86352380D02*
X136628571Y-85352380D01*
X136723809Y-85495238D01*
X136819047Y-85590476D01*
X136914285Y-85638095D01*
X135771428Y-85780952D02*
X135866666Y-85733333D01*
X135914285Y-85685714D01*
X135961904Y-85590476D01*
X135961904Y-85542857D01*
X135914285Y-85447619D01*
X135866666Y-85400000D01*
X135771428Y-85352380D01*
X135580952Y-85352380D01*
X135485714Y-85400000D01*
X135438095Y-85447619D01*
X135390476Y-85542857D01*
X135390476Y-85590476D01*
X135438095Y-85685714D01*
X135485714Y-85733333D01*
X135580952Y-85780952D01*
X135771428Y-85780952D01*
X135866666Y-85828571D01*
X135914285Y-85876190D01*
X135961904Y-85971428D01*
X135961904Y-86161904D01*
X135914285Y-86257142D01*
X135866666Y-86304761D01*
X135771428Y-86352380D01*
X135580952Y-86352380D01*
X135485714Y-86304761D01*
X135438095Y-86257142D01*
X135390476Y-86161904D01*
X135390476Y-85971428D01*
X135438095Y-85876190D01*
X135485714Y-85828571D01*
X135580952Y-85780952D01*
X134438095Y-86352380D02*
X135009523Y-86352380D01*
X134723809Y-86352380D02*
X134723809Y-85352380D01*
X134819047Y-85495238D01*
X134914285Y-85590476D01*
X135009523Y-85638095D01*
X133485714Y-86352380D02*
X134057142Y-86352380D01*
X133771428Y-86352380D02*
X133771428Y-85352380D01*
X133866666Y-85495238D01*
X133961904Y-85590476D01*
X134057142Y-85638095D01*
X132533333Y-86352380D02*
X133104761Y-86352380D01*
X132819047Y-86352380D02*
X132819047Y-85352380D01*
X132914285Y-85495238D01*
X133009523Y-85590476D01*
X133104761Y-85638095D01*
X132200000Y-85352380D02*
X131533333Y-85352380D01*
X131961904Y-86352380D01*
X140271428Y-85352380D02*
X139938095Y-86352380D01*
X139604761Y-85352380D01*
X139271428Y-86257142D02*
X139223809Y-86304761D01*
X139271428Y-86352380D01*
X139319047Y-86304761D01*
X139271428Y-86257142D01*
X139271428Y-86352380D01*
X139271428Y-85733333D02*
X139223809Y-85780952D01*
X139271428Y-85828571D01*
X139319047Y-85780952D01*
X139271428Y-85733333D01*
X139271428Y-85828571D01*
G04 #@! TD*
M02*
