M48
;DRILL file {KiCad 5.0.1-33cea8e~68~ubuntu18.04.1} date do 22 nov 2018 22:55:44 CET
;FORMAT={-:-/ absolute / inch / decimal}
FMAT,2
INCH,TZ
T1C0.0100
T2C0.0236
T3C0.0394
%
G90
G05
M72
T1
X5.4138Y-3.35
X5.4142Y-3.3
X5.4646Y-2.9173
X5.6339Y-3.5512
X5.6614Y-2.9331
X5.6969Y-3.5512
T2
X5.6Y-3.15
X5.6Y-3.2
X5.6Y-3.25
X5.6Y-3.3
X5.6Y-3.35
X5.65Y-3.15
X5.65Y-3.2
X5.65Y-3.25
X5.65Y-3.3
X5.65Y-3.35
T3
X5.2Y-2.8
X5.2Y-2.9
X5.2Y-3.
X5.2Y-3.1
X5.2Y-3.2
X5.2Y-3.3
X5.2Y-3.4
X5.2Y-3.5
X5.2Y-3.6
X5.2Y-3.7
X5.3Y-2.8
X5.3Y-2.9
X5.3Y-3.
X5.3Y-3.1
X5.3Y-3.2
X5.3Y-3.3
X5.3Y-3.4
X5.3Y-3.5
X5.3Y-3.6
X5.3Y-3.7
T0
M30
