G04 #@! TF.GenerationSoftware,KiCad,Pcbnew,5.0.1-33cea8e~68~ubuntu18.04.1*
G04 #@! TF.CreationDate,2018-11-22T22:47:37+01:00*
G04 #@! TF.ProjectId,jtag_20pin_to_10pin,6A7461675F323070696E5F746F5F3130,rev?*
G04 #@! TF.SameCoordinates,Original*
G04 #@! TF.FileFunction,Copper,L2,Bot,Signal*
G04 #@! TF.FilePolarity,Positive*
%FSLAX46Y46*%
G04 Gerber Fmt 4.6, Leading zero omitted, Abs format (unit mm)*
G04 Created by KiCad (PCBNEW 5.0.1-33cea8e~68~ubuntu18.04.1) date do 22 nov 2018 22:47:37 CET*
%MOMM*%
%LPD*%
G01*
G04 APERTURE LIST*
G04 #@! TA.AperFunction,SMDPad,CuDef*
%ADD10R,0.900000X0.700000*%
G04 #@! TD*
G04 #@! TA.AperFunction,ComponentPad*
%ADD11R,1.300000X1.300000*%
G04 #@! TD*
G04 #@! TA.AperFunction,ComponentPad*
%ADD12C,1.300000*%
G04 #@! TD*
G04 #@! TA.AperFunction,ComponentPad*
%ADD13R,0.750000X0.750000*%
G04 #@! TD*
G04 #@! TA.AperFunction,ComponentPad*
%ADD14C,0.750000*%
G04 #@! TD*
G04 #@! TA.AperFunction,SMDPad,CuDef*
%ADD15R,0.900000X1.400000*%
G04 #@! TD*
G04 #@! TA.AperFunction,ViaPad*
%ADD16C,0.381000*%
G04 #@! TD*
G04 #@! TA.AperFunction,Conductor*
%ADD17C,0.400000*%
G04 #@! TD*
G04 #@! TA.AperFunction,Conductor*
%ADD18C,0.200000*%
G04 #@! TD*
G04 APERTURE END LIST*
D10*
G04 #@! TO.P,D2,1*
G04 #@! TO.N,Net-(D2-Pad1)*
X144700000Y-93150000D03*
G04 #@! TO.P,D2,2*
G04 #@! TO.N,VCC*
X144700000Y-91450000D03*
G04 #@! TD*
D11*
G04 #@! TO.P,J1,1*
G04 #@! TO.N,VCC*
X132080000Y-71120000D03*
D12*
G04 #@! TO.P,J1,2*
X134620000Y-71120000D03*
G04 #@! TO.P,J1,3*
G04 #@! TO.N,GND*
X132080000Y-73660000D03*
G04 #@! TO.P,J1,4*
G04 #@! TO.N,N/C*
X134620000Y-73660000D03*
G04 #@! TO.P,J1,5*
G04 #@! TO.N,GND*
X132080000Y-76200000D03*
G04 #@! TO.P,J1,6*
G04 #@! TO.N,/TDI*
X134620000Y-76200000D03*
G04 #@! TO.P,J1,7*
G04 #@! TO.N,GND*
X132080000Y-78740000D03*
G04 #@! TO.P,J1,8*
G04 #@! TO.N,/TMS*
X134620000Y-78740000D03*
G04 #@! TO.P,J1,9*
G04 #@! TO.N,GND*
X132080000Y-81280000D03*
G04 #@! TO.P,J1,10*
G04 #@! TO.N,/TCK*
X134620000Y-81280000D03*
G04 #@! TO.P,J1,11*
G04 #@! TO.N,GND*
X132080000Y-83820000D03*
G04 #@! TO.P,J1,12*
G04 #@! TO.N,N/C*
X134620000Y-83820000D03*
G04 #@! TO.P,J1,13*
G04 #@! TO.N,GND*
X132080000Y-86360000D03*
G04 #@! TO.P,J1,14*
G04 #@! TO.N,/TDO*
X134620000Y-86360000D03*
G04 #@! TO.P,J1,15*
G04 #@! TO.N,GND*
X132080000Y-88900000D03*
G04 #@! TO.P,J1,16*
G04 #@! TO.N,/RESET*
X134620000Y-88900000D03*
G04 #@! TO.P,J1,17*
G04 #@! TO.N,GND*
X132080000Y-91440000D03*
G04 #@! TO.P,J1,18*
G04 #@! TO.N,N/C*
X134620000Y-91440000D03*
G04 #@! TO.P,J1,19*
G04 #@! TO.N,GND*
X132080000Y-93980000D03*
G04 #@! TO.P,J1,20*
G04 #@! TO.N,N/C*
X134620000Y-93980000D03*
G04 #@! TD*
D13*
G04 #@! TO.P,J2,1*
G04 #@! TO.N,VCC*
X143510000Y-85090000D03*
D14*
G04 #@! TO.P,J2,2*
G04 #@! TO.N,/TMS*
X142240000Y-85090000D03*
G04 #@! TO.P,J2,3*
G04 #@! TO.N,GND*
X143510000Y-83820000D03*
G04 #@! TO.P,J2,4*
G04 #@! TO.N,/TCK*
X142240000Y-83820000D03*
G04 #@! TO.P,J2,5*
G04 #@! TO.N,GND*
X143510000Y-82550000D03*
G04 #@! TO.P,J2,6*
G04 #@! TO.N,/TDO*
X142240000Y-82550000D03*
G04 #@! TO.P,J2,7*
G04 #@! TO.N,N/C*
X143510000Y-81280000D03*
G04 #@! TO.P,J2,8*
G04 #@! TO.N,/TDI*
X142240000Y-81280000D03*
G04 #@! TO.P,J2,9*
G04 #@! TO.N,GND*
X143510000Y-80010000D03*
G04 #@! TO.P,J2,10*
G04 #@! TO.N,/RESET*
X142240000Y-80010000D03*
G04 #@! TD*
D10*
G04 #@! TO.P,R2,2*
G04 #@! TO.N,GND*
X143100000Y-91450000D03*
G04 #@! TO.P,R2,1*
G04 #@! TO.N,Net-(D2-Pad1)*
X143100000Y-93150000D03*
G04 #@! TD*
D15*
G04 #@! TO.P,S1,1*
G04 #@! TO.N,/RESET*
X138800000Y-72700000D03*
G04 #@! TO.P,S1,2*
G04 #@! TO.N,GND*
X143800000Y-72700000D03*
G04 #@! TD*
D16*
G04 #@! TO.N,VCC*
X144700000Y-90200000D03*
G04 #@! TO.N,GND*
X143800000Y-74500000D03*
X143100000Y-90200000D03*
G04 #@! TO.N,/TMS*
X137510000Y-85090000D03*
G04 #@! TO.N,/TCK*
X137520000Y-83820000D03*
G04 #@! TO.N,/RESET*
X138800000Y-74100000D03*
G04 #@! TD*
D17*
G04 #@! TO.N,VCC*
X144700000Y-91450000D02*
X144700000Y-90200000D01*
G04 #@! TO.N,Net-(D2-Pad1)*
X144700000Y-93150000D02*
X143100000Y-93150000D01*
G04 #@! TO.N,GND*
X143800000Y-72700000D02*
X143800000Y-74500000D01*
X143100000Y-91450000D02*
X143100000Y-90200000D01*
G04 #@! TO.N,/TDI*
X142240000Y-81280000D02*
X139780000Y-81280000D01*
X134700000Y-76200000D02*
X134620000Y-76200000D01*
X139780000Y-81280000D02*
X134700000Y-76200000D01*
G04 #@! TO.N,/TMS*
X142240000Y-85090000D02*
X137510000Y-85090000D01*
G04 #@! TO.N,/TCK*
X142240000Y-83820000D02*
X137520000Y-83820000D01*
G04 #@! TO.N,/TDO*
X142240000Y-82550000D02*
X137350000Y-82550000D01*
X137350000Y-82550000D02*
X136700000Y-83200000D01*
X136700000Y-84280000D02*
X134620000Y-86360000D01*
X136700000Y-83200000D02*
X136700000Y-84280000D01*
G04 #@! TO.N,/RESET*
X138800000Y-72700000D02*
X138800000Y-74100000D01*
G04 #@! TD*
D18*
G04 #@! TO.N,VCC*
G36*
X145425000Y-90555814D02*
X145270938Y-90492000D01*
X145006000Y-90492000D01*
X144854000Y-90644000D01*
X144854000Y-91296000D01*
X144874000Y-91296000D01*
X144874000Y-91604000D01*
X144854000Y-91604000D01*
X144854000Y-91624000D01*
X144546000Y-91624000D01*
X144546000Y-91604000D01*
X144526000Y-91604000D01*
X144526000Y-91296000D01*
X144546000Y-91296000D01*
X144546000Y-90644000D01*
X144394000Y-90492000D01*
X144129062Y-90492000D01*
X143905596Y-90584562D01*
X143742565Y-90747593D01*
X143706072Y-90723209D01*
X143700000Y-90722001D01*
X143700000Y-90140909D01*
X143690500Y-90093149D01*
X143690500Y-90082542D01*
X143686441Y-90072742D01*
X143665187Y-89965892D01*
X143604663Y-89875311D01*
X143600602Y-89865508D01*
X143593099Y-89858005D01*
X143532575Y-89767425D01*
X143441995Y-89706901D01*
X143434492Y-89699398D01*
X143424689Y-89695337D01*
X143334108Y-89634813D01*
X143227258Y-89613559D01*
X143217458Y-89609500D01*
X143206851Y-89609500D01*
X143100000Y-89588246D01*
X142993149Y-89609500D01*
X142982542Y-89609500D01*
X142972742Y-89613559D01*
X142865893Y-89634813D01*
X142775314Y-89695336D01*
X142765508Y-89699398D01*
X142758003Y-89706903D01*
X142667426Y-89767425D01*
X142606904Y-89858002D01*
X142599398Y-89865508D01*
X142595336Y-89875315D01*
X142534814Y-89965892D01*
X142513561Y-90072738D01*
X142509500Y-90082542D01*
X142509500Y-90093154D01*
X142500001Y-90140909D01*
X142500001Y-90722001D01*
X142493928Y-90723209D01*
X142361616Y-90811616D01*
X142273209Y-90943928D01*
X142242164Y-91100000D01*
X142242164Y-91800000D01*
X142273209Y-91956072D01*
X142361616Y-92088384D01*
X142493928Y-92176791D01*
X142650000Y-92207836D01*
X143550000Y-92207836D01*
X143706072Y-92176791D01*
X143742565Y-92152407D01*
X143905596Y-92315438D01*
X144129062Y-92408000D01*
X144170388Y-92408000D01*
X144093928Y-92423209D01*
X143961616Y-92511616D01*
X143935969Y-92550000D01*
X143864031Y-92550000D01*
X143838384Y-92511616D01*
X143706072Y-92423209D01*
X143550000Y-92392164D01*
X142650000Y-92392164D01*
X142493928Y-92423209D01*
X142361616Y-92511616D01*
X142273209Y-92643928D01*
X142242164Y-92800000D01*
X142242164Y-93500000D01*
X142273209Y-93656072D01*
X142361616Y-93788384D01*
X142493928Y-93876791D01*
X142650000Y-93907836D01*
X143550000Y-93907836D01*
X143706072Y-93876791D01*
X143838384Y-93788384D01*
X143864031Y-93750000D01*
X143935969Y-93750000D01*
X143961616Y-93788384D01*
X144093928Y-93876791D01*
X144250000Y-93907836D01*
X145150000Y-93907836D01*
X145306072Y-93876791D01*
X145425000Y-93797327D01*
X145425000Y-95325000D01*
X130775000Y-95325000D01*
X130775000Y-93771142D01*
X131030000Y-93771142D01*
X131030000Y-94188858D01*
X131189853Y-94574777D01*
X131485223Y-94870147D01*
X131871142Y-95030000D01*
X132288858Y-95030000D01*
X132674777Y-94870147D01*
X132970147Y-94574777D01*
X133130000Y-94188858D01*
X133130000Y-93771142D01*
X133570000Y-93771142D01*
X133570000Y-94188858D01*
X133729853Y-94574777D01*
X134025223Y-94870147D01*
X134411142Y-95030000D01*
X134828858Y-95030000D01*
X135214777Y-94870147D01*
X135510147Y-94574777D01*
X135670000Y-94188858D01*
X135670000Y-93771142D01*
X135510147Y-93385223D01*
X135214777Y-93089853D01*
X134828858Y-92930000D01*
X134411142Y-92930000D01*
X134025223Y-93089853D01*
X133729853Y-93385223D01*
X133570000Y-93771142D01*
X133130000Y-93771142D01*
X132970147Y-93385223D01*
X132674777Y-93089853D01*
X132288858Y-92930000D01*
X131871142Y-92930000D01*
X131485223Y-93089853D01*
X131189853Y-93385223D01*
X131030000Y-93771142D01*
X130775000Y-93771142D01*
X130775000Y-91231142D01*
X131030000Y-91231142D01*
X131030000Y-91648858D01*
X131189853Y-92034777D01*
X131485223Y-92330147D01*
X131871142Y-92490000D01*
X132288858Y-92490000D01*
X132674777Y-92330147D01*
X132970147Y-92034777D01*
X133130000Y-91648858D01*
X133130000Y-91231142D01*
X133570000Y-91231142D01*
X133570000Y-91648858D01*
X133729853Y-92034777D01*
X134025223Y-92330147D01*
X134411142Y-92490000D01*
X134828858Y-92490000D01*
X135214777Y-92330147D01*
X135510147Y-92034777D01*
X135670000Y-91648858D01*
X135670000Y-91231142D01*
X135510147Y-90845223D01*
X135214777Y-90549853D01*
X134828858Y-90390000D01*
X134411142Y-90390000D01*
X134025223Y-90549853D01*
X133729853Y-90845223D01*
X133570000Y-91231142D01*
X133130000Y-91231142D01*
X132970147Y-90845223D01*
X132674777Y-90549853D01*
X132288858Y-90390000D01*
X131871142Y-90390000D01*
X131485223Y-90549853D01*
X131189853Y-90845223D01*
X131030000Y-91231142D01*
X130775000Y-91231142D01*
X130775000Y-88691142D01*
X131030000Y-88691142D01*
X131030000Y-89108858D01*
X131189853Y-89494777D01*
X131485223Y-89790147D01*
X131871142Y-89950000D01*
X132288858Y-89950000D01*
X132674777Y-89790147D01*
X132970147Y-89494777D01*
X133130000Y-89108858D01*
X133130000Y-88691142D01*
X133570000Y-88691142D01*
X133570000Y-89108858D01*
X133729853Y-89494777D01*
X134025223Y-89790147D01*
X134411142Y-89950000D01*
X134828858Y-89950000D01*
X135214777Y-89790147D01*
X135510147Y-89494777D01*
X135670000Y-89108858D01*
X135670000Y-88691142D01*
X135510147Y-88305223D01*
X135214777Y-88009853D01*
X134828858Y-87850000D01*
X134411142Y-87850000D01*
X134025223Y-88009853D01*
X133729853Y-88305223D01*
X133570000Y-88691142D01*
X133130000Y-88691142D01*
X132970147Y-88305223D01*
X132674777Y-88009853D01*
X132288858Y-87850000D01*
X131871142Y-87850000D01*
X131485223Y-88009853D01*
X131189853Y-88305223D01*
X131030000Y-88691142D01*
X130775000Y-88691142D01*
X130775000Y-86151142D01*
X131030000Y-86151142D01*
X131030000Y-86568858D01*
X131189853Y-86954777D01*
X131485223Y-87250147D01*
X131871142Y-87410000D01*
X132288858Y-87410000D01*
X132674777Y-87250147D01*
X132970147Y-86954777D01*
X133130000Y-86568858D01*
X133130000Y-86151142D01*
X132970147Y-85765223D01*
X132674777Y-85469853D01*
X132288858Y-85310000D01*
X131871142Y-85310000D01*
X131485223Y-85469853D01*
X131189853Y-85765223D01*
X131030000Y-86151142D01*
X130775000Y-86151142D01*
X130775000Y-83611142D01*
X131030000Y-83611142D01*
X131030000Y-84028858D01*
X131189853Y-84414777D01*
X131485223Y-84710147D01*
X131871142Y-84870000D01*
X132288858Y-84870000D01*
X132674777Y-84710147D01*
X132970147Y-84414777D01*
X133130000Y-84028858D01*
X133130000Y-83611142D01*
X133570000Y-83611142D01*
X133570000Y-84028858D01*
X133729853Y-84414777D01*
X134025223Y-84710147D01*
X134411142Y-84870000D01*
X134828858Y-84870000D01*
X135214777Y-84710147D01*
X135510147Y-84414777D01*
X135670000Y-84028858D01*
X135670000Y-83611142D01*
X135510147Y-83225223D01*
X135214777Y-82929853D01*
X134828858Y-82770000D01*
X134411142Y-82770000D01*
X134025223Y-82929853D01*
X133729853Y-83225223D01*
X133570000Y-83611142D01*
X133130000Y-83611142D01*
X132970147Y-83225223D01*
X132674777Y-82929853D01*
X132288858Y-82770000D01*
X131871142Y-82770000D01*
X131485223Y-82929853D01*
X131189853Y-83225223D01*
X131030000Y-83611142D01*
X130775000Y-83611142D01*
X130775000Y-81071142D01*
X131030000Y-81071142D01*
X131030000Y-81488858D01*
X131189853Y-81874777D01*
X131485223Y-82170147D01*
X131871142Y-82330000D01*
X132288858Y-82330000D01*
X132674777Y-82170147D01*
X132970147Y-81874777D01*
X133130000Y-81488858D01*
X133130000Y-81071142D01*
X133570000Y-81071142D01*
X133570000Y-81488858D01*
X133729853Y-81874777D01*
X134025223Y-82170147D01*
X134411142Y-82330000D01*
X134828858Y-82330000D01*
X135214777Y-82170147D01*
X135510147Y-81874777D01*
X135670000Y-81488858D01*
X135670000Y-81071142D01*
X135510147Y-80685223D01*
X135214777Y-80389853D01*
X134828858Y-80230000D01*
X134411142Y-80230000D01*
X134025223Y-80389853D01*
X133729853Y-80685223D01*
X133570000Y-81071142D01*
X133130000Y-81071142D01*
X132970147Y-80685223D01*
X132674777Y-80389853D01*
X132288858Y-80230000D01*
X131871142Y-80230000D01*
X131485223Y-80389853D01*
X131189853Y-80685223D01*
X131030000Y-81071142D01*
X130775000Y-81071142D01*
X130775000Y-78531142D01*
X131030000Y-78531142D01*
X131030000Y-78948858D01*
X131189853Y-79334777D01*
X131485223Y-79630147D01*
X131871142Y-79790000D01*
X132288858Y-79790000D01*
X132674777Y-79630147D01*
X132970147Y-79334777D01*
X133130000Y-78948858D01*
X133130000Y-78531142D01*
X133570000Y-78531142D01*
X133570000Y-78948858D01*
X133729853Y-79334777D01*
X134025223Y-79630147D01*
X134411142Y-79790000D01*
X134828858Y-79790000D01*
X135214777Y-79630147D01*
X135510147Y-79334777D01*
X135670000Y-78948858D01*
X135670000Y-78531142D01*
X135510147Y-78145223D01*
X135214777Y-77849853D01*
X134828858Y-77690000D01*
X134411142Y-77690000D01*
X134025223Y-77849853D01*
X133729853Y-78145223D01*
X133570000Y-78531142D01*
X133130000Y-78531142D01*
X132970147Y-78145223D01*
X132674777Y-77849853D01*
X132288858Y-77690000D01*
X131871142Y-77690000D01*
X131485223Y-77849853D01*
X131189853Y-78145223D01*
X131030000Y-78531142D01*
X130775000Y-78531142D01*
X130775000Y-75991142D01*
X131030000Y-75991142D01*
X131030000Y-76408858D01*
X131189853Y-76794777D01*
X131485223Y-77090147D01*
X131871142Y-77250000D01*
X132288858Y-77250000D01*
X132674777Y-77090147D01*
X132970147Y-76794777D01*
X133130000Y-76408858D01*
X133130000Y-75991142D01*
X133570000Y-75991142D01*
X133570000Y-76408858D01*
X133729853Y-76794777D01*
X134025223Y-77090147D01*
X134411142Y-77250000D01*
X134828858Y-77250000D01*
X134880204Y-77228732D01*
X139313953Y-81662481D01*
X139347425Y-81712575D01*
X139545892Y-81845187D01*
X139720909Y-81880000D01*
X139720913Y-81880000D01*
X139780000Y-81891753D01*
X139839086Y-81880000D01*
X141743985Y-81880000D01*
X141778985Y-81915000D01*
X141743985Y-81950000D01*
X137409088Y-81950000D01*
X137350000Y-81938247D01*
X137290912Y-81950000D01*
X137290909Y-81950000D01*
X137157687Y-81976499D01*
X137115891Y-81984813D01*
X137010850Y-82055000D01*
X136917425Y-82117425D01*
X136883953Y-82167519D01*
X136317521Y-82733952D01*
X136267425Y-82767425D01*
X136134813Y-82965893D01*
X136100000Y-83140910D01*
X136100000Y-83140914D01*
X136088247Y-83200000D01*
X136100000Y-83259087D01*
X136100001Y-84031471D01*
X134821473Y-85310000D01*
X134411142Y-85310000D01*
X134025223Y-85469853D01*
X133729853Y-85765223D01*
X133570000Y-86151142D01*
X133570000Y-86568858D01*
X133729853Y-86954777D01*
X134025223Y-87250147D01*
X134411142Y-87410000D01*
X134828858Y-87410000D01*
X135214777Y-87250147D01*
X135510147Y-86954777D01*
X135670000Y-86568858D01*
X135670000Y-86158527D01*
X136937904Y-84890623D01*
X136923559Y-84962742D01*
X136919500Y-84972542D01*
X136919500Y-84983149D01*
X136898246Y-85090000D01*
X136919500Y-85196851D01*
X136919500Y-85207458D01*
X136923559Y-85217258D01*
X136944813Y-85324108D01*
X137005337Y-85414689D01*
X137009398Y-85424492D01*
X137016901Y-85431995D01*
X137077425Y-85522575D01*
X137168005Y-85583099D01*
X137175508Y-85590602D01*
X137185311Y-85594663D01*
X137275892Y-85655187D01*
X137382742Y-85676441D01*
X137392542Y-85680500D01*
X137403149Y-85680500D01*
X137450909Y-85690000D01*
X141743985Y-85690000D01*
X141800998Y-85747013D01*
X142085843Y-85865000D01*
X142394157Y-85865000D01*
X142606209Y-85777165D01*
X142619563Y-85809405D01*
X142790596Y-85980438D01*
X143014062Y-86073000D01*
X143204000Y-86073000D01*
X143356000Y-85921000D01*
X143356000Y-85244000D01*
X143664000Y-85244000D01*
X143664000Y-85921000D01*
X143816000Y-86073000D01*
X144005938Y-86073000D01*
X144229404Y-85980438D01*
X144400437Y-85809405D01*
X144493000Y-85585939D01*
X144493000Y-85396000D01*
X144341000Y-85244000D01*
X143664000Y-85244000D01*
X143356000Y-85244000D01*
X143336000Y-85244000D01*
X143336000Y-84936000D01*
X143356000Y-84936000D01*
X143356000Y-84916000D01*
X143664000Y-84916000D01*
X143664000Y-84936000D01*
X144341000Y-84936000D01*
X144493000Y-84784000D01*
X144493000Y-84594061D01*
X144400437Y-84370595D01*
X144229404Y-84199562D01*
X144197165Y-84186208D01*
X144285000Y-83974157D01*
X144285000Y-83665843D01*
X144167013Y-83380998D01*
X143971015Y-83185000D01*
X144167013Y-82989002D01*
X144285000Y-82704157D01*
X144285000Y-82395843D01*
X144167013Y-82110998D01*
X143971015Y-81915000D01*
X144167013Y-81719002D01*
X144285000Y-81434157D01*
X144285000Y-81125843D01*
X144167013Y-80840998D01*
X143971015Y-80645000D01*
X144167013Y-80449002D01*
X144285000Y-80164157D01*
X144285000Y-79855843D01*
X144167013Y-79570998D01*
X143949002Y-79352987D01*
X143664157Y-79235000D01*
X143355843Y-79235000D01*
X143070998Y-79352987D01*
X142875000Y-79548985D01*
X142679002Y-79352987D01*
X142394157Y-79235000D01*
X142085843Y-79235000D01*
X141800998Y-79352987D01*
X141582987Y-79570998D01*
X141465000Y-79855843D01*
X141465000Y-80164157D01*
X141582987Y-80449002D01*
X141778985Y-80645000D01*
X141743985Y-80680000D01*
X140028528Y-80680000D01*
X135670000Y-76321473D01*
X135670000Y-75991142D01*
X135510147Y-75605223D01*
X135214777Y-75309853D01*
X134828858Y-75150000D01*
X134411142Y-75150000D01*
X134025223Y-75309853D01*
X133729853Y-75605223D01*
X133570000Y-75991142D01*
X133130000Y-75991142D01*
X132970147Y-75605223D01*
X132674777Y-75309853D01*
X132288858Y-75150000D01*
X131871142Y-75150000D01*
X131485223Y-75309853D01*
X131189853Y-75605223D01*
X131030000Y-75991142D01*
X130775000Y-75991142D01*
X130775000Y-73451142D01*
X131030000Y-73451142D01*
X131030000Y-73868858D01*
X131189853Y-74254777D01*
X131485223Y-74550147D01*
X131871142Y-74710000D01*
X132288858Y-74710000D01*
X132674777Y-74550147D01*
X132970147Y-74254777D01*
X133130000Y-73868858D01*
X133130000Y-73451142D01*
X133570000Y-73451142D01*
X133570000Y-73868858D01*
X133729853Y-74254777D01*
X134025223Y-74550147D01*
X134411142Y-74710000D01*
X134828858Y-74710000D01*
X135214777Y-74550147D01*
X135510147Y-74254777D01*
X135670000Y-73868858D01*
X135670000Y-73451142D01*
X135510147Y-73065223D01*
X135214777Y-72769853D01*
X134828858Y-72610000D01*
X134411142Y-72610000D01*
X134025223Y-72769853D01*
X133729853Y-73065223D01*
X133570000Y-73451142D01*
X133130000Y-73451142D01*
X132970147Y-73065223D01*
X132674777Y-72769853D01*
X132288858Y-72610000D01*
X131871142Y-72610000D01*
X131485223Y-72769853D01*
X131189853Y-73065223D01*
X131030000Y-73451142D01*
X130775000Y-73451142D01*
X130775000Y-71426000D01*
X130822000Y-71426000D01*
X130822000Y-71890939D01*
X130914563Y-72114405D01*
X131085596Y-72285438D01*
X131309062Y-72378000D01*
X131774000Y-72378000D01*
X131926000Y-72226000D01*
X131926000Y-71274000D01*
X132234000Y-71274000D01*
X132234000Y-72226000D01*
X132386000Y-72378000D01*
X132850938Y-72378000D01*
X133074404Y-72285438D01*
X133245437Y-72114405D01*
X133284155Y-72020931D01*
X133936858Y-72020931D01*
X133996122Y-72240694D01*
X134472483Y-72394134D01*
X134971302Y-72353599D01*
X135243878Y-72240694D01*
X135303142Y-72020931D01*
X135282211Y-72000000D01*
X137942164Y-72000000D01*
X137942164Y-73400000D01*
X137973209Y-73556072D01*
X138061616Y-73688384D01*
X138193928Y-73776791D01*
X138200001Y-73777999D01*
X138200001Y-74159091D01*
X138209500Y-74206846D01*
X138209500Y-74217458D01*
X138213561Y-74227262D01*
X138234814Y-74334108D01*
X138295336Y-74424685D01*
X138299398Y-74434492D01*
X138306904Y-74441998D01*
X138367426Y-74532575D01*
X138458003Y-74593097D01*
X138465508Y-74600602D01*
X138475314Y-74604664D01*
X138565893Y-74665187D01*
X138672742Y-74686441D01*
X138682542Y-74690500D01*
X138693149Y-74690500D01*
X138800000Y-74711754D01*
X138906851Y-74690500D01*
X138917458Y-74690500D01*
X138927258Y-74686441D01*
X139034108Y-74665187D01*
X139124689Y-74604663D01*
X139134492Y-74600602D01*
X139141995Y-74593099D01*
X139232575Y-74532575D01*
X139293099Y-74441995D01*
X139300602Y-74434492D01*
X139304663Y-74424689D01*
X139365187Y-74334108D01*
X139386441Y-74227258D01*
X139390500Y-74217458D01*
X139390500Y-74206851D01*
X139400000Y-74159091D01*
X139400000Y-73777999D01*
X139406072Y-73776791D01*
X139538384Y-73688384D01*
X139626791Y-73556072D01*
X139657836Y-73400000D01*
X139657836Y-72000000D01*
X142942164Y-72000000D01*
X142942164Y-73400000D01*
X142973209Y-73556072D01*
X143061616Y-73688384D01*
X143193928Y-73776791D01*
X143200001Y-73777999D01*
X143200001Y-74559091D01*
X143209500Y-74606846D01*
X143209500Y-74617458D01*
X143213561Y-74627262D01*
X143234814Y-74734108D01*
X143295336Y-74824685D01*
X143299398Y-74834492D01*
X143306904Y-74841998D01*
X143367426Y-74932575D01*
X143458003Y-74993097D01*
X143465508Y-75000602D01*
X143475314Y-75004664D01*
X143565893Y-75065187D01*
X143672742Y-75086441D01*
X143682542Y-75090500D01*
X143693149Y-75090500D01*
X143800000Y-75111754D01*
X143906851Y-75090500D01*
X143917458Y-75090500D01*
X143927258Y-75086441D01*
X144034108Y-75065187D01*
X144124689Y-75004663D01*
X144134492Y-75000602D01*
X144141995Y-74993099D01*
X144232575Y-74932575D01*
X144293099Y-74841995D01*
X144300602Y-74834492D01*
X144304663Y-74824689D01*
X144365187Y-74734108D01*
X144386441Y-74627258D01*
X144390500Y-74617458D01*
X144390500Y-74606851D01*
X144400000Y-74559091D01*
X144400000Y-73777999D01*
X144406072Y-73776791D01*
X144538384Y-73688384D01*
X144626791Y-73556072D01*
X144657836Y-73400000D01*
X144657836Y-72000000D01*
X144626791Y-71843928D01*
X144538384Y-71711616D01*
X144406072Y-71623209D01*
X144250000Y-71592164D01*
X143350000Y-71592164D01*
X143193928Y-71623209D01*
X143061616Y-71711616D01*
X142973209Y-71843928D01*
X142942164Y-72000000D01*
X139657836Y-72000000D01*
X139626791Y-71843928D01*
X139538384Y-71711616D01*
X139406072Y-71623209D01*
X139250000Y-71592164D01*
X138350000Y-71592164D01*
X138193928Y-71623209D01*
X138061616Y-71711616D01*
X137973209Y-71843928D01*
X137942164Y-72000000D01*
X135282211Y-72000000D01*
X134620000Y-71337789D01*
X133936858Y-72020931D01*
X133284155Y-72020931D01*
X133338000Y-71890939D01*
X133338000Y-71426000D01*
X133186000Y-71274000D01*
X132234000Y-71274000D01*
X131926000Y-71274000D01*
X130974000Y-71274000D01*
X130822000Y-71426000D01*
X130775000Y-71426000D01*
X130775000Y-70972483D01*
X133345866Y-70972483D01*
X133386401Y-71471302D01*
X133499306Y-71743878D01*
X133719069Y-71803142D01*
X134402211Y-71120000D01*
X134837789Y-71120000D01*
X135520931Y-71803142D01*
X135740694Y-71743878D01*
X135894134Y-71267517D01*
X135853599Y-70768698D01*
X135740694Y-70496122D01*
X135520931Y-70436858D01*
X134837789Y-71120000D01*
X134402211Y-71120000D01*
X133719069Y-70436858D01*
X133499306Y-70496122D01*
X133345866Y-70972483D01*
X130775000Y-70972483D01*
X130775000Y-70349061D01*
X130822000Y-70349061D01*
X130822000Y-70814000D01*
X130974000Y-70966000D01*
X131926000Y-70966000D01*
X131926000Y-70014000D01*
X132234000Y-70014000D01*
X132234000Y-70966000D01*
X133186000Y-70966000D01*
X133338000Y-70814000D01*
X133338000Y-70349061D01*
X133284156Y-70219069D01*
X133936858Y-70219069D01*
X134620000Y-70902211D01*
X135303142Y-70219069D01*
X135243878Y-69999306D01*
X134767517Y-69845866D01*
X134268698Y-69886401D01*
X133996122Y-69999306D01*
X133936858Y-70219069D01*
X133284156Y-70219069D01*
X133245437Y-70125595D01*
X133074404Y-69954562D01*
X132850938Y-69862000D01*
X132386000Y-69862000D01*
X132234000Y-70014000D01*
X131926000Y-70014000D01*
X131774000Y-69862000D01*
X131309062Y-69862000D01*
X131085596Y-69954562D01*
X130914563Y-70125595D01*
X130822000Y-70349061D01*
X130775000Y-70349061D01*
X130775000Y-69775000D01*
X145425001Y-69775000D01*
X145425000Y-90555814D01*
X145425000Y-90555814D01*
G37*
X145425000Y-90555814D02*
X145270938Y-90492000D01*
X145006000Y-90492000D01*
X144854000Y-90644000D01*
X144854000Y-91296000D01*
X144874000Y-91296000D01*
X144874000Y-91604000D01*
X144854000Y-91604000D01*
X144854000Y-91624000D01*
X144546000Y-91624000D01*
X144546000Y-91604000D01*
X144526000Y-91604000D01*
X144526000Y-91296000D01*
X144546000Y-91296000D01*
X144546000Y-90644000D01*
X144394000Y-90492000D01*
X144129062Y-90492000D01*
X143905596Y-90584562D01*
X143742565Y-90747593D01*
X143706072Y-90723209D01*
X143700000Y-90722001D01*
X143700000Y-90140909D01*
X143690500Y-90093149D01*
X143690500Y-90082542D01*
X143686441Y-90072742D01*
X143665187Y-89965892D01*
X143604663Y-89875311D01*
X143600602Y-89865508D01*
X143593099Y-89858005D01*
X143532575Y-89767425D01*
X143441995Y-89706901D01*
X143434492Y-89699398D01*
X143424689Y-89695337D01*
X143334108Y-89634813D01*
X143227258Y-89613559D01*
X143217458Y-89609500D01*
X143206851Y-89609500D01*
X143100000Y-89588246D01*
X142993149Y-89609500D01*
X142982542Y-89609500D01*
X142972742Y-89613559D01*
X142865893Y-89634813D01*
X142775314Y-89695336D01*
X142765508Y-89699398D01*
X142758003Y-89706903D01*
X142667426Y-89767425D01*
X142606904Y-89858002D01*
X142599398Y-89865508D01*
X142595336Y-89875315D01*
X142534814Y-89965892D01*
X142513561Y-90072738D01*
X142509500Y-90082542D01*
X142509500Y-90093154D01*
X142500001Y-90140909D01*
X142500001Y-90722001D01*
X142493928Y-90723209D01*
X142361616Y-90811616D01*
X142273209Y-90943928D01*
X142242164Y-91100000D01*
X142242164Y-91800000D01*
X142273209Y-91956072D01*
X142361616Y-92088384D01*
X142493928Y-92176791D01*
X142650000Y-92207836D01*
X143550000Y-92207836D01*
X143706072Y-92176791D01*
X143742565Y-92152407D01*
X143905596Y-92315438D01*
X144129062Y-92408000D01*
X144170388Y-92408000D01*
X144093928Y-92423209D01*
X143961616Y-92511616D01*
X143935969Y-92550000D01*
X143864031Y-92550000D01*
X143838384Y-92511616D01*
X143706072Y-92423209D01*
X143550000Y-92392164D01*
X142650000Y-92392164D01*
X142493928Y-92423209D01*
X142361616Y-92511616D01*
X142273209Y-92643928D01*
X142242164Y-92800000D01*
X142242164Y-93500000D01*
X142273209Y-93656072D01*
X142361616Y-93788384D01*
X142493928Y-93876791D01*
X142650000Y-93907836D01*
X143550000Y-93907836D01*
X143706072Y-93876791D01*
X143838384Y-93788384D01*
X143864031Y-93750000D01*
X143935969Y-93750000D01*
X143961616Y-93788384D01*
X144093928Y-93876791D01*
X144250000Y-93907836D01*
X145150000Y-93907836D01*
X145306072Y-93876791D01*
X145425000Y-93797327D01*
X145425000Y-95325000D01*
X130775000Y-95325000D01*
X130775000Y-93771142D01*
X131030000Y-93771142D01*
X131030000Y-94188858D01*
X131189853Y-94574777D01*
X131485223Y-94870147D01*
X131871142Y-95030000D01*
X132288858Y-95030000D01*
X132674777Y-94870147D01*
X132970147Y-94574777D01*
X133130000Y-94188858D01*
X133130000Y-93771142D01*
X133570000Y-93771142D01*
X133570000Y-94188858D01*
X133729853Y-94574777D01*
X134025223Y-94870147D01*
X134411142Y-95030000D01*
X134828858Y-95030000D01*
X135214777Y-94870147D01*
X135510147Y-94574777D01*
X135670000Y-94188858D01*
X135670000Y-93771142D01*
X135510147Y-93385223D01*
X135214777Y-93089853D01*
X134828858Y-92930000D01*
X134411142Y-92930000D01*
X134025223Y-93089853D01*
X133729853Y-93385223D01*
X133570000Y-93771142D01*
X133130000Y-93771142D01*
X132970147Y-93385223D01*
X132674777Y-93089853D01*
X132288858Y-92930000D01*
X131871142Y-92930000D01*
X131485223Y-93089853D01*
X131189853Y-93385223D01*
X131030000Y-93771142D01*
X130775000Y-93771142D01*
X130775000Y-91231142D01*
X131030000Y-91231142D01*
X131030000Y-91648858D01*
X131189853Y-92034777D01*
X131485223Y-92330147D01*
X131871142Y-92490000D01*
X132288858Y-92490000D01*
X132674777Y-92330147D01*
X132970147Y-92034777D01*
X133130000Y-91648858D01*
X133130000Y-91231142D01*
X133570000Y-91231142D01*
X133570000Y-91648858D01*
X133729853Y-92034777D01*
X134025223Y-92330147D01*
X134411142Y-92490000D01*
X134828858Y-92490000D01*
X135214777Y-92330147D01*
X135510147Y-92034777D01*
X135670000Y-91648858D01*
X135670000Y-91231142D01*
X135510147Y-90845223D01*
X135214777Y-90549853D01*
X134828858Y-90390000D01*
X134411142Y-90390000D01*
X134025223Y-90549853D01*
X133729853Y-90845223D01*
X133570000Y-91231142D01*
X133130000Y-91231142D01*
X132970147Y-90845223D01*
X132674777Y-90549853D01*
X132288858Y-90390000D01*
X131871142Y-90390000D01*
X131485223Y-90549853D01*
X131189853Y-90845223D01*
X131030000Y-91231142D01*
X130775000Y-91231142D01*
X130775000Y-88691142D01*
X131030000Y-88691142D01*
X131030000Y-89108858D01*
X131189853Y-89494777D01*
X131485223Y-89790147D01*
X131871142Y-89950000D01*
X132288858Y-89950000D01*
X132674777Y-89790147D01*
X132970147Y-89494777D01*
X133130000Y-89108858D01*
X133130000Y-88691142D01*
X133570000Y-88691142D01*
X133570000Y-89108858D01*
X133729853Y-89494777D01*
X134025223Y-89790147D01*
X134411142Y-89950000D01*
X134828858Y-89950000D01*
X135214777Y-89790147D01*
X135510147Y-89494777D01*
X135670000Y-89108858D01*
X135670000Y-88691142D01*
X135510147Y-88305223D01*
X135214777Y-88009853D01*
X134828858Y-87850000D01*
X134411142Y-87850000D01*
X134025223Y-88009853D01*
X133729853Y-88305223D01*
X133570000Y-88691142D01*
X133130000Y-88691142D01*
X132970147Y-88305223D01*
X132674777Y-88009853D01*
X132288858Y-87850000D01*
X131871142Y-87850000D01*
X131485223Y-88009853D01*
X131189853Y-88305223D01*
X131030000Y-88691142D01*
X130775000Y-88691142D01*
X130775000Y-86151142D01*
X131030000Y-86151142D01*
X131030000Y-86568858D01*
X131189853Y-86954777D01*
X131485223Y-87250147D01*
X131871142Y-87410000D01*
X132288858Y-87410000D01*
X132674777Y-87250147D01*
X132970147Y-86954777D01*
X133130000Y-86568858D01*
X133130000Y-86151142D01*
X132970147Y-85765223D01*
X132674777Y-85469853D01*
X132288858Y-85310000D01*
X131871142Y-85310000D01*
X131485223Y-85469853D01*
X131189853Y-85765223D01*
X131030000Y-86151142D01*
X130775000Y-86151142D01*
X130775000Y-83611142D01*
X131030000Y-83611142D01*
X131030000Y-84028858D01*
X131189853Y-84414777D01*
X131485223Y-84710147D01*
X131871142Y-84870000D01*
X132288858Y-84870000D01*
X132674777Y-84710147D01*
X132970147Y-84414777D01*
X133130000Y-84028858D01*
X133130000Y-83611142D01*
X133570000Y-83611142D01*
X133570000Y-84028858D01*
X133729853Y-84414777D01*
X134025223Y-84710147D01*
X134411142Y-84870000D01*
X134828858Y-84870000D01*
X135214777Y-84710147D01*
X135510147Y-84414777D01*
X135670000Y-84028858D01*
X135670000Y-83611142D01*
X135510147Y-83225223D01*
X135214777Y-82929853D01*
X134828858Y-82770000D01*
X134411142Y-82770000D01*
X134025223Y-82929853D01*
X133729853Y-83225223D01*
X133570000Y-83611142D01*
X133130000Y-83611142D01*
X132970147Y-83225223D01*
X132674777Y-82929853D01*
X132288858Y-82770000D01*
X131871142Y-82770000D01*
X131485223Y-82929853D01*
X131189853Y-83225223D01*
X131030000Y-83611142D01*
X130775000Y-83611142D01*
X130775000Y-81071142D01*
X131030000Y-81071142D01*
X131030000Y-81488858D01*
X131189853Y-81874777D01*
X131485223Y-82170147D01*
X131871142Y-82330000D01*
X132288858Y-82330000D01*
X132674777Y-82170147D01*
X132970147Y-81874777D01*
X133130000Y-81488858D01*
X133130000Y-81071142D01*
X133570000Y-81071142D01*
X133570000Y-81488858D01*
X133729853Y-81874777D01*
X134025223Y-82170147D01*
X134411142Y-82330000D01*
X134828858Y-82330000D01*
X135214777Y-82170147D01*
X135510147Y-81874777D01*
X135670000Y-81488858D01*
X135670000Y-81071142D01*
X135510147Y-80685223D01*
X135214777Y-80389853D01*
X134828858Y-80230000D01*
X134411142Y-80230000D01*
X134025223Y-80389853D01*
X133729853Y-80685223D01*
X133570000Y-81071142D01*
X133130000Y-81071142D01*
X132970147Y-80685223D01*
X132674777Y-80389853D01*
X132288858Y-80230000D01*
X131871142Y-80230000D01*
X131485223Y-80389853D01*
X131189853Y-80685223D01*
X131030000Y-81071142D01*
X130775000Y-81071142D01*
X130775000Y-78531142D01*
X131030000Y-78531142D01*
X131030000Y-78948858D01*
X131189853Y-79334777D01*
X131485223Y-79630147D01*
X131871142Y-79790000D01*
X132288858Y-79790000D01*
X132674777Y-79630147D01*
X132970147Y-79334777D01*
X133130000Y-78948858D01*
X133130000Y-78531142D01*
X133570000Y-78531142D01*
X133570000Y-78948858D01*
X133729853Y-79334777D01*
X134025223Y-79630147D01*
X134411142Y-79790000D01*
X134828858Y-79790000D01*
X135214777Y-79630147D01*
X135510147Y-79334777D01*
X135670000Y-78948858D01*
X135670000Y-78531142D01*
X135510147Y-78145223D01*
X135214777Y-77849853D01*
X134828858Y-77690000D01*
X134411142Y-77690000D01*
X134025223Y-77849853D01*
X133729853Y-78145223D01*
X133570000Y-78531142D01*
X133130000Y-78531142D01*
X132970147Y-78145223D01*
X132674777Y-77849853D01*
X132288858Y-77690000D01*
X131871142Y-77690000D01*
X131485223Y-77849853D01*
X131189853Y-78145223D01*
X131030000Y-78531142D01*
X130775000Y-78531142D01*
X130775000Y-75991142D01*
X131030000Y-75991142D01*
X131030000Y-76408858D01*
X131189853Y-76794777D01*
X131485223Y-77090147D01*
X131871142Y-77250000D01*
X132288858Y-77250000D01*
X132674777Y-77090147D01*
X132970147Y-76794777D01*
X133130000Y-76408858D01*
X133130000Y-75991142D01*
X133570000Y-75991142D01*
X133570000Y-76408858D01*
X133729853Y-76794777D01*
X134025223Y-77090147D01*
X134411142Y-77250000D01*
X134828858Y-77250000D01*
X134880204Y-77228732D01*
X139313953Y-81662481D01*
X139347425Y-81712575D01*
X139545892Y-81845187D01*
X139720909Y-81880000D01*
X139720913Y-81880000D01*
X139780000Y-81891753D01*
X139839086Y-81880000D01*
X141743985Y-81880000D01*
X141778985Y-81915000D01*
X141743985Y-81950000D01*
X137409088Y-81950000D01*
X137350000Y-81938247D01*
X137290912Y-81950000D01*
X137290909Y-81950000D01*
X137157687Y-81976499D01*
X137115891Y-81984813D01*
X137010850Y-82055000D01*
X136917425Y-82117425D01*
X136883953Y-82167519D01*
X136317521Y-82733952D01*
X136267425Y-82767425D01*
X136134813Y-82965893D01*
X136100000Y-83140910D01*
X136100000Y-83140914D01*
X136088247Y-83200000D01*
X136100000Y-83259087D01*
X136100001Y-84031471D01*
X134821473Y-85310000D01*
X134411142Y-85310000D01*
X134025223Y-85469853D01*
X133729853Y-85765223D01*
X133570000Y-86151142D01*
X133570000Y-86568858D01*
X133729853Y-86954777D01*
X134025223Y-87250147D01*
X134411142Y-87410000D01*
X134828858Y-87410000D01*
X135214777Y-87250147D01*
X135510147Y-86954777D01*
X135670000Y-86568858D01*
X135670000Y-86158527D01*
X136937904Y-84890623D01*
X136923559Y-84962742D01*
X136919500Y-84972542D01*
X136919500Y-84983149D01*
X136898246Y-85090000D01*
X136919500Y-85196851D01*
X136919500Y-85207458D01*
X136923559Y-85217258D01*
X136944813Y-85324108D01*
X137005337Y-85414689D01*
X137009398Y-85424492D01*
X137016901Y-85431995D01*
X137077425Y-85522575D01*
X137168005Y-85583099D01*
X137175508Y-85590602D01*
X137185311Y-85594663D01*
X137275892Y-85655187D01*
X137382742Y-85676441D01*
X137392542Y-85680500D01*
X137403149Y-85680500D01*
X137450909Y-85690000D01*
X141743985Y-85690000D01*
X141800998Y-85747013D01*
X142085843Y-85865000D01*
X142394157Y-85865000D01*
X142606209Y-85777165D01*
X142619563Y-85809405D01*
X142790596Y-85980438D01*
X143014062Y-86073000D01*
X143204000Y-86073000D01*
X143356000Y-85921000D01*
X143356000Y-85244000D01*
X143664000Y-85244000D01*
X143664000Y-85921000D01*
X143816000Y-86073000D01*
X144005938Y-86073000D01*
X144229404Y-85980438D01*
X144400437Y-85809405D01*
X144493000Y-85585939D01*
X144493000Y-85396000D01*
X144341000Y-85244000D01*
X143664000Y-85244000D01*
X143356000Y-85244000D01*
X143336000Y-85244000D01*
X143336000Y-84936000D01*
X143356000Y-84936000D01*
X143356000Y-84916000D01*
X143664000Y-84916000D01*
X143664000Y-84936000D01*
X144341000Y-84936000D01*
X144493000Y-84784000D01*
X144493000Y-84594061D01*
X144400437Y-84370595D01*
X144229404Y-84199562D01*
X144197165Y-84186208D01*
X144285000Y-83974157D01*
X144285000Y-83665843D01*
X144167013Y-83380998D01*
X143971015Y-83185000D01*
X144167013Y-82989002D01*
X144285000Y-82704157D01*
X144285000Y-82395843D01*
X144167013Y-82110998D01*
X143971015Y-81915000D01*
X144167013Y-81719002D01*
X144285000Y-81434157D01*
X144285000Y-81125843D01*
X144167013Y-80840998D01*
X143971015Y-80645000D01*
X144167013Y-80449002D01*
X144285000Y-80164157D01*
X144285000Y-79855843D01*
X144167013Y-79570998D01*
X143949002Y-79352987D01*
X143664157Y-79235000D01*
X143355843Y-79235000D01*
X143070998Y-79352987D01*
X142875000Y-79548985D01*
X142679002Y-79352987D01*
X142394157Y-79235000D01*
X142085843Y-79235000D01*
X141800998Y-79352987D01*
X141582987Y-79570998D01*
X141465000Y-79855843D01*
X141465000Y-80164157D01*
X141582987Y-80449002D01*
X141778985Y-80645000D01*
X141743985Y-80680000D01*
X140028528Y-80680000D01*
X135670000Y-76321473D01*
X135670000Y-75991142D01*
X135510147Y-75605223D01*
X135214777Y-75309853D01*
X134828858Y-75150000D01*
X134411142Y-75150000D01*
X134025223Y-75309853D01*
X133729853Y-75605223D01*
X133570000Y-75991142D01*
X133130000Y-75991142D01*
X132970147Y-75605223D01*
X132674777Y-75309853D01*
X132288858Y-75150000D01*
X131871142Y-75150000D01*
X131485223Y-75309853D01*
X131189853Y-75605223D01*
X131030000Y-75991142D01*
X130775000Y-75991142D01*
X130775000Y-73451142D01*
X131030000Y-73451142D01*
X131030000Y-73868858D01*
X131189853Y-74254777D01*
X131485223Y-74550147D01*
X131871142Y-74710000D01*
X132288858Y-74710000D01*
X132674777Y-74550147D01*
X132970147Y-74254777D01*
X133130000Y-73868858D01*
X133130000Y-73451142D01*
X133570000Y-73451142D01*
X133570000Y-73868858D01*
X133729853Y-74254777D01*
X134025223Y-74550147D01*
X134411142Y-74710000D01*
X134828858Y-74710000D01*
X135214777Y-74550147D01*
X135510147Y-74254777D01*
X135670000Y-73868858D01*
X135670000Y-73451142D01*
X135510147Y-73065223D01*
X135214777Y-72769853D01*
X134828858Y-72610000D01*
X134411142Y-72610000D01*
X134025223Y-72769853D01*
X133729853Y-73065223D01*
X133570000Y-73451142D01*
X133130000Y-73451142D01*
X132970147Y-73065223D01*
X132674777Y-72769853D01*
X132288858Y-72610000D01*
X131871142Y-72610000D01*
X131485223Y-72769853D01*
X131189853Y-73065223D01*
X131030000Y-73451142D01*
X130775000Y-73451142D01*
X130775000Y-71426000D01*
X130822000Y-71426000D01*
X130822000Y-71890939D01*
X130914563Y-72114405D01*
X131085596Y-72285438D01*
X131309062Y-72378000D01*
X131774000Y-72378000D01*
X131926000Y-72226000D01*
X131926000Y-71274000D01*
X132234000Y-71274000D01*
X132234000Y-72226000D01*
X132386000Y-72378000D01*
X132850938Y-72378000D01*
X133074404Y-72285438D01*
X133245437Y-72114405D01*
X133284155Y-72020931D01*
X133936858Y-72020931D01*
X133996122Y-72240694D01*
X134472483Y-72394134D01*
X134971302Y-72353599D01*
X135243878Y-72240694D01*
X135303142Y-72020931D01*
X135282211Y-72000000D01*
X137942164Y-72000000D01*
X137942164Y-73400000D01*
X137973209Y-73556072D01*
X138061616Y-73688384D01*
X138193928Y-73776791D01*
X138200001Y-73777999D01*
X138200001Y-74159091D01*
X138209500Y-74206846D01*
X138209500Y-74217458D01*
X138213561Y-74227262D01*
X138234814Y-74334108D01*
X138295336Y-74424685D01*
X138299398Y-74434492D01*
X138306904Y-74441998D01*
X138367426Y-74532575D01*
X138458003Y-74593097D01*
X138465508Y-74600602D01*
X138475314Y-74604664D01*
X138565893Y-74665187D01*
X138672742Y-74686441D01*
X138682542Y-74690500D01*
X138693149Y-74690500D01*
X138800000Y-74711754D01*
X138906851Y-74690500D01*
X138917458Y-74690500D01*
X138927258Y-74686441D01*
X139034108Y-74665187D01*
X139124689Y-74604663D01*
X139134492Y-74600602D01*
X139141995Y-74593099D01*
X139232575Y-74532575D01*
X139293099Y-74441995D01*
X139300602Y-74434492D01*
X139304663Y-74424689D01*
X139365187Y-74334108D01*
X139386441Y-74227258D01*
X139390500Y-74217458D01*
X139390500Y-74206851D01*
X139400000Y-74159091D01*
X139400000Y-73777999D01*
X139406072Y-73776791D01*
X139538384Y-73688384D01*
X139626791Y-73556072D01*
X139657836Y-73400000D01*
X139657836Y-72000000D01*
X142942164Y-72000000D01*
X142942164Y-73400000D01*
X142973209Y-73556072D01*
X143061616Y-73688384D01*
X143193928Y-73776791D01*
X143200001Y-73777999D01*
X143200001Y-74559091D01*
X143209500Y-74606846D01*
X143209500Y-74617458D01*
X143213561Y-74627262D01*
X143234814Y-74734108D01*
X143295336Y-74824685D01*
X143299398Y-74834492D01*
X143306904Y-74841998D01*
X143367426Y-74932575D01*
X143458003Y-74993097D01*
X143465508Y-75000602D01*
X143475314Y-75004664D01*
X143565893Y-75065187D01*
X143672742Y-75086441D01*
X143682542Y-75090500D01*
X143693149Y-75090500D01*
X143800000Y-75111754D01*
X143906851Y-75090500D01*
X143917458Y-75090500D01*
X143927258Y-75086441D01*
X144034108Y-75065187D01*
X144124689Y-75004663D01*
X144134492Y-75000602D01*
X144141995Y-74993099D01*
X144232575Y-74932575D01*
X144293099Y-74841995D01*
X144300602Y-74834492D01*
X144304663Y-74824689D01*
X144365187Y-74734108D01*
X144386441Y-74627258D01*
X144390500Y-74617458D01*
X144390500Y-74606851D01*
X144400000Y-74559091D01*
X144400000Y-73777999D01*
X144406072Y-73776791D01*
X144538384Y-73688384D01*
X144626791Y-73556072D01*
X144657836Y-73400000D01*
X144657836Y-72000000D01*
X144626791Y-71843928D01*
X144538384Y-71711616D01*
X144406072Y-71623209D01*
X144250000Y-71592164D01*
X143350000Y-71592164D01*
X143193928Y-71623209D01*
X143061616Y-71711616D01*
X142973209Y-71843928D01*
X142942164Y-72000000D01*
X139657836Y-72000000D01*
X139626791Y-71843928D01*
X139538384Y-71711616D01*
X139406072Y-71623209D01*
X139250000Y-71592164D01*
X138350000Y-71592164D01*
X138193928Y-71623209D01*
X138061616Y-71711616D01*
X137973209Y-71843928D01*
X137942164Y-72000000D01*
X135282211Y-72000000D01*
X134620000Y-71337789D01*
X133936858Y-72020931D01*
X133284155Y-72020931D01*
X133338000Y-71890939D01*
X133338000Y-71426000D01*
X133186000Y-71274000D01*
X132234000Y-71274000D01*
X131926000Y-71274000D01*
X130974000Y-71274000D01*
X130822000Y-71426000D01*
X130775000Y-71426000D01*
X130775000Y-70972483D01*
X133345866Y-70972483D01*
X133386401Y-71471302D01*
X133499306Y-71743878D01*
X133719069Y-71803142D01*
X134402211Y-71120000D01*
X134837789Y-71120000D01*
X135520931Y-71803142D01*
X135740694Y-71743878D01*
X135894134Y-71267517D01*
X135853599Y-70768698D01*
X135740694Y-70496122D01*
X135520931Y-70436858D01*
X134837789Y-71120000D01*
X134402211Y-71120000D01*
X133719069Y-70436858D01*
X133499306Y-70496122D01*
X133345866Y-70972483D01*
X130775000Y-70972483D01*
X130775000Y-70349061D01*
X130822000Y-70349061D01*
X130822000Y-70814000D01*
X130974000Y-70966000D01*
X131926000Y-70966000D01*
X131926000Y-70014000D01*
X132234000Y-70014000D01*
X132234000Y-70966000D01*
X133186000Y-70966000D01*
X133338000Y-70814000D01*
X133338000Y-70349061D01*
X133284156Y-70219069D01*
X133936858Y-70219069D01*
X134620000Y-70902211D01*
X135303142Y-70219069D01*
X135243878Y-69999306D01*
X134767517Y-69845866D01*
X134268698Y-69886401D01*
X133996122Y-69999306D01*
X133936858Y-70219069D01*
X133284156Y-70219069D01*
X133245437Y-70125595D01*
X133074404Y-69954562D01*
X132850938Y-69862000D01*
X132386000Y-69862000D01*
X132234000Y-70014000D01*
X131926000Y-70014000D01*
X131774000Y-69862000D01*
X131309062Y-69862000D01*
X131085596Y-69954562D01*
X130914563Y-70125595D01*
X130822000Y-70349061D01*
X130775000Y-70349061D01*
X130775000Y-69775000D01*
X145425001Y-69775000D01*
X145425000Y-90555814D01*
G04 #@! TD*
M02*
