G04 #@! TF.GenerationSoftware,KiCad,Pcbnew,5.0.1-33cea8e~68~ubuntu18.04.1*
G04 #@! TF.CreationDate,2018-11-22T22:47:37+01:00*
G04 #@! TF.ProjectId,jtag_20pin_to_10pin,6A7461675F323070696E5F746F5F3130,rev?*
G04 #@! TF.SameCoordinates,Original*
G04 #@! TF.FileFunction,Copper,L1,Top,Signal*
G04 #@! TF.FilePolarity,Positive*
%FSLAX46Y46*%
G04 Gerber Fmt 4.6, Leading zero omitted, Abs format (unit mm)*
G04 Created by KiCad (PCBNEW 5.0.1-33cea8e~68~ubuntu18.04.1) date do 22 nov 2018 22:47:37 CET*
%MOMM*%
%LPD*%
G01*
G04 APERTURE LIST*
G04 #@! TA.AperFunction,SMDPad,CuDef*
%ADD10R,0.900000X0.700000*%
G04 #@! TD*
G04 #@! TA.AperFunction,ComponentPad*
%ADD11R,1.300000X1.300000*%
G04 #@! TD*
G04 #@! TA.AperFunction,ComponentPad*
%ADD12C,1.300000*%
G04 #@! TD*
G04 #@! TA.AperFunction,ComponentPad*
%ADD13R,0.750000X0.750000*%
G04 #@! TD*
G04 #@! TA.AperFunction,ComponentPad*
%ADD14C,0.750000*%
G04 #@! TD*
G04 #@! TA.AperFunction,SMDPad,CuDef*
%ADD15R,0.900000X1.400000*%
G04 #@! TD*
G04 #@! TA.AperFunction,ViaPad*
%ADD16C,0.381000*%
G04 #@! TD*
G04 #@! TA.AperFunction,Conductor*
%ADD17C,0.400000*%
G04 #@! TD*
G04 #@! TA.AperFunction,Conductor*
%ADD18C,0.200000*%
G04 #@! TD*
G04 APERTURE END LIST*
D10*
G04 #@! TO.P,D1,1*
G04 #@! TO.N,Net-(D1-Pad1)*
X144700000Y-93150000D03*
G04 #@! TO.P,D1,2*
G04 #@! TO.N,VCC*
X144700000Y-91450000D03*
G04 #@! TD*
D11*
G04 #@! TO.P,J1,1*
G04 #@! TO.N,VCC*
X132080000Y-71120000D03*
D12*
G04 #@! TO.P,J1,2*
X134620000Y-71120000D03*
G04 #@! TO.P,J1,3*
G04 #@! TO.N,GND*
X132080000Y-73660000D03*
G04 #@! TO.P,J1,4*
G04 #@! TO.N,N/C*
X134620000Y-73660000D03*
G04 #@! TO.P,J1,5*
G04 #@! TO.N,GND*
X132080000Y-76200000D03*
G04 #@! TO.P,J1,6*
G04 #@! TO.N,/TDI*
X134620000Y-76200000D03*
G04 #@! TO.P,J1,7*
G04 #@! TO.N,GND*
X132080000Y-78740000D03*
G04 #@! TO.P,J1,8*
G04 #@! TO.N,/TMS*
X134620000Y-78740000D03*
G04 #@! TO.P,J1,9*
G04 #@! TO.N,GND*
X132080000Y-81280000D03*
G04 #@! TO.P,J1,10*
G04 #@! TO.N,/TCK*
X134620000Y-81280000D03*
G04 #@! TO.P,J1,11*
G04 #@! TO.N,GND*
X132080000Y-83820000D03*
G04 #@! TO.P,J1,12*
G04 #@! TO.N,N/C*
X134620000Y-83820000D03*
G04 #@! TO.P,J1,13*
G04 #@! TO.N,GND*
X132080000Y-86360000D03*
G04 #@! TO.P,J1,14*
G04 #@! TO.N,/TDO*
X134620000Y-86360000D03*
G04 #@! TO.P,J1,15*
G04 #@! TO.N,GND*
X132080000Y-88900000D03*
G04 #@! TO.P,J1,16*
G04 #@! TO.N,/RESET*
X134620000Y-88900000D03*
G04 #@! TO.P,J1,17*
G04 #@! TO.N,GND*
X132080000Y-91440000D03*
G04 #@! TO.P,J1,18*
G04 #@! TO.N,N/C*
X134620000Y-91440000D03*
G04 #@! TO.P,J1,19*
G04 #@! TO.N,GND*
X132080000Y-93980000D03*
G04 #@! TO.P,J1,20*
G04 #@! TO.N,N/C*
X134620000Y-93980000D03*
G04 #@! TD*
D13*
G04 #@! TO.P,J2,1*
G04 #@! TO.N,VCC*
X143510000Y-85090000D03*
D14*
G04 #@! TO.P,J2,2*
G04 #@! TO.N,/TMS*
X142240000Y-85090000D03*
G04 #@! TO.P,J2,3*
G04 #@! TO.N,GND*
X143510000Y-83820000D03*
G04 #@! TO.P,J2,4*
G04 #@! TO.N,/TCK*
X142240000Y-83820000D03*
G04 #@! TO.P,J2,5*
G04 #@! TO.N,GND*
X143510000Y-82550000D03*
G04 #@! TO.P,J2,6*
G04 #@! TO.N,/TDO*
X142240000Y-82550000D03*
G04 #@! TO.P,J2,7*
G04 #@! TO.N,N/C*
X143510000Y-81280000D03*
G04 #@! TO.P,J2,8*
G04 #@! TO.N,/TDI*
X142240000Y-81280000D03*
G04 #@! TO.P,J2,9*
G04 #@! TO.N,GND*
X143510000Y-80010000D03*
G04 #@! TO.P,J2,10*
G04 #@! TO.N,/RESET*
X142240000Y-80010000D03*
G04 #@! TD*
D10*
G04 #@! TO.P,R1,2*
G04 #@! TO.N,GND*
X143100000Y-91450000D03*
G04 #@! TO.P,R1,1*
G04 #@! TO.N,Net-(D1-Pad1)*
X143100000Y-93150000D03*
G04 #@! TD*
D15*
G04 #@! TO.P,S2,1*
G04 #@! TO.N,/RESET*
X138800000Y-72700000D03*
G04 #@! TO.P,S2,2*
G04 #@! TO.N,GND*
X143800000Y-72700000D03*
G04 #@! TD*
D16*
G04 #@! TO.N,VCC*
X144700000Y-90200000D03*
G04 #@! TO.N,GND*
X143800000Y-74500000D03*
X143100000Y-90200000D03*
G04 #@! TO.N,/TMS*
X137510000Y-85090000D03*
G04 #@! TO.N,/TCK*
X137520000Y-83820000D03*
G04 #@! TO.N,/RESET*
X138800000Y-74100000D03*
G04 #@! TD*
D17*
G04 #@! TO.N,Net-(D1-Pad1)*
X144700000Y-93150000D02*
X143100000Y-93150000D01*
G04 #@! TO.N,VCC*
X144700000Y-91450000D02*
X144700000Y-90200000D01*
G04 #@! TO.N,GND*
X143100000Y-90200000D02*
X143100000Y-91450000D01*
G04 #@! TO.N,/TMS*
X137510000Y-85090000D02*
X137710000Y-85090000D01*
X137710000Y-85090000D02*
X138100000Y-84700000D01*
X138100000Y-82220000D02*
X134620000Y-78740000D01*
X138100000Y-84700000D02*
X138100000Y-82220000D01*
G04 #@! TO.N,/TCK*
X137160000Y-83820000D02*
X134620000Y-81280000D01*
X137520000Y-83820000D02*
X137160000Y-83820000D01*
G04 #@! TO.N,/RESET*
X138800000Y-72700000D02*
X138800000Y-74100000D01*
X137500000Y-88900000D02*
X134620000Y-88900000D01*
X138800000Y-87600000D02*
X137500000Y-88900000D01*
X138810000Y-80010000D02*
X138800000Y-80000000D01*
X142240000Y-80010000D02*
X138810000Y-80010000D01*
X138800000Y-74100000D02*
X138800000Y-80000000D01*
X138800000Y-80000000D02*
X138800000Y-87600000D01*
G04 #@! TD*
D18*
G04 #@! TO.N,GND*
G36*
X145425000Y-90802673D02*
X145306072Y-90723209D01*
X145300000Y-90722001D01*
X145300000Y-90140909D01*
X145290500Y-90093149D01*
X145290500Y-90082542D01*
X145286441Y-90072742D01*
X145265187Y-89965892D01*
X145204663Y-89875311D01*
X145200602Y-89865508D01*
X145193099Y-89858005D01*
X145132575Y-89767425D01*
X145041995Y-89706901D01*
X145034492Y-89699398D01*
X145024689Y-89695337D01*
X144934108Y-89634813D01*
X144827258Y-89613559D01*
X144817458Y-89609500D01*
X144806851Y-89609500D01*
X144700000Y-89588246D01*
X144593149Y-89609500D01*
X144582542Y-89609500D01*
X144572742Y-89613559D01*
X144465893Y-89634813D01*
X144375314Y-89695336D01*
X144365508Y-89699398D01*
X144358003Y-89706903D01*
X144267426Y-89767425D01*
X144206904Y-89858002D01*
X144199398Y-89865508D01*
X144195336Y-89875315D01*
X144134814Y-89965892D01*
X144113561Y-90072738D01*
X144109500Y-90082542D01*
X144109500Y-90093154D01*
X144100001Y-90140909D01*
X144100001Y-90722001D01*
X144093928Y-90723209D01*
X144057435Y-90747593D01*
X143894404Y-90584562D01*
X143670938Y-90492000D01*
X143406000Y-90492000D01*
X143254000Y-90644000D01*
X143254000Y-91296000D01*
X143274000Y-91296000D01*
X143274000Y-91604000D01*
X143254000Y-91604000D01*
X143254000Y-91624000D01*
X142946000Y-91624000D01*
X142946000Y-91604000D01*
X142194000Y-91604000D01*
X142042000Y-91756000D01*
X142042000Y-91920939D01*
X142134563Y-92144405D01*
X142305596Y-92315438D01*
X142529062Y-92408000D01*
X142570388Y-92408000D01*
X142493928Y-92423209D01*
X142361616Y-92511616D01*
X142273209Y-92643928D01*
X142242164Y-92800000D01*
X142242164Y-93500000D01*
X142273209Y-93656072D01*
X142361616Y-93788384D01*
X142493928Y-93876791D01*
X142650000Y-93907836D01*
X143550000Y-93907836D01*
X143706072Y-93876791D01*
X143838384Y-93788384D01*
X143864031Y-93750000D01*
X143935969Y-93750000D01*
X143961616Y-93788384D01*
X144093928Y-93876791D01*
X144250000Y-93907836D01*
X145150000Y-93907836D01*
X145306072Y-93876791D01*
X145425000Y-93797327D01*
X145425000Y-95325000D01*
X130775000Y-95325000D01*
X130775000Y-94880931D01*
X131396858Y-94880931D01*
X131456122Y-95100694D01*
X131932483Y-95254134D01*
X132431302Y-95213599D01*
X132703878Y-95100694D01*
X132763142Y-94880931D01*
X132080000Y-94197789D01*
X131396858Y-94880931D01*
X130775000Y-94880931D01*
X130775000Y-93832483D01*
X130805866Y-93832483D01*
X130846401Y-94331302D01*
X130959306Y-94603878D01*
X131179069Y-94663142D01*
X131862211Y-93980000D01*
X132297789Y-93980000D01*
X132980931Y-94663142D01*
X133200694Y-94603878D01*
X133354134Y-94127517D01*
X133325175Y-93771142D01*
X133570000Y-93771142D01*
X133570000Y-94188858D01*
X133729853Y-94574777D01*
X134025223Y-94870147D01*
X134411142Y-95030000D01*
X134828858Y-95030000D01*
X135214777Y-94870147D01*
X135510147Y-94574777D01*
X135670000Y-94188858D01*
X135670000Y-93771142D01*
X135510147Y-93385223D01*
X135214777Y-93089853D01*
X134828858Y-92930000D01*
X134411142Y-92930000D01*
X134025223Y-93089853D01*
X133729853Y-93385223D01*
X133570000Y-93771142D01*
X133325175Y-93771142D01*
X133313599Y-93628698D01*
X133200694Y-93356122D01*
X132980931Y-93296858D01*
X132297789Y-93980000D01*
X131862211Y-93980000D01*
X131179069Y-93296858D01*
X130959306Y-93356122D01*
X130805866Y-93832483D01*
X130775000Y-93832483D01*
X130775000Y-93079069D01*
X131396858Y-93079069D01*
X132080000Y-93762211D01*
X132763142Y-93079069D01*
X132703878Y-92859306D01*
X132227517Y-92705866D01*
X131728698Y-92746401D01*
X131456122Y-92859306D01*
X131396858Y-93079069D01*
X130775000Y-93079069D01*
X130775000Y-92340931D01*
X131396858Y-92340931D01*
X131456122Y-92560694D01*
X131932483Y-92714134D01*
X132431302Y-92673599D01*
X132703878Y-92560694D01*
X132763142Y-92340931D01*
X132080000Y-91657789D01*
X131396858Y-92340931D01*
X130775000Y-92340931D01*
X130775000Y-91292483D01*
X130805866Y-91292483D01*
X130846401Y-91791302D01*
X130959306Y-92063878D01*
X131179069Y-92123142D01*
X131862211Y-91440000D01*
X132297789Y-91440000D01*
X132980931Y-92123142D01*
X133200694Y-92063878D01*
X133354134Y-91587517D01*
X133325175Y-91231142D01*
X133570000Y-91231142D01*
X133570000Y-91648858D01*
X133729853Y-92034777D01*
X134025223Y-92330147D01*
X134411142Y-92490000D01*
X134828858Y-92490000D01*
X135214777Y-92330147D01*
X135510147Y-92034777D01*
X135670000Y-91648858D01*
X135670000Y-91231142D01*
X135565585Y-90979061D01*
X142042000Y-90979061D01*
X142042000Y-91144000D01*
X142194000Y-91296000D01*
X142946000Y-91296000D01*
X142946000Y-90644000D01*
X142794000Y-90492000D01*
X142529062Y-90492000D01*
X142305596Y-90584562D01*
X142134563Y-90755595D01*
X142042000Y-90979061D01*
X135565585Y-90979061D01*
X135510147Y-90845223D01*
X135214777Y-90549853D01*
X134828858Y-90390000D01*
X134411142Y-90390000D01*
X134025223Y-90549853D01*
X133729853Y-90845223D01*
X133570000Y-91231142D01*
X133325175Y-91231142D01*
X133313599Y-91088698D01*
X133200694Y-90816122D01*
X132980931Y-90756858D01*
X132297789Y-91440000D01*
X131862211Y-91440000D01*
X131179069Y-90756858D01*
X130959306Y-90816122D01*
X130805866Y-91292483D01*
X130775000Y-91292483D01*
X130775000Y-90539069D01*
X131396858Y-90539069D01*
X132080000Y-91222211D01*
X132763142Y-90539069D01*
X132703878Y-90319306D01*
X132227517Y-90165866D01*
X131728698Y-90206401D01*
X131456122Y-90319306D01*
X131396858Y-90539069D01*
X130775000Y-90539069D01*
X130775000Y-89800931D01*
X131396858Y-89800931D01*
X131456122Y-90020694D01*
X131932483Y-90174134D01*
X132431302Y-90133599D01*
X132703878Y-90020694D01*
X132763142Y-89800931D01*
X132080000Y-89117789D01*
X131396858Y-89800931D01*
X130775000Y-89800931D01*
X130775000Y-88752483D01*
X130805866Y-88752483D01*
X130846401Y-89251302D01*
X130959306Y-89523878D01*
X131179069Y-89583142D01*
X131862211Y-88900000D01*
X132297789Y-88900000D01*
X132980931Y-89583142D01*
X133200694Y-89523878D01*
X133354134Y-89047517D01*
X133313599Y-88548698D01*
X133200694Y-88276122D01*
X132980931Y-88216858D01*
X132297789Y-88900000D01*
X131862211Y-88900000D01*
X131179069Y-88216858D01*
X130959306Y-88276122D01*
X130805866Y-88752483D01*
X130775000Y-88752483D01*
X130775000Y-87999069D01*
X131396858Y-87999069D01*
X132080000Y-88682211D01*
X132763142Y-87999069D01*
X132703878Y-87779306D01*
X132227517Y-87625866D01*
X131728698Y-87666401D01*
X131456122Y-87779306D01*
X131396858Y-87999069D01*
X130775000Y-87999069D01*
X130775000Y-87260931D01*
X131396858Y-87260931D01*
X131456122Y-87480694D01*
X131932483Y-87634134D01*
X132431302Y-87593599D01*
X132703878Y-87480694D01*
X132763142Y-87260931D01*
X132080000Y-86577789D01*
X131396858Y-87260931D01*
X130775000Y-87260931D01*
X130775000Y-86212483D01*
X130805866Y-86212483D01*
X130846401Y-86711302D01*
X130959306Y-86983878D01*
X131179069Y-87043142D01*
X131862211Y-86360000D01*
X132297789Y-86360000D01*
X132980931Y-87043142D01*
X133200694Y-86983878D01*
X133354134Y-86507517D01*
X133325175Y-86151142D01*
X133570000Y-86151142D01*
X133570000Y-86568858D01*
X133729853Y-86954777D01*
X134025223Y-87250147D01*
X134411142Y-87410000D01*
X134828858Y-87410000D01*
X135214777Y-87250147D01*
X135510147Y-86954777D01*
X135670000Y-86568858D01*
X135670000Y-86151142D01*
X135510147Y-85765223D01*
X135214777Y-85469853D01*
X134828858Y-85310000D01*
X134411142Y-85310000D01*
X134025223Y-85469853D01*
X133729853Y-85765223D01*
X133570000Y-86151142D01*
X133325175Y-86151142D01*
X133313599Y-86008698D01*
X133200694Y-85736122D01*
X132980931Y-85676858D01*
X132297789Y-86360000D01*
X131862211Y-86360000D01*
X131179069Y-85676858D01*
X130959306Y-85736122D01*
X130805866Y-86212483D01*
X130775000Y-86212483D01*
X130775000Y-85459069D01*
X131396858Y-85459069D01*
X132080000Y-86142211D01*
X132763142Y-85459069D01*
X132703878Y-85239306D01*
X132227517Y-85085866D01*
X131728698Y-85126401D01*
X131456122Y-85239306D01*
X131396858Y-85459069D01*
X130775000Y-85459069D01*
X130775000Y-84720931D01*
X131396858Y-84720931D01*
X131456122Y-84940694D01*
X131932483Y-85094134D01*
X132431302Y-85053599D01*
X132703878Y-84940694D01*
X132763142Y-84720931D01*
X132080000Y-84037789D01*
X131396858Y-84720931D01*
X130775000Y-84720931D01*
X130775000Y-83672483D01*
X130805866Y-83672483D01*
X130846401Y-84171302D01*
X130959306Y-84443878D01*
X131179069Y-84503142D01*
X131862211Y-83820000D01*
X132297789Y-83820000D01*
X132980931Y-84503142D01*
X133200694Y-84443878D01*
X133354134Y-83967517D01*
X133325175Y-83611142D01*
X133570000Y-83611142D01*
X133570000Y-84028858D01*
X133729853Y-84414777D01*
X134025223Y-84710147D01*
X134411142Y-84870000D01*
X134828858Y-84870000D01*
X135214777Y-84710147D01*
X135510147Y-84414777D01*
X135670000Y-84028858D01*
X135670000Y-83611142D01*
X135510147Y-83225223D01*
X135214777Y-82929853D01*
X134828858Y-82770000D01*
X134411142Y-82770000D01*
X134025223Y-82929853D01*
X133729853Y-83225223D01*
X133570000Y-83611142D01*
X133325175Y-83611142D01*
X133313599Y-83468698D01*
X133200694Y-83196122D01*
X132980931Y-83136858D01*
X132297789Y-83820000D01*
X131862211Y-83820000D01*
X131179069Y-83136858D01*
X130959306Y-83196122D01*
X130805866Y-83672483D01*
X130775000Y-83672483D01*
X130775000Y-82919069D01*
X131396858Y-82919069D01*
X132080000Y-83602211D01*
X132763142Y-82919069D01*
X132703878Y-82699306D01*
X132227517Y-82545866D01*
X131728698Y-82586401D01*
X131456122Y-82699306D01*
X131396858Y-82919069D01*
X130775000Y-82919069D01*
X130775000Y-82180931D01*
X131396858Y-82180931D01*
X131456122Y-82400694D01*
X131932483Y-82554134D01*
X132431302Y-82513599D01*
X132703878Y-82400694D01*
X132763142Y-82180931D01*
X132080000Y-81497789D01*
X131396858Y-82180931D01*
X130775000Y-82180931D01*
X130775000Y-81132483D01*
X130805866Y-81132483D01*
X130846401Y-81631302D01*
X130959306Y-81903878D01*
X131179069Y-81963142D01*
X131862211Y-81280000D01*
X132297789Y-81280000D01*
X132980931Y-81963142D01*
X133200694Y-81903878D01*
X133354134Y-81427517D01*
X133313599Y-80928698D01*
X133200694Y-80656122D01*
X132980931Y-80596858D01*
X132297789Y-81280000D01*
X131862211Y-81280000D01*
X131179069Y-80596858D01*
X130959306Y-80656122D01*
X130805866Y-81132483D01*
X130775000Y-81132483D01*
X130775000Y-80379069D01*
X131396858Y-80379069D01*
X132080000Y-81062211D01*
X132763142Y-80379069D01*
X132703878Y-80159306D01*
X132227517Y-80005866D01*
X131728698Y-80046401D01*
X131456122Y-80159306D01*
X131396858Y-80379069D01*
X130775000Y-80379069D01*
X130775000Y-79640931D01*
X131396858Y-79640931D01*
X131456122Y-79860694D01*
X131932483Y-80014134D01*
X132431302Y-79973599D01*
X132703878Y-79860694D01*
X132763142Y-79640931D01*
X132080000Y-78957789D01*
X131396858Y-79640931D01*
X130775000Y-79640931D01*
X130775000Y-78592483D01*
X130805866Y-78592483D01*
X130846401Y-79091302D01*
X130959306Y-79363878D01*
X131179069Y-79423142D01*
X131862211Y-78740000D01*
X132297789Y-78740000D01*
X132980931Y-79423142D01*
X133200694Y-79363878D01*
X133354134Y-78887517D01*
X133325175Y-78531142D01*
X133570000Y-78531142D01*
X133570000Y-78948858D01*
X133729853Y-79334777D01*
X134025223Y-79630147D01*
X134411142Y-79790000D01*
X134821473Y-79790000D01*
X137500001Y-82468529D01*
X137500001Y-83220000D01*
X137408528Y-83220000D01*
X135670000Y-81481473D01*
X135670000Y-81071142D01*
X135510147Y-80685223D01*
X135214777Y-80389853D01*
X134828858Y-80230000D01*
X134411142Y-80230000D01*
X134025223Y-80389853D01*
X133729853Y-80685223D01*
X133570000Y-81071142D01*
X133570000Y-81488858D01*
X133729853Y-81874777D01*
X134025223Y-82170147D01*
X134411142Y-82330000D01*
X134821473Y-82330000D01*
X136693953Y-84202481D01*
X136727425Y-84252575D01*
X136925892Y-84385187D01*
X137100909Y-84420000D01*
X137100913Y-84420000D01*
X137159999Y-84431753D01*
X137219085Y-84420000D01*
X137500000Y-84420000D01*
X137500000Y-84451472D01*
X137461473Y-84490000D01*
X137450909Y-84490000D01*
X137403149Y-84499500D01*
X137392542Y-84499500D01*
X137382742Y-84503559D01*
X137275892Y-84524813D01*
X137185311Y-84585337D01*
X137175508Y-84589398D01*
X137168005Y-84596901D01*
X137077425Y-84657425D01*
X137016901Y-84748005D01*
X137009398Y-84755508D01*
X137005337Y-84765311D01*
X136944813Y-84855892D01*
X136923559Y-84962742D01*
X136919500Y-84972542D01*
X136919500Y-84983149D01*
X136898246Y-85090000D01*
X136919500Y-85196851D01*
X136919500Y-85207458D01*
X136923559Y-85217258D01*
X136944813Y-85324108D01*
X137005337Y-85414689D01*
X137009398Y-85424492D01*
X137016901Y-85431995D01*
X137077425Y-85522575D01*
X137168005Y-85583099D01*
X137175508Y-85590602D01*
X137185311Y-85594663D01*
X137275892Y-85655187D01*
X137382742Y-85676441D01*
X137392542Y-85680500D01*
X137403149Y-85680500D01*
X137450909Y-85690000D01*
X137650914Y-85690000D01*
X137710000Y-85701753D01*
X137769086Y-85690000D01*
X137769091Y-85690000D01*
X137944108Y-85655187D01*
X138142575Y-85522575D01*
X138176048Y-85472479D01*
X138200001Y-85448527D01*
X138200001Y-87351471D01*
X137251473Y-88300000D01*
X135504924Y-88300000D01*
X135214777Y-88009853D01*
X134828858Y-87850000D01*
X134411142Y-87850000D01*
X134025223Y-88009853D01*
X133729853Y-88305223D01*
X133570000Y-88691142D01*
X133570000Y-89108858D01*
X133729853Y-89494777D01*
X134025223Y-89790147D01*
X134411142Y-89950000D01*
X134828858Y-89950000D01*
X135214777Y-89790147D01*
X135504924Y-89500000D01*
X137440914Y-89500000D01*
X137500000Y-89511753D01*
X137559086Y-89500000D01*
X137559091Y-89500000D01*
X137734108Y-89465187D01*
X137932575Y-89332575D01*
X137966049Y-89282479D01*
X139182481Y-88066047D01*
X139232575Y-88032575D01*
X139365187Y-87834108D01*
X139400000Y-87659091D01*
X139400000Y-87659088D01*
X139411753Y-87600000D01*
X139400000Y-87540912D01*
X139400000Y-80610000D01*
X141743985Y-80610000D01*
X141778985Y-80645000D01*
X141582987Y-80840998D01*
X141465000Y-81125843D01*
X141465000Y-81434157D01*
X141582987Y-81719002D01*
X141778985Y-81915000D01*
X141582987Y-82110998D01*
X141465000Y-82395843D01*
X141465000Y-82704157D01*
X141582987Y-82989002D01*
X141778985Y-83185000D01*
X141582987Y-83380998D01*
X141465000Y-83665843D01*
X141465000Y-83974157D01*
X141582987Y-84259002D01*
X141778985Y-84455000D01*
X141582987Y-84650998D01*
X141465000Y-84935843D01*
X141465000Y-85244157D01*
X141582987Y-85529002D01*
X141800998Y-85747013D01*
X142085843Y-85865000D01*
X142394157Y-85865000D01*
X142679002Y-85747013D01*
X142776928Y-85649087D01*
X142846616Y-85753384D01*
X142978928Y-85841791D01*
X143135000Y-85872836D01*
X143885000Y-85872836D01*
X144041072Y-85841791D01*
X144173384Y-85753384D01*
X144261791Y-85621072D01*
X144292836Y-85465000D01*
X144292836Y-84715000D01*
X144261791Y-84558928D01*
X144231317Y-84513319D01*
X144326214Y-84418422D01*
X144210176Y-84302385D01*
X144401734Y-84277528D01*
X144508942Y-83901449D01*
X144464072Y-83512971D01*
X144401734Y-83362472D01*
X144210174Y-83337615D01*
X143727789Y-83820000D01*
X143741931Y-83834142D01*
X143524142Y-84051931D01*
X143510000Y-84037789D01*
X143495858Y-84051931D01*
X143278069Y-83834142D01*
X143292211Y-83820000D01*
X142927987Y-83455776D01*
X142897013Y-83380998D01*
X142701015Y-83185000D01*
X142766189Y-83119826D01*
X143027615Y-83119826D01*
X143092789Y-83185000D01*
X143027615Y-83250174D01*
X143052472Y-83441734D01*
X143428551Y-83548942D01*
X143453813Y-83546024D01*
X143510000Y-83602211D01*
X143580861Y-83531350D01*
X143817029Y-83504072D01*
X143967528Y-83441734D01*
X143992385Y-83250174D01*
X143927211Y-83185000D01*
X143992385Y-83119826D01*
X143967528Y-82928266D01*
X143591449Y-82821058D01*
X143566187Y-82823976D01*
X143510000Y-82767789D01*
X143439139Y-82838650D01*
X143202971Y-82865928D01*
X143052472Y-82928266D01*
X143027615Y-83119826D01*
X142766189Y-83119826D01*
X142897013Y-82989002D01*
X142927987Y-82914224D01*
X143292211Y-82550000D01*
X143727789Y-82550000D01*
X144210174Y-83032385D01*
X144401734Y-83007528D01*
X144508942Y-82631449D01*
X144464072Y-82242971D01*
X144401734Y-82092472D01*
X144210174Y-82067615D01*
X143727789Y-82550000D01*
X143292211Y-82550000D01*
X142927987Y-82185776D01*
X142897013Y-82110998D01*
X142701015Y-81915000D01*
X142875000Y-81741015D01*
X143070998Y-81937013D01*
X143145776Y-81967987D01*
X143510000Y-82332211D01*
X143874224Y-81967987D01*
X143949002Y-81937013D01*
X144167013Y-81719002D01*
X144285000Y-81434157D01*
X144285000Y-81125843D01*
X144167013Y-80840998D01*
X143949002Y-80622987D01*
X143874224Y-80592013D01*
X143510000Y-80227789D01*
X143145776Y-80592013D01*
X143070998Y-80622987D01*
X142875000Y-80818985D01*
X142701015Y-80645000D01*
X142897013Y-80449002D01*
X142927987Y-80374224D01*
X143292211Y-80010000D01*
X143727789Y-80010000D01*
X144210174Y-80492385D01*
X144401734Y-80467528D01*
X144508942Y-80091449D01*
X144464072Y-79702971D01*
X144401734Y-79552472D01*
X144210174Y-79527615D01*
X143727789Y-80010000D01*
X143292211Y-80010000D01*
X142927987Y-79645776D01*
X142897013Y-79570998D01*
X142679002Y-79352987D01*
X142574803Y-79309826D01*
X143027615Y-79309826D01*
X143510000Y-79792211D01*
X143992385Y-79309826D01*
X143967528Y-79118266D01*
X143591449Y-79011058D01*
X143202971Y-79055928D01*
X143052472Y-79118266D01*
X143027615Y-79309826D01*
X142574803Y-79309826D01*
X142394157Y-79235000D01*
X142085843Y-79235000D01*
X141800998Y-79352987D01*
X141743985Y-79410000D01*
X139400000Y-79410000D01*
X139400000Y-73777999D01*
X139406072Y-73776791D01*
X139538384Y-73688384D01*
X139626791Y-73556072D01*
X139657836Y-73400000D01*
X139657836Y-73006000D01*
X142742000Y-73006000D01*
X142742000Y-73520938D01*
X142834562Y-73744404D01*
X143005595Y-73915437D01*
X143229061Y-74008000D01*
X143494000Y-74008000D01*
X143646000Y-73856000D01*
X143646000Y-72854000D01*
X143954000Y-72854000D01*
X143954000Y-73856000D01*
X144106000Y-74008000D01*
X144370939Y-74008000D01*
X144594405Y-73915437D01*
X144765438Y-73744404D01*
X144858000Y-73520938D01*
X144858000Y-73006000D01*
X144706000Y-72854000D01*
X143954000Y-72854000D01*
X143646000Y-72854000D01*
X142894000Y-72854000D01*
X142742000Y-73006000D01*
X139657836Y-73006000D01*
X139657836Y-72000000D01*
X139633780Y-71879062D01*
X142742000Y-71879062D01*
X142742000Y-72394000D01*
X142894000Y-72546000D01*
X143646000Y-72546000D01*
X143646000Y-71544000D01*
X143954000Y-71544000D01*
X143954000Y-72546000D01*
X144706000Y-72546000D01*
X144858000Y-72394000D01*
X144858000Y-71879062D01*
X144765438Y-71655596D01*
X144594405Y-71484563D01*
X144370939Y-71392000D01*
X144106000Y-71392000D01*
X143954000Y-71544000D01*
X143646000Y-71544000D01*
X143494000Y-71392000D01*
X143229061Y-71392000D01*
X143005595Y-71484563D01*
X142834562Y-71655596D01*
X142742000Y-71879062D01*
X139633780Y-71879062D01*
X139626791Y-71843928D01*
X139538384Y-71711616D01*
X139406072Y-71623209D01*
X139250000Y-71592164D01*
X138350000Y-71592164D01*
X138193928Y-71623209D01*
X138061616Y-71711616D01*
X137973209Y-71843928D01*
X137942164Y-72000000D01*
X137942164Y-73400000D01*
X137973209Y-73556072D01*
X138061616Y-73688384D01*
X138193928Y-73776791D01*
X138200001Y-73777999D01*
X138200001Y-74040905D01*
X138200000Y-74040910D01*
X138200001Y-79940905D01*
X138200000Y-79940910D01*
X138200000Y-79940914D01*
X138188247Y-80000000D01*
X138200000Y-80059086D01*
X138200000Y-81471472D01*
X135670000Y-78941473D01*
X135670000Y-78531142D01*
X135510147Y-78145223D01*
X135214777Y-77849853D01*
X134828858Y-77690000D01*
X134411142Y-77690000D01*
X134025223Y-77849853D01*
X133729853Y-78145223D01*
X133570000Y-78531142D01*
X133325175Y-78531142D01*
X133313599Y-78388698D01*
X133200694Y-78116122D01*
X132980931Y-78056858D01*
X132297789Y-78740000D01*
X131862211Y-78740000D01*
X131179069Y-78056858D01*
X130959306Y-78116122D01*
X130805866Y-78592483D01*
X130775000Y-78592483D01*
X130775000Y-77839069D01*
X131396858Y-77839069D01*
X132080000Y-78522211D01*
X132763142Y-77839069D01*
X132703878Y-77619306D01*
X132227517Y-77465866D01*
X131728698Y-77506401D01*
X131456122Y-77619306D01*
X131396858Y-77839069D01*
X130775000Y-77839069D01*
X130775000Y-77100931D01*
X131396858Y-77100931D01*
X131456122Y-77320694D01*
X131932483Y-77474134D01*
X132431302Y-77433599D01*
X132703878Y-77320694D01*
X132763142Y-77100931D01*
X132080000Y-76417789D01*
X131396858Y-77100931D01*
X130775000Y-77100931D01*
X130775000Y-76052483D01*
X130805866Y-76052483D01*
X130846401Y-76551302D01*
X130959306Y-76823878D01*
X131179069Y-76883142D01*
X131862211Y-76200000D01*
X132297789Y-76200000D01*
X132980931Y-76883142D01*
X133200694Y-76823878D01*
X133354134Y-76347517D01*
X133325175Y-75991142D01*
X133570000Y-75991142D01*
X133570000Y-76408858D01*
X133729853Y-76794777D01*
X134025223Y-77090147D01*
X134411142Y-77250000D01*
X134828858Y-77250000D01*
X135214777Y-77090147D01*
X135510147Y-76794777D01*
X135670000Y-76408858D01*
X135670000Y-75991142D01*
X135510147Y-75605223D01*
X135214777Y-75309853D01*
X134828858Y-75150000D01*
X134411142Y-75150000D01*
X134025223Y-75309853D01*
X133729853Y-75605223D01*
X133570000Y-75991142D01*
X133325175Y-75991142D01*
X133313599Y-75848698D01*
X133200694Y-75576122D01*
X132980931Y-75516858D01*
X132297789Y-76200000D01*
X131862211Y-76200000D01*
X131179069Y-75516858D01*
X130959306Y-75576122D01*
X130805866Y-76052483D01*
X130775000Y-76052483D01*
X130775000Y-75299069D01*
X131396858Y-75299069D01*
X132080000Y-75982211D01*
X132763142Y-75299069D01*
X132703878Y-75079306D01*
X132227517Y-74925866D01*
X131728698Y-74966401D01*
X131456122Y-75079306D01*
X131396858Y-75299069D01*
X130775000Y-75299069D01*
X130775000Y-74560931D01*
X131396858Y-74560931D01*
X131456122Y-74780694D01*
X131932483Y-74934134D01*
X132431302Y-74893599D01*
X132703878Y-74780694D01*
X132763142Y-74560931D01*
X132080000Y-73877789D01*
X131396858Y-74560931D01*
X130775000Y-74560931D01*
X130775000Y-73512483D01*
X130805866Y-73512483D01*
X130846401Y-74011302D01*
X130959306Y-74283878D01*
X131179069Y-74343142D01*
X131862211Y-73660000D01*
X132297789Y-73660000D01*
X132980931Y-74343142D01*
X133200694Y-74283878D01*
X133354134Y-73807517D01*
X133325175Y-73451142D01*
X133570000Y-73451142D01*
X133570000Y-73868858D01*
X133729853Y-74254777D01*
X134025223Y-74550147D01*
X134411142Y-74710000D01*
X134828858Y-74710000D01*
X135214777Y-74550147D01*
X135510147Y-74254777D01*
X135670000Y-73868858D01*
X135670000Y-73451142D01*
X135510147Y-73065223D01*
X135214777Y-72769853D01*
X134828858Y-72610000D01*
X134411142Y-72610000D01*
X134025223Y-72769853D01*
X133729853Y-73065223D01*
X133570000Y-73451142D01*
X133325175Y-73451142D01*
X133313599Y-73308698D01*
X133200694Y-73036122D01*
X132980931Y-72976858D01*
X132297789Y-73660000D01*
X131862211Y-73660000D01*
X131179069Y-72976858D01*
X130959306Y-73036122D01*
X130805866Y-73512483D01*
X130775000Y-73512483D01*
X130775000Y-72759069D01*
X131396858Y-72759069D01*
X132080000Y-73442211D01*
X132763142Y-72759069D01*
X132703878Y-72539306D01*
X132227517Y-72385866D01*
X131728698Y-72426401D01*
X131456122Y-72539306D01*
X131396858Y-72759069D01*
X130775000Y-72759069D01*
X130775000Y-70470000D01*
X131022164Y-70470000D01*
X131022164Y-71770000D01*
X131053209Y-71926072D01*
X131141616Y-72058384D01*
X131273928Y-72146791D01*
X131430000Y-72177836D01*
X132730000Y-72177836D01*
X132886072Y-72146791D01*
X133018384Y-72058384D01*
X133106791Y-71926072D01*
X133137836Y-71770000D01*
X133137836Y-70911142D01*
X133570000Y-70911142D01*
X133570000Y-71328858D01*
X133729853Y-71714777D01*
X134025223Y-72010147D01*
X134411142Y-72170000D01*
X134828858Y-72170000D01*
X135214777Y-72010147D01*
X135510147Y-71714777D01*
X135670000Y-71328858D01*
X135670000Y-70911142D01*
X135510147Y-70525223D01*
X135214777Y-70229853D01*
X134828858Y-70070000D01*
X134411142Y-70070000D01*
X134025223Y-70229853D01*
X133729853Y-70525223D01*
X133570000Y-70911142D01*
X133137836Y-70911142D01*
X133137836Y-70470000D01*
X133106791Y-70313928D01*
X133018384Y-70181616D01*
X132886072Y-70093209D01*
X132730000Y-70062164D01*
X131430000Y-70062164D01*
X131273928Y-70093209D01*
X131141616Y-70181616D01*
X131053209Y-70313928D01*
X131022164Y-70470000D01*
X130775000Y-70470000D01*
X130775000Y-69775000D01*
X145425001Y-69775000D01*
X145425000Y-90802673D01*
X145425000Y-90802673D01*
G37*
X145425000Y-90802673D02*
X145306072Y-90723209D01*
X145300000Y-90722001D01*
X145300000Y-90140909D01*
X145290500Y-90093149D01*
X145290500Y-90082542D01*
X145286441Y-90072742D01*
X145265187Y-89965892D01*
X145204663Y-89875311D01*
X145200602Y-89865508D01*
X145193099Y-89858005D01*
X145132575Y-89767425D01*
X145041995Y-89706901D01*
X145034492Y-89699398D01*
X145024689Y-89695337D01*
X144934108Y-89634813D01*
X144827258Y-89613559D01*
X144817458Y-89609500D01*
X144806851Y-89609500D01*
X144700000Y-89588246D01*
X144593149Y-89609500D01*
X144582542Y-89609500D01*
X144572742Y-89613559D01*
X144465893Y-89634813D01*
X144375314Y-89695336D01*
X144365508Y-89699398D01*
X144358003Y-89706903D01*
X144267426Y-89767425D01*
X144206904Y-89858002D01*
X144199398Y-89865508D01*
X144195336Y-89875315D01*
X144134814Y-89965892D01*
X144113561Y-90072738D01*
X144109500Y-90082542D01*
X144109500Y-90093154D01*
X144100001Y-90140909D01*
X144100001Y-90722001D01*
X144093928Y-90723209D01*
X144057435Y-90747593D01*
X143894404Y-90584562D01*
X143670938Y-90492000D01*
X143406000Y-90492000D01*
X143254000Y-90644000D01*
X143254000Y-91296000D01*
X143274000Y-91296000D01*
X143274000Y-91604000D01*
X143254000Y-91604000D01*
X143254000Y-91624000D01*
X142946000Y-91624000D01*
X142946000Y-91604000D01*
X142194000Y-91604000D01*
X142042000Y-91756000D01*
X142042000Y-91920939D01*
X142134563Y-92144405D01*
X142305596Y-92315438D01*
X142529062Y-92408000D01*
X142570388Y-92408000D01*
X142493928Y-92423209D01*
X142361616Y-92511616D01*
X142273209Y-92643928D01*
X142242164Y-92800000D01*
X142242164Y-93500000D01*
X142273209Y-93656072D01*
X142361616Y-93788384D01*
X142493928Y-93876791D01*
X142650000Y-93907836D01*
X143550000Y-93907836D01*
X143706072Y-93876791D01*
X143838384Y-93788384D01*
X143864031Y-93750000D01*
X143935969Y-93750000D01*
X143961616Y-93788384D01*
X144093928Y-93876791D01*
X144250000Y-93907836D01*
X145150000Y-93907836D01*
X145306072Y-93876791D01*
X145425000Y-93797327D01*
X145425000Y-95325000D01*
X130775000Y-95325000D01*
X130775000Y-94880931D01*
X131396858Y-94880931D01*
X131456122Y-95100694D01*
X131932483Y-95254134D01*
X132431302Y-95213599D01*
X132703878Y-95100694D01*
X132763142Y-94880931D01*
X132080000Y-94197789D01*
X131396858Y-94880931D01*
X130775000Y-94880931D01*
X130775000Y-93832483D01*
X130805866Y-93832483D01*
X130846401Y-94331302D01*
X130959306Y-94603878D01*
X131179069Y-94663142D01*
X131862211Y-93980000D01*
X132297789Y-93980000D01*
X132980931Y-94663142D01*
X133200694Y-94603878D01*
X133354134Y-94127517D01*
X133325175Y-93771142D01*
X133570000Y-93771142D01*
X133570000Y-94188858D01*
X133729853Y-94574777D01*
X134025223Y-94870147D01*
X134411142Y-95030000D01*
X134828858Y-95030000D01*
X135214777Y-94870147D01*
X135510147Y-94574777D01*
X135670000Y-94188858D01*
X135670000Y-93771142D01*
X135510147Y-93385223D01*
X135214777Y-93089853D01*
X134828858Y-92930000D01*
X134411142Y-92930000D01*
X134025223Y-93089853D01*
X133729853Y-93385223D01*
X133570000Y-93771142D01*
X133325175Y-93771142D01*
X133313599Y-93628698D01*
X133200694Y-93356122D01*
X132980931Y-93296858D01*
X132297789Y-93980000D01*
X131862211Y-93980000D01*
X131179069Y-93296858D01*
X130959306Y-93356122D01*
X130805866Y-93832483D01*
X130775000Y-93832483D01*
X130775000Y-93079069D01*
X131396858Y-93079069D01*
X132080000Y-93762211D01*
X132763142Y-93079069D01*
X132703878Y-92859306D01*
X132227517Y-92705866D01*
X131728698Y-92746401D01*
X131456122Y-92859306D01*
X131396858Y-93079069D01*
X130775000Y-93079069D01*
X130775000Y-92340931D01*
X131396858Y-92340931D01*
X131456122Y-92560694D01*
X131932483Y-92714134D01*
X132431302Y-92673599D01*
X132703878Y-92560694D01*
X132763142Y-92340931D01*
X132080000Y-91657789D01*
X131396858Y-92340931D01*
X130775000Y-92340931D01*
X130775000Y-91292483D01*
X130805866Y-91292483D01*
X130846401Y-91791302D01*
X130959306Y-92063878D01*
X131179069Y-92123142D01*
X131862211Y-91440000D01*
X132297789Y-91440000D01*
X132980931Y-92123142D01*
X133200694Y-92063878D01*
X133354134Y-91587517D01*
X133325175Y-91231142D01*
X133570000Y-91231142D01*
X133570000Y-91648858D01*
X133729853Y-92034777D01*
X134025223Y-92330147D01*
X134411142Y-92490000D01*
X134828858Y-92490000D01*
X135214777Y-92330147D01*
X135510147Y-92034777D01*
X135670000Y-91648858D01*
X135670000Y-91231142D01*
X135565585Y-90979061D01*
X142042000Y-90979061D01*
X142042000Y-91144000D01*
X142194000Y-91296000D01*
X142946000Y-91296000D01*
X142946000Y-90644000D01*
X142794000Y-90492000D01*
X142529062Y-90492000D01*
X142305596Y-90584562D01*
X142134563Y-90755595D01*
X142042000Y-90979061D01*
X135565585Y-90979061D01*
X135510147Y-90845223D01*
X135214777Y-90549853D01*
X134828858Y-90390000D01*
X134411142Y-90390000D01*
X134025223Y-90549853D01*
X133729853Y-90845223D01*
X133570000Y-91231142D01*
X133325175Y-91231142D01*
X133313599Y-91088698D01*
X133200694Y-90816122D01*
X132980931Y-90756858D01*
X132297789Y-91440000D01*
X131862211Y-91440000D01*
X131179069Y-90756858D01*
X130959306Y-90816122D01*
X130805866Y-91292483D01*
X130775000Y-91292483D01*
X130775000Y-90539069D01*
X131396858Y-90539069D01*
X132080000Y-91222211D01*
X132763142Y-90539069D01*
X132703878Y-90319306D01*
X132227517Y-90165866D01*
X131728698Y-90206401D01*
X131456122Y-90319306D01*
X131396858Y-90539069D01*
X130775000Y-90539069D01*
X130775000Y-89800931D01*
X131396858Y-89800931D01*
X131456122Y-90020694D01*
X131932483Y-90174134D01*
X132431302Y-90133599D01*
X132703878Y-90020694D01*
X132763142Y-89800931D01*
X132080000Y-89117789D01*
X131396858Y-89800931D01*
X130775000Y-89800931D01*
X130775000Y-88752483D01*
X130805866Y-88752483D01*
X130846401Y-89251302D01*
X130959306Y-89523878D01*
X131179069Y-89583142D01*
X131862211Y-88900000D01*
X132297789Y-88900000D01*
X132980931Y-89583142D01*
X133200694Y-89523878D01*
X133354134Y-89047517D01*
X133313599Y-88548698D01*
X133200694Y-88276122D01*
X132980931Y-88216858D01*
X132297789Y-88900000D01*
X131862211Y-88900000D01*
X131179069Y-88216858D01*
X130959306Y-88276122D01*
X130805866Y-88752483D01*
X130775000Y-88752483D01*
X130775000Y-87999069D01*
X131396858Y-87999069D01*
X132080000Y-88682211D01*
X132763142Y-87999069D01*
X132703878Y-87779306D01*
X132227517Y-87625866D01*
X131728698Y-87666401D01*
X131456122Y-87779306D01*
X131396858Y-87999069D01*
X130775000Y-87999069D01*
X130775000Y-87260931D01*
X131396858Y-87260931D01*
X131456122Y-87480694D01*
X131932483Y-87634134D01*
X132431302Y-87593599D01*
X132703878Y-87480694D01*
X132763142Y-87260931D01*
X132080000Y-86577789D01*
X131396858Y-87260931D01*
X130775000Y-87260931D01*
X130775000Y-86212483D01*
X130805866Y-86212483D01*
X130846401Y-86711302D01*
X130959306Y-86983878D01*
X131179069Y-87043142D01*
X131862211Y-86360000D01*
X132297789Y-86360000D01*
X132980931Y-87043142D01*
X133200694Y-86983878D01*
X133354134Y-86507517D01*
X133325175Y-86151142D01*
X133570000Y-86151142D01*
X133570000Y-86568858D01*
X133729853Y-86954777D01*
X134025223Y-87250147D01*
X134411142Y-87410000D01*
X134828858Y-87410000D01*
X135214777Y-87250147D01*
X135510147Y-86954777D01*
X135670000Y-86568858D01*
X135670000Y-86151142D01*
X135510147Y-85765223D01*
X135214777Y-85469853D01*
X134828858Y-85310000D01*
X134411142Y-85310000D01*
X134025223Y-85469853D01*
X133729853Y-85765223D01*
X133570000Y-86151142D01*
X133325175Y-86151142D01*
X133313599Y-86008698D01*
X133200694Y-85736122D01*
X132980931Y-85676858D01*
X132297789Y-86360000D01*
X131862211Y-86360000D01*
X131179069Y-85676858D01*
X130959306Y-85736122D01*
X130805866Y-86212483D01*
X130775000Y-86212483D01*
X130775000Y-85459069D01*
X131396858Y-85459069D01*
X132080000Y-86142211D01*
X132763142Y-85459069D01*
X132703878Y-85239306D01*
X132227517Y-85085866D01*
X131728698Y-85126401D01*
X131456122Y-85239306D01*
X131396858Y-85459069D01*
X130775000Y-85459069D01*
X130775000Y-84720931D01*
X131396858Y-84720931D01*
X131456122Y-84940694D01*
X131932483Y-85094134D01*
X132431302Y-85053599D01*
X132703878Y-84940694D01*
X132763142Y-84720931D01*
X132080000Y-84037789D01*
X131396858Y-84720931D01*
X130775000Y-84720931D01*
X130775000Y-83672483D01*
X130805866Y-83672483D01*
X130846401Y-84171302D01*
X130959306Y-84443878D01*
X131179069Y-84503142D01*
X131862211Y-83820000D01*
X132297789Y-83820000D01*
X132980931Y-84503142D01*
X133200694Y-84443878D01*
X133354134Y-83967517D01*
X133325175Y-83611142D01*
X133570000Y-83611142D01*
X133570000Y-84028858D01*
X133729853Y-84414777D01*
X134025223Y-84710147D01*
X134411142Y-84870000D01*
X134828858Y-84870000D01*
X135214777Y-84710147D01*
X135510147Y-84414777D01*
X135670000Y-84028858D01*
X135670000Y-83611142D01*
X135510147Y-83225223D01*
X135214777Y-82929853D01*
X134828858Y-82770000D01*
X134411142Y-82770000D01*
X134025223Y-82929853D01*
X133729853Y-83225223D01*
X133570000Y-83611142D01*
X133325175Y-83611142D01*
X133313599Y-83468698D01*
X133200694Y-83196122D01*
X132980931Y-83136858D01*
X132297789Y-83820000D01*
X131862211Y-83820000D01*
X131179069Y-83136858D01*
X130959306Y-83196122D01*
X130805866Y-83672483D01*
X130775000Y-83672483D01*
X130775000Y-82919069D01*
X131396858Y-82919069D01*
X132080000Y-83602211D01*
X132763142Y-82919069D01*
X132703878Y-82699306D01*
X132227517Y-82545866D01*
X131728698Y-82586401D01*
X131456122Y-82699306D01*
X131396858Y-82919069D01*
X130775000Y-82919069D01*
X130775000Y-82180931D01*
X131396858Y-82180931D01*
X131456122Y-82400694D01*
X131932483Y-82554134D01*
X132431302Y-82513599D01*
X132703878Y-82400694D01*
X132763142Y-82180931D01*
X132080000Y-81497789D01*
X131396858Y-82180931D01*
X130775000Y-82180931D01*
X130775000Y-81132483D01*
X130805866Y-81132483D01*
X130846401Y-81631302D01*
X130959306Y-81903878D01*
X131179069Y-81963142D01*
X131862211Y-81280000D01*
X132297789Y-81280000D01*
X132980931Y-81963142D01*
X133200694Y-81903878D01*
X133354134Y-81427517D01*
X133313599Y-80928698D01*
X133200694Y-80656122D01*
X132980931Y-80596858D01*
X132297789Y-81280000D01*
X131862211Y-81280000D01*
X131179069Y-80596858D01*
X130959306Y-80656122D01*
X130805866Y-81132483D01*
X130775000Y-81132483D01*
X130775000Y-80379069D01*
X131396858Y-80379069D01*
X132080000Y-81062211D01*
X132763142Y-80379069D01*
X132703878Y-80159306D01*
X132227517Y-80005866D01*
X131728698Y-80046401D01*
X131456122Y-80159306D01*
X131396858Y-80379069D01*
X130775000Y-80379069D01*
X130775000Y-79640931D01*
X131396858Y-79640931D01*
X131456122Y-79860694D01*
X131932483Y-80014134D01*
X132431302Y-79973599D01*
X132703878Y-79860694D01*
X132763142Y-79640931D01*
X132080000Y-78957789D01*
X131396858Y-79640931D01*
X130775000Y-79640931D01*
X130775000Y-78592483D01*
X130805866Y-78592483D01*
X130846401Y-79091302D01*
X130959306Y-79363878D01*
X131179069Y-79423142D01*
X131862211Y-78740000D01*
X132297789Y-78740000D01*
X132980931Y-79423142D01*
X133200694Y-79363878D01*
X133354134Y-78887517D01*
X133325175Y-78531142D01*
X133570000Y-78531142D01*
X133570000Y-78948858D01*
X133729853Y-79334777D01*
X134025223Y-79630147D01*
X134411142Y-79790000D01*
X134821473Y-79790000D01*
X137500001Y-82468529D01*
X137500001Y-83220000D01*
X137408528Y-83220000D01*
X135670000Y-81481473D01*
X135670000Y-81071142D01*
X135510147Y-80685223D01*
X135214777Y-80389853D01*
X134828858Y-80230000D01*
X134411142Y-80230000D01*
X134025223Y-80389853D01*
X133729853Y-80685223D01*
X133570000Y-81071142D01*
X133570000Y-81488858D01*
X133729853Y-81874777D01*
X134025223Y-82170147D01*
X134411142Y-82330000D01*
X134821473Y-82330000D01*
X136693953Y-84202481D01*
X136727425Y-84252575D01*
X136925892Y-84385187D01*
X137100909Y-84420000D01*
X137100913Y-84420000D01*
X137159999Y-84431753D01*
X137219085Y-84420000D01*
X137500000Y-84420000D01*
X137500000Y-84451472D01*
X137461473Y-84490000D01*
X137450909Y-84490000D01*
X137403149Y-84499500D01*
X137392542Y-84499500D01*
X137382742Y-84503559D01*
X137275892Y-84524813D01*
X137185311Y-84585337D01*
X137175508Y-84589398D01*
X137168005Y-84596901D01*
X137077425Y-84657425D01*
X137016901Y-84748005D01*
X137009398Y-84755508D01*
X137005337Y-84765311D01*
X136944813Y-84855892D01*
X136923559Y-84962742D01*
X136919500Y-84972542D01*
X136919500Y-84983149D01*
X136898246Y-85090000D01*
X136919500Y-85196851D01*
X136919500Y-85207458D01*
X136923559Y-85217258D01*
X136944813Y-85324108D01*
X137005337Y-85414689D01*
X137009398Y-85424492D01*
X137016901Y-85431995D01*
X137077425Y-85522575D01*
X137168005Y-85583099D01*
X137175508Y-85590602D01*
X137185311Y-85594663D01*
X137275892Y-85655187D01*
X137382742Y-85676441D01*
X137392542Y-85680500D01*
X137403149Y-85680500D01*
X137450909Y-85690000D01*
X137650914Y-85690000D01*
X137710000Y-85701753D01*
X137769086Y-85690000D01*
X137769091Y-85690000D01*
X137944108Y-85655187D01*
X138142575Y-85522575D01*
X138176048Y-85472479D01*
X138200001Y-85448527D01*
X138200001Y-87351471D01*
X137251473Y-88300000D01*
X135504924Y-88300000D01*
X135214777Y-88009853D01*
X134828858Y-87850000D01*
X134411142Y-87850000D01*
X134025223Y-88009853D01*
X133729853Y-88305223D01*
X133570000Y-88691142D01*
X133570000Y-89108858D01*
X133729853Y-89494777D01*
X134025223Y-89790147D01*
X134411142Y-89950000D01*
X134828858Y-89950000D01*
X135214777Y-89790147D01*
X135504924Y-89500000D01*
X137440914Y-89500000D01*
X137500000Y-89511753D01*
X137559086Y-89500000D01*
X137559091Y-89500000D01*
X137734108Y-89465187D01*
X137932575Y-89332575D01*
X137966049Y-89282479D01*
X139182481Y-88066047D01*
X139232575Y-88032575D01*
X139365187Y-87834108D01*
X139400000Y-87659091D01*
X139400000Y-87659088D01*
X139411753Y-87600000D01*
X139400000Y-87540912D01*
X139400000Y-80610000D01*
X141743985Y-80610000D01*
X141778985Y-80645000D01*
X141582987Y-80840998D01*
X141465000Y-81125843D01*
X141465000Y-81434157D01*
X141582987Y-81719002D01*
X141778985Y-81915000D01*
X141582987Y-82110998D01*
X141465000Y-82395843D01*
X141465000Y-82704157D01*
X141582987Y-82989002D01*
X141778985Y-83185000D01*
X141582987Y-83380998D01*
X141465000Y-83665843D01*
X141465000Y-83974157D01*
X141582987Y-84259002D01*
X141778985Y-84455000D01*
X141582987Y-84650998D01*
X141465000Y-84935843D01*
X141465000Y-85244157D01*
X141582987Y-85529002D01*
X141800998Y-85747013D01*
X142085843Y-85865000D01*
X142394157Y-85865000D01*
X142679002Y-85747013D01*
X142776928Y-85649087D01*
X142846616Y-85753384D01*
X142978928Y-85841791D01*
X143135000Y-85872836D01*
X143885000Y-85872836D01*
X144041072Y-85841791D01*
X144173384Y-85753384D01*
X144261791Y-85621072D01*
X144292836Y-85465000D01*
X144292836Y-84715000D01*
X144261791Y-84558928D01*
X144231317Y-84513319D01*
X144326214Y-84418422D01*
X144210176Y-84302385D01*
X144401734Y-84277528D01*
X144508942Y-83901449D01*
X144464072Y-83512971D01*
X144401734Y-83362472D01*
X144210174Y-83337615D01*
X143727789Y-83820000D01*
X143741931Y-83834142D01*
X143524142Y-84051931D01*
X143510000Y-84037789D01*
X143495858Y-84051931D01*
X143278069Y-83834142D01*
X143292211Y-83820000D01*
X142927987Y-83455776D01*
X142897013Y-83380998D01*
X142701015Y-83185000D01*
X142766189Y-83119826D01*
X143027615Y-83119826D01*
X143092789Y-83185000D01*
X143027615Y-83250174D01*
X143052472Y-83441734D01*
X143428551Y-83548942D01*
X143453813Y-83546024D01*
X143510000Y-83602211D01*
X143580861Y-83531350D01*
X143817029Y-83504072D01*
X143967528Y-83441734D01*
X143992385Y-83250174D01*
X143927211Y-83185000D01*
X143992385Y-83119826D01*
X143967528Y-82928266D01*
X143591449Y-82821058D01*
X143566187Y-82823976D01*
X143510000Y-82767789D01*
X143439139Y-82838650D01*
X143202971Y-82865928D01*
X143052472Y-82928266D01*
X143027615Y-83119826D01*
X142766189Y-83119826D01*
X142897013Y-82989002D01*
X142927987Y-82914224D01*
X143292211Y-82550000D01*
X143727789Y-82550000D01*
X144210174Y-83032385D01*
X144401734Y-83007528D01*
X144508942Y-82631449D01*
X144464072Y-82242971D01*
X144401734Y-82092472D01*
X144210174Y-82067615D01*
X143727789Y-82550000D01*
X143292211Y-82550000D01*
X142927987Y-82185776D01*
X142897013Y-82110998D01*
X142701015Y-81915000D01*
X142875000Y-81741015D01*
X143070998Y-81937013D01*
X143145776Y-81967987D01*
X143510000Y-82332211D01*
X143874224Y-81967987D01*
X143949002Y-81937013D01*
X144167013Y-81719002D01*
X144285000Y-81434157D01*
X144285000Y-81125843D01*
X144167013Y-80840998D01*
X143949002Y-80622987D01*
X143874224Y-80592013D01*
X143510000Y-80227789D01*
X143145776Y-80592013D01*
X143070998Y-80622987D01*
X142875000Y-80818985D01*
X142701015Y-80645000D01*
X142897013Y-80449002D01*
X142927987Y-80374224D01*
X143292211Y-80010000D01*
X143727789Y-80010000D01*
X144210174Y-80492385D01*
X144401734Y-80467528D01*
X144508942Y-80091449D01*
X144464072Y-79702971D01*
X144401734Y-79552472D01*
X144210174Y-79527615D01*
X143727789Y-80010000D01*
X143292211Y-80010000D01*
X142927987Y-79645776D01*
X142897013Y-79570998D01*
X142679002Y-79352987D01*
X142574803Y-79309826D01*
X143027615Y-79309826D01*
X143510000Y-79792211D01*
X143992385Y-79309826D01*
X143967528Y-79118266D01*
X143591449Y-79011058D01*
X143202971Y-79055928D01*
X143052472Y-79118266D01*
X143027615Y-79309826D01*
X142574803Y-79309826D01*
X142394157Y-79235000D01*
X142085843Y-79235000D01*
X141800998Y-79352987D01*
X141743985Y-79410000D01*
X139400000Y-79410000D01*
X139400000Y-73777999D01*
X139406072Y-73776791D01*
X139538384Y-73688384D01*
X139626791Y-73556072D01*
X139657836Y-73400000D01*
X139657836Y-73006000D01*
X142742000Y-73006000D01*
X142742000Y-73520938D01*
X142834562Y-73744404D01*
X143005595Y-73915437D01*
X143229061Y-74008000D01*
X143494000Y-74008000D01*
X143646000Y-73856000D01*
X143646000Y-72854000D01*
X143954000Y-72854000D01*
X143954000Y-73856000D01*
X144106000Y-74008000D01*
X144370939Y-74008000D01*
X144594405Y-73915437D01*
X144765438Y-73744404D01*
X144858000Y-73520938D01*
X144858000Y-73006000D01*
X144706000Y-72854000D01*
X143954000Y-72854000D01*
X143646000Y-72854000D01*
X142894000Y-72854000D01*
X142742000Y-73006000D01*
X139657836Y-73006000D01*
X139657836Y-72000000D01*
X139633780Y-71879062D01*
X142742000Y-71879062D01*
X142742000Y-72394000D01*
X142894000Y-72546000D01*
X143646000Y-72546000D01*
X143646000Y-71544000D01*
X143954000Y-71544000D01*
X143954000Y-72546000D01*
X144706000Y-72546000D01*
X144858000Y-72394000D01*
X144858000Y-71879062D01*
X144765438Y-71655596D01*
X144594405Y-71484563D01*
X144370939Y-71392000D01*
X144106000Y-71392000D01*
X143954000Y-71544000D01*
X143646000Y-71544000D01*
X143494000Y-71392000D01*
X143229061Y-71392000D01*
X143005595Y-71484563D01*
X142834562Y-71655596D01*
X142742000Y-71879062D01*
X139633780Y-71879062D01*
X139626791Y-71843928D01*
X139538384Y-71711616D01*
X139406072Y-71623209D01*
X139250000Y-71592164D01*
X138350000Y-71592164D01*
X138193928Y-71623209D01*
X138061616Y-71711616D01*
X137973209Y-71843928D01*
X137942164Y-72000000D01*
X137942164Y-73400000D01*
X137973209Y-73556072D01*
X138061616Y-73688384D01*
X138193928Y-73776791D01*
X138200001Y-73777999D01*
X138200001Y-74040905D01*
X138200000Y-74040910D01*
X138200001Y-79940905D01*
X138200000Y-79940910D01*
X138200000Y-79940914D01*
X138188247Y-80000000D01*
X138200000Y-80059086D01*
X138200000Y-81471472D01*
X135670000Y-78941473D01*
X135670000Y-78531142D01*
X135510147Y-78145223D01*
X135214777Y-77849853D01*
X134828858Y-77690000D01*
X134411142Y-77690000D01*
X134025223Y-77849853D01*
X133729853Y-78145223D01*
X133570000Y-78531142D01*
X133325175Y-78531142D01*
X133313599Y-78388698D01*
X133200694Y-78116122D01*
X132980931Y-78056858D01*
X132297789Y-78740000D01*
X131862211Y-78740000D01*
X131179069Y-78056858D01*
X130959306Y-78116122D01*
X130805866Y-78592483D01*
X130775000Y-78592483D01*
X130775000Y-77839069D01*
X131396858Y-77839069D01*
X132080000Y-78522211D01*
X132763142Y-77839069D01*
X132703878Y-77619306D01*
X132227517Y-77465866D01*
X131728698Y-77506401D01*
X131456122Y-77619306D01*
X131396858Y-77839069D01*
X130775000Y-77839069D01*
X130775000Y-77100931D01*
X131396858Y-77100931D01*
X131456122Y-77320694D01*
X131932483Y-77474134D01*
X132431302Y-77433599D01*
X132703878Y-77320694D01*
X132763142Y-77100931D01*
X132080000Y-76417789D01*
X131396858Y-77100931D01*
X130775000Y-77100931D01*
X130775000Y-76052483D01*
X130805866Y-76052483D01*
X130846401Y-76551302D01*
X130959306Y-76823878D01*
X131179069Y-76883142D01*
X131862211Y-76200000D01*
X132297789Y-76200000D01*
X132980931Y-76883142D01*
X133200694Y-76823878D01*
X133354134Y-76347517D01*
X133325175Y-75991142D01*
X133570000Y-75991142D01*
X133570000Y-76408858D01*
X133729853Y-76794777D01*
X134025223Y-77090147D01*
X134411142Y-77250000D01*
X134828858Y-77250000D01*
X135214777Y-77090147D01*
X135510147Y-76794777D01*
X135670000Y-76408858D01*
X135670000Y-75991142D01*
X135510147Y-75605223D01*
X135214777Y-75309853D01*
X134828858Y-75150000D01*
X134411142Y-75150000D01*
X134025223Y-75309853D01*
X133729853Y-75605223D01*
X133570000Y-75991142D01*
X133325175Y-75991142D01*
X133313599Y-75848698D01*
X133200694Y-75576122D01*
X132980931Y-75516858D01*
X132297789Y-76200000D01*
X131862211Y-76200000D01*
X131179069Y-75516858D01*
X130959306Y-75576122D01*
X130805866Y-76052483D01*
X130775000Y-76052483D01*
X130775000Y-75299069D01*
X131396858Y-75299069D01*
X132080000Y-75982211D01*
X132763142Y-75299069D01*
X132703878Y-75079306D01*
X132227517Y-74925866D01*
X131728698Y-74966401D01*
X131456122Y-75079306D01*
X131396858Y-75299069D01*
X130775000Y-75299069D01*
X130775000Y-74560931D01*
X131396858Y-74560931D01*
X131456122Y-74780694D01*
X131932483Y-74934134D01*
X132431302Y-74893599D01*
X132703878Y-74780694D01*
X132763142Y-74560931D01*
X132080000Y-73877789D01*
X131396858Y-74560931D01*
X130775000Y-74560931D01*
X130775000Y-73512483D01*
X130805866Y-73512483D01*
X130846401Y-74011302D01*
X130959306Y-74283878D01*
X131179069Y-74343142D01*
X131862211Y-73660000D01*
X132297789Y-73660000D01*
X132980931Y-74343142D01*
X133200694Y-74283878D01*
X133354134Y-73807517D01*
X133325175Y-73451142D01*
X133570000Y-73451142D01*
X133570000Y-73868858D01*
X133729853Y-74254777D01*
X134025223Y-74550147D01*
X134411142Y-74710000D01*
X134828858Y-74710000D01*
X135214777Y-74550147D01*
X135510147Y-74254777D01*
X135670000Y-73868858D01*
X135670000Y-73451142D01*
X135510147Y-73065223D01*
X135214777Y-72769853D01*
X134828858Y-72610000D01*
X134411142Y-72610000D01*
X134025223Y-72769853D01*
X133729853Y-73065223D01*
X133570000Y-73451142D01*
X133325175Y-73451142D01*
X133313599Y-73308698D01*
X133200694Y-73036122D01*
X132980931Y-72976858D01*
X132297789Y-73660000D01*
X131862211Y-73660000D01*
X131179069Y-72976858D01*
X130959306Y-73036122D01*
X130805866Y-73512483D01*
X130775000Y-73512483D01*
X130775000Y-72759069D01*
X131396858Y-72759069D01*
X132080000Y-73442211D01*
X132763142Y-72759069D01*
X132703878Y-72539306D01*
X132227517Y-72385866D01*
X131728698Y-72426401D01*
X131456122Y-72539306D01*
X131396858Y-72759069D01*
X130775000Y-72759069D01*
X130775000Y-70470000D01*
X131022164Y-70470000D01*
X131022164Y-71770000D01*
X131053209Y-71926072D01*
X131141616Y-72058384D01*
X131273928Y-72146791D01*
X131430000Y-72177836D01*
X132730000Y-72177836D01*
X132886072Y-72146791D01*
X133018384Y-72058384D01*
X133106791Y-71926072D01*
X133137836Y-71770000D01*
X133137836Y-70911142D01*
X133570000Y-70911142D01*
X133570000Y-71328858D01*
X133729853Y-71714777D01*
X134025223Y-72010147D01*
X134411142Y-72170000D01*
X134828858Y-72170000D01*
X135214777Y-72010147D01*
X135510147Y-71714777D01*
X135670000Y-71328858D01*
X135670000Y-70911142D01*
X135510147Y-70525223D01*
X135214777Y-70229853D01*
X134828858Y-70070000D01*
X134411142Y-70070000D01*
X134025223Y-70229853D01*
X133729853Y-70525223D01*
X133570000Y-70911142D01*
X133137836Y-70911142D01*
X133137836Y-70470000D01*
X133106791Y-70313928D01*
X133018384Y-70181616D01*
X132886072Y-70093209D01*
X132730000Y-70062164D01*
X131430000Y-70062164D01*
X131273928Y-70093209D01*
X131141616Y-70181616D01*
X131053209Y-70313928D01*
X131022164Y-70470000D01*
X130775000Y-70470000D01*
X130775000Y-69775000D01*
X145425001Y-69775000D01*
X145425000Y-90802673D01*
G04 #@! TD*
M02*
