G04 #@! TF.GenerationSoftware,KiCad,Pcbnew,5.0.1-33cea8e~68~ubuntu18.04.1*
G04 #@! TF.CreationDate,2018-11-10T11:43:34+01:00*
G04 #@! TF.ProjectId,MCP1702_SOT89_breakoutmodule,4D4350313730325F534F5438395F6272,rev?*
G04 #@! TF.SameCoordinates,Original*
G04 #@! TF.FileFunction,Legend,Top*
G04 #@! TF.FilePolarity,Positive*
%FSLAX46Y46*%
G04 Gerber Fmt 4.6, Leading zero omitted, Abs format (unit mm)*
G04 Created by KiCad (PCBNEW 5.0.1-33cea8e~68~ubuntu18.04.1) date za 10 nov 2018 11:43:34 CET*
%MOMM*%
%LPD*%
G01*
G04 APERTURE LIST*
%ADD10C,0.300000*%
%ADD11C,0.150000*%
%ADD12C,0.152400*%
%ADD13C,0.120000*%
G04 APERTURE END LIST*
D10*
X140778571Y-88642857D02*
X142278571Y-88142857D01*
X140778571Y-87642857D01*
X140778571Y-86857142D02*
X140778571Y-86571428D01*
X140850000Y-86428571D01*
X140992857Y-86285714D01*
X141278571Y-86214285D01*
X141778571Y-86214285D01*
X142064285Y-86285714D01*
X142207142Y-86428571D01*
X142278571Y-86571428D01*
X142278571Y-86857142D01*
X142207142Y-87000000D01*
X142064285Y-87142857D01*
X141778571Y-87214285D01*
X141278571Y-87214285D01*
X140992857Y-87142857D01*
X140850000Y-87000000D01*
X140778571Y-86857142D01*
X140778571Y-85571428D02*
X141992857Y-85571428D01*
X142135714Y-85500000D01*
X142207142Y-85428571D01*
X142278571Y-85285714D01*
X142278571Y-85000000D01*
X142207142Y-84857142D01*
X142135714Y-84785714D01*
X141992857Y-84714285D01*
X140778571Y-84714285D01*
X140778571Y-84214285D02*
X140778571Y-83357142D01*
X142278571Y-83785714D02*
X140778571Y-83785714D01*
X130978571Y-71200000D02*
X130978571Y-72057142D01*
X130978571Y-71628571D02*
X129478571Y-71628571D01*
X129692857Y-71771428D01*
X129835714Y-71914285D01*
X129907142Y-72057142D01*
X129478571Y-70700000D02*
X129478571Y-69771428D01*
X130050000Y-70271428D01*
X130050000Y-70057142D01*
X130121428Y-69914285D01*
X130192857Y-69842857D01*
X130335714Y-69771428D01*
X130692857Y-69771428D01*
X130835714Y-69842857D01*
X130907142Y-69914285D01*
X130978571Y-70057142D01*
X130978571Y-70485714D01*
X130907142Y-70628571D01*
X130835714Y-70700000D01*
X130835714Y-69128571D02*
X130907142Y-69057142D01*
X130978571Y-69128571D01*
X130907142Y-69200000D01*
X130835714Y-69128571D01*
X130978571Y-69128571D01*
X129621428Y-68485714D02*
X129550000Y-68414285D01*
X129478571Y-68271428D01*
X129478571Y-67914285D01*
X129550000Y-67771428D01*
X129621428Y-67700000D01*
X129764285Y-67628571D01*
X129907142Y-67628571D01*
X130121428Y-67700000D01*
X130978571Y-68557142D01*
X130978571Y-67628571D01*
X129478571Y-67200000D02*
X130978571Y-66700000D01*
X129478571Y-66200000D01*
X140783571Y-70857857D02*
X142283571Y-70357857D01*
X140783571Y-69857857D01*
X142283571Y-69357857D02*
X140783571Y-69357857D01*
X142283571Y-68643571D02*
X140783571Y-68643571D01*
X142283571Y-67786428D01*
X140783571Y-67786428D01*
D11*
G04 #@! TO.C,C1*
X135400000Y-74750000D02*
X136400000Y-74750000D01*
X136400000Y-73050000D02*
X135400000Y-73050000D01*
G04 #@! TO.C,C2*
X135400000Y-81850000D02*
X136400000Y-81850000D01*
X136400000Y-80150000D02*
X135400000Y-80150000D01*
D12*
G04 #@! TO.C,J1*
X131445000Y-77470000D02*
X132080000Y-78105000D01*
X132080000Y-78105000D02*
X132080000Y-79375000D01*
X132080000Y-79375000D02*
X131445000Y-80010000D01*
X131445000Y-80010000D02*
X130175000Y-80010000D01*
X130175000Y-80010000D02*
X129540000Y-79375000D01*
X129540000Y-79375000D02*
X129540000Y-78105000D01*
X129540000Y-78105000D02*
X130175000Y-77470000D01*
X132080000Y-73025000D02*
X132080000Y-74295000D01*
X132080000Y-74295000D02*
X131445000Y-74930000D01*
X131445000Y-74930000D02*
X130175000Y-74930000D01*
X130175000Y-74930000D02*
X129540000Y-74295000D01*
X131445000Y-74930000D02*
X132080000Y-75565000D01*
X132080000Y-75565000D02*
X132080000Y-76835000D01*
X132080000Y-76835000D02*
X131445000Y-77470000D01*
X131445000Y-77470000D02*
X130175000Y-77470000D01*
X130175000Y-77470000D02*
X129540000Y-76835000D01*
X129540000Y-76835000D02*
X129540000Y-75565000D01*
X129540000Y-75565000D02*
X130175000Y-74930000D01*
X131445000Y-72390000D02*
X130175000Y-72390000D01*
X132080000Y-73025000D02*
X131445000Y-72390000D01*
X130175000Y-72390000D02*
X129540000Y-73025000D01*
X129540000Y-74295000D02*
X129540000Y-73025000D01*
X132080000Y-80645000D02*
X132080000Y-81915000D01*
X132080000Y-81915000D02*
X131445000Y-82550000D01*
X131445000Y-82550000D02*
X130175000Y-82550000D01*
X130175000Y-82550000D02*
X129540000Y-81915000D01*
X132080000Y-80645000D02*
X131445000Y-80010000D01*
X130175000Y-80010000D02*
X129540000Y-80645000D01*
X129540000Y-81915000D02*
X129540000Y-80645000D01*
D13*
G04 #@! TO.C,J2*
X138125000Y-88435000D02*
X138125000Y-87985000D01*
X133655000Y-88435000D02*
X138125000Y-88435000D01*
X133655000Y-87985000D02*
X133655000Y-88435000D01*
X138125000Y-84015000D02*
X137175000Y-84015000D01*
X138125000Y-84465000D02*
X138125000Y-84015000D01*
X134605000Y-84015000D02*
X134605000Y-82525000D01*
X133655000Y-84015000D02*
X134605000Y-84015000D01*
X133655000Y-84465000D02*
X133655000Y-84015000D01*
G04 #@! TO.C,J3*
X138125000Y-70475000D02*
X138125000Y-70925000D01*
X138125000Y-70925000D02*
X137175000Y-70925000D01*
X137175000Y-70925000D02*
X137175000Y-72415000D01*
X133655000Y-70475000D02*
X133655000Y-70925000D01*
X133655000Y-70925000D02*
X134605000Y-70925000D01*
X138125000Y-66955000D02*
X138125000Y-66505000D01*
X138125000Y-66505000D02*
X133655000Y-66505000D01*
X133655000Y-66505000D02*
X133655000Y-66955000D01*
D12*
G04 #@! TO.C,J4*
X142240000Y-73025000D02*
X142240000Y-74295000D01*
X141605000Y-74930000D02*
X142240000Y-74295000D01*
X139700000Y-74295000D02*
X140335000Y-74930000D01*
X141605000Y-72390000D02*
X142240000Y-73025000D01*
X140335000Y-72390000D02*
X141605000Y-72390000D01*
X139700000Y-73025000D02*
X140335000Y-72390000D01*
X139700000Y-74295000D02*
X139700000Y-73025000D01*
X142240000Y-80645000D02*
X142240000Y-81915000D01*
X141605000Y-82550000D02*
X142240000Y-81915000D01*
X139700000Y-81915000D02*
X140335000Y-82550000D01*
X140335000Y-82550000D02*
X141605000Y-82550000D01*
X142240000Y-79375000D02*
X141605000Y-80010000D01*
X142240000Y-78105000D02*
X142240000Y-79375000D01*
X141605000Y-77470000D02*
X142240000Y-78105000D01*
X140335000Y-77470000D02*
X141605000Y-77470000D01*
X139700000Y-78105000D02*
X140335000Y-77470000D01*
X139700000Y-79375000D02*
X139700000Y-78105000D01*
X140335000Y-80010000D02*
X139700000Y-79375000D01*
X141605000Y-80010000D02*
X142240000Y-80645000D01*
X140335000Y-80010000D02*
X141605000Y-80010000D01*
X139700000Y-80645000D02*
X140335000Y-80010000D01*
X139700000Y-81915000D02*
X139700000Y-80645000D01*
X142240000Y-76835000D02*
X141605000Y-77470000D01*
X142240000Y-75565000D02*
X142240000Y-76835000D01*
X141605000Y-74930000D02*
X142240000Y-75565000D01*
X140335000Y-74930000D02*
X141605000Y-74930000D01*
X139700000Y-75565000D02*
X140335000Y-74930000D01*
X139700000Y-76835000D02*
X139700000Y-75565000D01*
X140335000Y-77470000D02*
X139700000Y-76835000D01*
D11*
G04 #@! TO.C,U1*
X133900000Y-78800000D02*
X133900000Y-77100000D01*
X134900000Y-78800000D02*
X133900000Y-78800000D01*
X137900000Y-78800000D02*
X136900000Y-78800000D01*
X137900000Y-77100000D02*
X137900000Y-78800000D01*
G04 #@! TO.C,C1*
X138533333Y-72157142D02*
X138485714Y-72204761D01*
X138342857Y-72252380D01*
X138247619Y-72252380D01*
X138104761Y-72204761D01*
X138009523Y-72109523D01*
X137961904Y-72014285D01*
X137914285Y-71823809D01*
X137914285Y-71680952D01*
X137961904Y-71490476D01*
X138009523Y-71395238D01*
X138104761Y-71300000D01*
X138247619Y-71252380D01*
X138342857Y-71252380D01*
X138485714Y-71300000D01*
X138533333Y-71347619D01*
X139485714Y-72252380D02*
X138914285Y-72252380D01*
X139200000Y-72252380D02*
X139200000Y-71252380D01*
X139104761Y-71395238D01*
X139009523Y-71490476D01*
X138914285Y-71538095D01*
G04 #@! TO.C,C2*
X132933333Y-81357142D02*
X132885714Y-81404761D01*
X132742857Y-81452380D01*
X132647619Y-81452380D01*
X132504761Y-81404761D01*
X132409523Y-81309523D01*
X132361904Y-81214285D01*
X132314285Y-81023809D01*
X132314285Y-80880952D01*
X132361904Y-80690476D01*
X132409523Y-80595238D01*
X132504761Y-80500000D01*
X132647619Y-80452380D01*
X132742857Y-80452380D01*
X132885714Y-80500000D01*
X132933333Y-80547619D01*
X133314285Y-80547619D02*
X133361904Y-80500000D01*
X133457142Y-80452380D01*
X133695238Y-80452380D01*
X133790476Y-80500000D01*
X133838095Y-80547619D01*
X133885714Y-80642857D01*
X133885714Y-80738095D01*
X133838095Y-80880952D01*
X133266666Y-81452380D01*
X133885714Y-81452380D01*
G04 #@! TO.C,J1*
X132262380Y-77803333D02*
X132976666Y-77803333D01*
X133119523Y-77850952D01*
X133214761Y-77946190D01*
X133262380Y-78089047D01*
X133262380Y-78184285D01*
X133262380Y-76803333D02*
X133262380Y-77374761D01*
X133262380Y-77089047D02*
X132262380Y-77089047D01*
X132405238Y-77184285D01*
X132500476Y-77279523D01*
X132548095Y-77374761D01*
G04 #@! TO.C,J2*
X132366666Y-82752380D02*
X132366666Y-83466666D01*
X132319047Y-83609523D01*
X132223809Y-83704761D01*
X132080952Y-83752380D01*
X131985714Y-83752380D01*
X132795238Y-82847619D02*
X132842857Y-82800000D01*
X132938095Y-82752380D01*
X133176190Y-82752380D01*
X133271428Y-82800000D01*
X133319047Y-82847619D01*
X133366666Y-82942857D01*
X133366666Y-83038095D01*
X133319047Y-83180952D01*
X132747619Y-83752380D01*
X133366666Y-83752380D01*
G04 #@! TO.C,J3*
X132166666Y-71052380D02*
X132166666Y-71766666D01*
X132119047Y-71909523D01*
X132023809Y-72004761D01*
X131880952Y-72052380D01*
X131785714Y-72052380D01*
X132547619Y-71052380D02*
X133166666Y-71052380D01*
X132833333Y-71433333D01*
X132976190Y-71433333D01*
X133071428Y-71480952D01*
X133119047Y-71528571D01*
X133166666Y-71623809D01*
X133166666Y-71861904D01*
X133119047Y-71957142D01*
X133071428Y-72004761D01*
X132976190Y-72052380D01*
X132690476Y-72052380D01*
X132595238Y-72004761D01*
X132547619Y-71957142D01*
G04 #@! TO.C,J4*
X138422380Y-77803333D02*
X139136666Y-77803333D01*
X139279523Y-77850952D01*
X139374761Y-77946190D01*
X139422380Y-78089047D01*
X139422380Y-78184285D01*
X138755714Y-76898571D02*
X139422380Y-76898571D01*
X138374761Y-77136666D02*
X139089047Y-77374761D01*
X139089047Y-76755714D01*
G04 #@! TO.C,U1*
X138138095Y-79052380D02*
X138138095Y-79861904D01*
X138185714Y-79957142D01*
X138233333Y-80004761D01*
X138328571Y-80052380D01*
X138519047Y-80052380D01*
X138614285Y-80004761D01*
X138661904Y-79957142D01*
X138709523Y-79861904D01*
X138709523Y-79052380D01*
X139709523Y-80052380D02*
X139138095Y-80052380D01*
X139423809Y-80052380D02*
X139423809Y-79052380D01*
X139328571Y-79195238D01*
X139233333Y-79290476D01*
X139138095Y-79338095D01*
G04 #@! TD*
M02*
