G04 #@! TF.GenerationSoftware,KiCad,Pcbnew,5.0.1-33cea8e~68~ubuntu18.04.1*
G04 #@! TF.CreationDate,2018-11-22T22:55:41+01:00*
G04 #@! TF.ProjectId,jtag_20pin_to_10pin,6A7461675F323070696E5F746F5F3130,rev?*
G04 #@! TF.SameCoordinates,Original*
G04 #@! TF.FileFunction,Legend,Top*
G04 #@! TF.FilePolarity,Positive*
%FSLAX46Y46*%
G04 Gerber Fmt 4.6, Leading zero omitted, Abs format (unit mm)*
G04 Created by KiCad (PCBNEW 5.0.1-33cea8e~68~ubuntu18.04.1) date do 22 nov 2018 22:55:41 CET*
%MOMM*%
%LPD*%
G01*
G04 APERTURE LIST*
%ADD10C,0.150000*%
%ADD11C,0.010000*%
G04 APERTURE END LIST*
D10*
X140061904Y-70852380D02*
X139728571Y-70376190D01*
X139490476Y-70852380D02*
X139490476Y-69852380D01*
X139871428Y-69852380D01*
X139966666Y-69900000D01*
X140014285Y-69947619D01*
X140061904Y-70042857D01*
X140061904Y-70185714D01*
X140014285Y-70280952D01*
X139966666Y-70328571D01*
X139871428Y-70376190D01*
X139490476Y-70376190D01*
X140871428Y-70804761D02*
X140776190Y-70852380D01*
X140585714Y-70852380D01*
X140490476Y-70804761D01*
X140442857Y-70709523D01*
X140442857Y-70328571D01*
X140490476Y-70233333D01*
X140585714Y-70185714D01*
X140776190Y-70185714D01*
X140871428Y-70233333D01*
X140919047Y-70328571D01*
X140919047Y-70423809D01*
X140442857Y-70519047D01*
X141300000Y-70804761D02*
X141395238Y-70852380D01*
X141585714Y-70852380D01*
X141680952Y-70804761D01*
X141728571Y-70709523D01*
X141728571Y-70661904D01*
X141680952Y-70566666D01*
X141585714Y-70519047D01*
X141442857Y-70519047D01*
X141347619Y-70471428D01*
X141300000Y-70376190D01*
X141300000Y-70328571D01*
X141347619Y-70233333D01*
X141442857Y-70185714D01*
X141585714Y-70185714D01*
X141680952Y-70233333D01*
X142538095Y-70804761D02*
X142442857Y-70852380D01*
X142252380Y-70852380D01*
X142157142Y-70804761D01*
X142109523Y-70709523D01*
X142109523Y-70328571D01*
X142157142Y-70233333D01*
X142252380Y-70185714D01*
X142442857Y-70185714D01*
X142538095Y-70233333D01*
X142585714Y-70328571D01*
X142585714Y-70423809D01*
X142109523Y-70519047D01*
X142871428Y-70185714D02*
X143252380Y-70185714D01*
X143014285Y-69852380D02*
X143014285Y-70709523D01*
X143061904Y-70804761D01*
X143157142Y-70852380D01*
X143252380Y-70852380D01*
X136190476Y-85852380D02*
X136761904Y-85852380D01*
X136476190Y-86852380D02*
X136476190Y-85852380D01*
X137095238Y-86852380D02*
X137095238Y-85852380D01*
X137333333Y-85852380D01*
X137476190Y-85900000D01*
X137571428Y-85995238D01*
X137619047Y-86090476D01*
X137666666Y-86280952D01*
X137666666Y-86423809D01*
X137619047Y-86614285D01*
X137571428Y-86709523D01*
X137476190Y-86804761D01*
X137333333Y-86852380D01*
X137095238Y-86852380D01*
X138285714Y-85852380D02*
X138476190Y-85852380D01*
X138571428Y-85900000D01*
X138666666Y-85995238D01*
X138714285Y-86185714D01*
X138714285Y-86519047D01*
X138666666Y-86709523D01*
X138571428Y-86804761D01*
X138476190Y-86852380D01*
X138285714Y-86852380D01*
X138190476Y-86804761D01*
X138095238Y-86709523D01*
X138047619Y-86519047D01*
X138047619Y-86185714D01*
X138095238Y-85995238D01*
X138190476Y-85900000D01*
X138285714Y-85852380D01*
X136164285Y-80752380D02*
X136735714Y-80752380D01*
X136450000Y-81752380D02*
X136450000Y-80752380D01*
X137640476Y-81657142D02*
X137592857Y-81704761D01*
X137450000Y-81752380D01*
X137354761Y-81752380D01*
X137211904Y-81704761D01*
X137116666Y-81609523D01*
X137069047Y-81514285D01*
X137021428Y-81323809D01*
X137021428Y-81180952D01*
X137069047Y-80990476D01*
X137116666Y-80895238D01*
X137211904Y-80800000D01*
X137354761Y-80752380D01*
X137450000Y-80752380D01*
X137592857Y-80800000D01*
X137640476Y-80847619D01*
X138069047Y-81752380D02*
X138069047Y-80752380D01*
X138640476Y-81752380D02*
X138211904Y-81180952D01*
X138640476Y-80752380D02*
X138069047Y-81323809D01*
X136166666Y-78152380D02*
X136738095Y-78152380D01*
X136452380Y-79152380D02*
X136452380Y-78152380D01*
X137071428Y-79152380D02*
X137071428Y-78152380D01*
X137404761Y-78866666D01*
X137738095Y-78152380D01*
X137738095Y-79152380D01*
X138166666Y-79104761D02*
X138309523Y-79152380D01*
X138547619Y-79152380D01*
X138642857Y-79104761D01*
X138690476Y-79057142D01*
X138738095Y-78961904D01*
X138738095Y-78866666D01*
X138690476Y-78771428D01*
X138642857Y-78723809D01*
X138547619Y-78676190D01*
X138357142Y-78628571D01*
X138261904Y-78580952D01*
X138214285Y-78533333D01*
X138166666Y-78438095D01*
X138166666Y-78342857D01*
X138214285Y-78247619D01*
X138261904Y-78200000D01*
X138357142Y-78152380D01*
X138595238Y-78152380D01*
X138738095Y-78200000D01*
X136176190Y-75652380D02*
X136747619Y-75652380D01*
X136461904Y-76652380D02*
X136461904Y-75652380D01*
X137080952Y-76652380D02*
X137080952Y-75652380D01*
X137319047Y-75652380D01*
X137461904Y-75700000D01*
X137557142Y-75795238D01*
X137604761Y-75890476D01*
X137652380Y-76080952D01*
X137652380Y-76223809D01*
X137604761Y-76414285D01*
X137557142Y-76509523D01*
X137461904Y-76604761D01*
X137319047Y-76652380D01*
X137080952Y-76652380D01*
X138080952Y-76652380D02*
X138080952Y-75652380D01*
D11*
G04 #@! TO.C,N1*
G36*
X136568931Y-91344186D02*
X137013555Y-91260365D01*
X137141053Y-90951080D01*
X137268551Y-90641794D01*
X137016246Y-90270754D01*
X136945996Y-90166843D01*
X136883272Y-90072913D01*
X136830938Y-89993348D01*
X136791857Y-89932530D01*
X136768893Y-89894843D01*
X136763942Y-89884579D01*
X136776676Y-89866090D01*
X136811882Y-89826580D01*
X136865062Y-89770478D01*
X136931718Y-89702213D01*
X137007354Y-89626214D01*
X137087472Y-89546908D01*
X137167574Y-89468725D01*
X137243164Y-89396093D01*
X137309745Y-89333441D01*
X137362818Y-89285197D01*
X137397887Y-89255790D01*
X137409623Y-89248759D01*
X137431260Y-89258877D01*
X137478662Y-89287241D01*
X137547193Y-89330871D01*
X137632215Y-89386782D01*
X137729093Y-89451994D01*
X137784350Y-89489781D01*
X137885248Y-89558657D01*
X137976299Y-89619860D01*
X138052970Y-89670422D01*
X138110728Y-89707372D01*
X138145043Y-89727742D01*
X138152254Y-89730803D01*
X138172748Y-89723864D01*
X138220513Y-89704949D01*
X138288832Y-89676913D01*
X138370989Y-89642609D01*
X138460270Y-89604891D01*
X138549958Y-89566613D01*
X138633338Y-89530630D01*
X138703694Y-89499794D01*
X138754310Y-89476961D01*
X138778471Y-89464983D01*
X138779422Y-89464276D01*
X138784036Y-89445469D01*
X138794328Y-89395382D01*
X138809287Y-89319207D01*
X138827901Y-89222135D01*
X138849159Y-89109357D01*
X138861418Y-89043558D01*
X138884362Y-88923050D01*
X138906195Y-88814203D01*
X138925722Y-88722524D01*
X138941748Y-88653519D01*
X138953079Y-88612696D01*
X138956674Y-88604489D01*
X138981006Y-88596452D01*
X139035959Y-88589967D01*
X139115108Y-88585030D01*
X139212026Y-88581636D01*
X139320287Y-88579782D01*
X139433465Y-88579462D01*
X139545135Y-88580673D01*
X139648868Y-88583410D01*
X139738241Y-88587669D01*
X139806826Y-88593445D01*
X139848197Y-88600733D01*
X139856810Y-88605105D01*
X139867133Y-88631236D01*
X139881892Y-88686607D01*
X139899352Y-88763893D01*
X139917780Y-88855770D01*
X139923741Y-88887842D01*
X139952066Y-89042476D01*
X139974876Y-89164625D01*
X139993080Y-89258327D01*
X140007583Y-89327616D01*
X140019292Y-89376529D01*
X140029115Y-89409103D01*
X140037956Y-89429372D01*
X140046724Y-89441374D01*
X140048457Y-89443053D01*
X140076371Y-89459816D01*
X140130695Y-89485386D01*
X140204777Y-89517212D01*
X140291965Y-89552740D01*
X140385608Y-89589417D01*
X140479052Y-89624689D01*
X140565647Y-89656004D01*
X140638740Y-89680807D01*
X140691678Y-89696546D01*
X140717811Y-89700668D01*
X140718726Y-89700324D01*
X140740086Y-89686359D01*
X140787084Y-89654678D01*
X140854827Y-89608609D01*
X140938423Y-89551482D01*
X141032982Y-89486627D01*
X141059854Y-89468157D01*
X141157275Y-89402301D01*
X141246163Y-89344350D01*
X141321412Y-89297462D01*
X141377920Y-89264793D01*
X141410581Y-89249500D01*
X141414593Y-89248759D01*
X141435684Y-89261608D01*
X141477464Y-89297112D01*
X141535445Y-89350707D01*
X141605135Y-89417829D01*
X141682045Y-89493913D01*
X141761683Y-89574396D01*
X141839561Y-89654713D01*
X141911186Y-89730301D01*
X141972070Y-89796595D01*
X142017721Y-89849031D01*
X142043650Y-89883045D01*
X142047883Y-89892455D01*
X142037912Y-89914357D01*
X142011020Y-89959200D01*
X141971736Y-90019679D01*
X141940117Y-90066211D01*
X141882098Y-90150525D01*
X141813784Y-90250374D01*
X141745579Y-90350527D01*
X141709075Y-90404373D01*
X141585800Y-90586629D01*
X141668520Y-90739619D01*
X141704759Y-90809318D01*
X141732926Y-90868586D01*
X141748991Y-90908689D01*
X141751226Y-90918897D01*
X141734722Y-90931171D01*
X141688082Y-90955387D01*
X141615609Y-90989737D01*
X141521606Y-91032412D01*
X141410374Y-91081606D01*
X141286215Y-91135510D01*
X141153432Y-91192316D01*
X141016327Y-91250218D01*
X140879202Y-91307407D01*
X140746358Y-91362076D01*
X140622098Y-91412416D01*
X140510725Y-91456620D01*
X140416539Y-91492881D01*
X140343844Y-91519391D01*
X140296941Y-91534342D01*
X140280833Y-91536746D01*
X140260286Y-91517689D01*
X140226933Y-91475964D01*
X140187702Y-91420294D01*
X140184599Y-91415622D01*
X140069423Y-91271736D01*
X139935053Y-91155717D01*
X139785784Y-91068570D01*
X139625913Y-91011301D01*
X139459737Y-90984914D01*
X139291552Y-90990415D01*
X139125655Y-91028810D01*
X138966342Y-91101105D01*
X138931487Y-91122374D01*
X138790737Y-91233004D01*
X138677714Y-91363698D01*
X138593003Y-91509936D01*
X138537194Y-91667192D01*
X138510874Y-91830943D01*
X138514630Y-91996667D01*
X138549050Y-92159838D01*
X138614723Y-92315935D01*
X138712235Y-92460433D01*
X138751813Y-92505131D01*
X138875703Y-92618888D01*
X139006124Y-92701782D01*
X139152315Y-92758644D01*
X139297088Y-92790313D01*
X139459860Y-92798131D01*
X139623440Y-92772062D01*
X139782298Y-92714755D01*
X139930906Y-92628856D01*
X140063735Y-92517014D01*
X140175256Y-92381877D01*
X140187011Y-92364117D01*
X140225508Y-92307850D01*
X140258863Y-92265077D01*
X140280160Y-92244628D01*
X140280833Y-92244331D01*
X140303871Y-92248721D01*
X140356157Y-92266124D01*
X140433390Y-92294732D01*
X140531268Y-92332735D01*
X140645491Y-92378326D01*
X140771758Y-92429697D01*
X140905767Y-92485038D01*
X141043218Y-92542542D01*
X141179808Y-92600399D01*
X141311237Y-92656802D01*
X141433205Y-92709942D01*
X141541409Y-92758010D01*
X141631549Y-92799199D01*
X141699323Y-92831699D01*
X141740430Y-92853703D01*
X141751226Y-92862564D01*
X141742819Y-92889640D01*
X141720272Y-92940303D01*
X141687613Y-93005817D01*
X141668520Y-93041841D01*
X141585800Y-93194832D01*
X141709075Y-93377088D01*
X141772228Y-93470125D01*
X141841727Y-93571985D01*
X141907165Y-93667438D01*
X141940117Y-93715250D01*
X141985273Y-93782495D01*
X142021057Y-93839436D01*
X142042938Y-93878646D01*
X142047563Y-93891381D01*
X142035085Y-93909917D01*
X142000252Y-93950941D01*
X141946678Y-94010475D01*
X141877983Y-94084542D01*
X141797781Y-94169165D01*
X141746286Y-94222685D01*
X141654286Y-94316319D01*
X141571999Y-94397241D01*
X141502945Y-94462177D01*
X141450644Y-94507858D01*
X141418616Y-94531011D01*
X141412116Y-94533232D01*
X141387394Y-94522924D01*
X141337405Y-94494439D01*
X141267212Y-94450937D01*
X141181875Y-94395577D01*
X141086456Y-94331520D01*
X141059854Y-94313303D01*
X140963167Y-94246927D01*
X140876117Y-94187378D01*
X140803595Y-94137984D01*
X140750493Y-94102075D01*
X140721703Y-94082981D01*
X140718726Y-94081136D01*
X140695782Y-94083895D01*
X140645336Y-94098538D01*
X140574041Y-94122513D01*
X140488547Y-94153266D01*
X140395507Y-94188244D01*
X140301574Y-94224893D01*
X140213399Y-94260661D01*
X140137634Y-94292994D01*
X140080931Y-94319338D01*
X140049943Y-94337142D01*
X140048457Y-94338407D01*
X140039601Y-94349294D01*
X140030843Y-94367682D01*
X140021277Y-94397606D01*
X140009996Y-94443103D01*
X139996093Y-94508209D01*
X139978663Y-94596961D01*
X139956798Y-94713393D01*
X139929591Y-94861542D01*
X139923741Y-94893618D01*
X139905374Y-94988686D01*
X139887405Y-95071565D01*
X139871569Y-95134930D01*
X139859600Y-95171458D01*
X139856810Y-95176356D01*
X139832072Y-95184427D01*
X139776790Y-95190987D01*
X139697389Y-95196033D01*
X139600296Y-95199559D01*
X139491938Y-95201561D01*
X139378740Y-95202036D01*
X139267128Y-95200977D01*
X139163529Y-95198382D01*
X139074368Y-95194246D01*
X139006072Y-95188563D01*
X138965066Y-95181331D01*
X138956674Y-95176971D01*
X138948208Y-95152698D01*
X138934435Y-95097426D01*
X138916550Y-95016662D01*
X138895748Y-94915912D01*
X138873223Y-94800683D01*
X138861418Y-94737902D01*
X138839151Y-94618787D01*
X138818979Y-94512565D01*
X138801915Y-94424427D01*
X138788969Y-94359566D01*
X138781155Y-94323174D01*
X138779422Y-94317184D01*
X138759890Y-94307061D01*
X138712843Y-94285662D01*
X138645003Y-94255839D01*
X138563091Y-94220445D01*
X138473828Y-94182332D01*
X138383935Y-94144353D01*
X138300135Y-94109360D01*
X138229147Y-94080206D01*
X138177694Y-94059743D01*
X138152497Y-94050823D01*
X138151396Y-94050657D01*
X138131519Y-94060769D01*
X138085777Y-94089117D01*
X138018717Y-94132723D01*
X137934884Y-94188606D01*
X137838826Y-94253787D01*
X137783650Y-94291679D01*
X137682481Y-94360725D01*
X137590630Y-94422050D01*
X137512744Y-94472663D01*
X137453469Y-94509571D01*
X137417451Y-94529782D01*
X137409377Y-94532701D01*
X137390584Y-94520153D01*
X137350457Y-94485463D01*
X137293493Y-94433063D01*
X137224185Y-94367384D01*
X137147031Y-94292856D01*
X137066525Y-94213913D01*
X136987163Y-94134983D01*
X136913440Y-94060500D01*
X136849852Y-93994894D01*
X136800894Y-93942596D01*
X136771061Y-93908039D01*
X136763942Y-93896478D01*
X136773953Y-93877654D01*
X136802078Y-93832631D01*
X136845454Y-93765787D01*
X136901218Y-93681499D01*
X136966506Y-93584144D01*
X137016246Y-93510707D01*
X137268551Y-93139667D01*
X137013555Y-92521095D01*
X136568931Y-92437275D01*
X136124307Y-92353454D01*
X136124307Y-91428006D01*
X136568931Y-91344186D01*
X136568931Y-91344186D01*
G37*
X136568931Y-91344186D02*
X137013555Y-91260365D01*
X137141053Y-90951080D01*
X137268551Y-90641794D01*
X137016246Y-90270754D01*
X136945996Y-90166843D01*
X136883272Y-90072913D01*
X136830938Y-89993348D01*
X136791857Y-89932530D01*
X136768893Y-89894843D01*
X136763942Y-89884579D01*
X136776676Y-89866090D01*
X136811882Y-89826580D01*
X136865062Y-89770478D01*
X136931718Y-89702213D01*
X137007354Y-89626214D01*
X137087472Y-89546908D01*
X137167574Y-89468725D01*
X137243164Y-89396093D01*
X137309745Y-89333441D01*
X137362818Y-89285197D01*
X137397887Y-89255790D01*
X137409623Y-89248759D01*
X137431260Y-89258877D01*
X137478662Y-89287241D01*
X137547193Y-89330871D01*
X137632215Y-89386782D01*
X137729093Y-89451994D01*
X137784350Y-89489781D01*
X137885248Y-89558657D01*
X137976299Y-89619860D01*
X138052970Y-89670422D01*
X138110728Y-89707372D01*
X138145043Y-89727742D01*
X138152254Y-89730803D01*
X138172748Y-89723864D01*
X138220513Y-89704949D01*
X138288832Y-89676913D01*
X138370989Y-89642609D01*
X138460270Y-89604891D01*
X138549958Y-89566613D01*
X138633338Y-89530630D01*
X138703694Y-89499794D01*
X138754310Y-89476961D01*
X138778471Y-89464983D01*
X138779422Y-89464276D01*
X138784036Y-89445469D01*
X138794328Y-89395382D01*
X138809287Y-89319207D01*
X138827901Y-89222135D01*
X138849159Y-89109357D01*
X138861418Y-89043558D01*
X138884362Y-88923050D01*
X138906195Y-88814203D01*
X138925722Y-88722524D01*
X138941748Y-88653519D01*
X138953079Y-88612696D01*
X138956674Y-88604489D01*
X138981006Y-88596452D01*
X139035959Y-88589967D01*
X139115108Y-88585030D01*
X139212026Y-88581636D01*
X139320287Y-88579782D01*
X139433465Y-88579462D01*
X139545135Y-88580673D01*
X139648868Y-88583410D01*
X139738241Y-88587669D01*
X139806826Y-88593445D01*
X139848197Y-88600733D01*
X139856810Y-88605105D01*
X139867133Y-88631236D01*
X139881892Y-88686607D01*
X139899352Y-88763893D01*
X139917780Y-88855770D01*
X139923741Y-88887842D01*
X139952066Y-89042476D01*
X139974876Y-89164625D01*
X139993080Y-89258327D01*
X140007583Y-89327616D01*
X140019292Y-89376529D01*
X140029115Y-89409103D01*
X140037956Y-89429372D01*
X140046724Y-89441374D01*
X140048457Y-89443053D01*
X140076371Y-89459816D01*
X140130695Y-89485386D01*
X140204777Y-89517212D01*
X140291965Y-89552740D01*
X140385608Y-89589417D01*
X140479052Y-89624689D01*
X140565647Y-89656004D01*
X140638740Y-89680807D01*
X140691678Y-89696546D01*
X140717811Y-89700668D01*
X140718726Y-89700324D01*
X140740086Y-89686359D01*
X140787084Y-89654678D01*
X140854827Y-89608609D01*
X140938423Y-89551482D01*
X141032982Y-89486627D01*
X141059854Y-89468157D01*
X141157275Y-89402301D01*
X141246163Y-89344350D01*
X141321412Y-89297462D01*
X141377920Y-89264793D01*
X141410581Y-89249500D01*
X141414593Y-89248759D01*
X141435684Y-89261608D01*
X141477464Y-89297112D01*
X141535445Y-89350707D01*
X141605135Y-89417829D01*
X141682045Y-89493913D01*
X141761683Y-89574396D01*
X141839561Y-89654713D01*
X141911186Y-89730301D01*
X141972070Y-89796595D01*
X142017721Y-89849031D01*
X142043650Y-89883045D01*
X142047883Y-89892455D01*
X142037912Y-89914357D01*
X142011020Y-89959200D01*
X141971736Y-90019679D01*
X141940117Y-90066211D01*
X141882098Y-90150525D01*
X141813784Y-90250374D01*
X141745579Y-90350527D01*
X141709075Y-90404373D01*
X141585800Y-90586629D01*
X141668520Y-90739619D01*
X141704759Y-90809318D01*
X141732926Y-90868586D01*
X141748991Y-90908689D01*
X141751226Y-90918897D01*
X141734722Y-90931171D01*
X141688082Y-90955387D01*
X141615609Y-90989737D01*
X141521606Y-91032412D01*
X141410374Y-91081606D01*
X141286215Y-91135510D01*
X141153432Y-91192316D01*
X141016327Y-91250218D01*
X140879202Y-91307407D01*
X140746358Y-91362076D01*
X140622098Y-91412416D01*
X140510725Y-91456620D01*
X140416539Y-91492881D01*
X140343844Y-91519391D01*
X140296941Y-91534342D01*
X140280833Y-91536746D01*
X140260286Y-91517689D01*
X140226933Y-91475964D01*
X140187702Y-91420294D01*
X140184599Y-91415622D01*
X140069423Y-91271736D01*
X139935053Y-91155717D01*
X139785784Y-91068570D01*
X139625913Y-91011301D01*
X139459737Y-90984914D01*
X139291552Y-90990415D01*
X139125655Y-91028810D01*
X138966342Y-91101105D01*
X138931487Y-91122374D01*
X138790737Y-91233004D01*
X138677714Y-91363698D01*
X138593003Y-91509936D01*
X138537194Y-91667192D01*
X138510874Y-91830943D01*
X138514630Y-91996667D01*
X138549050Y-92159838D01*
X138614723Y-92315935D01*
X138712235Y-92460433D01*
X138751813Y-92505131D01*
X138875703Y-92618888D01*
X139006124Y-92701782D01*
X139152315Y-92758644D01*
X139297088Y-92790313D01*
X139459860Y-92798131D01*
X139623440Y-92772062D01*
X139782298Y-92714755D01*
X139930906Y-92628856D01*
X140063735Y-92517014D01*
X140175256Y-92381877D01*
X140187011Y-92364117D01*
X140225508Y-92307850D01*
X140258863Y-92265077D01*
X140280160Y-92244628D01*
X140280833Y-92244331D01*
X140303871Y-92248721D01*
X140356157Y-92266124D01*
X140433390Y-92294732D01*
X140531268Y-92332735D01*
X140645491Y-92378326D01*
X140771758Y-92429697D01*
X140905767Y-92485038D01*
X141043218Y-92542542D01*
X141179808Y-92600399D01*
X141311237Y-92656802D01*
X141433205Y-92709942D01*
X141541409Y-92758010D01*
X141631549Y-92799199D01*
X141699323Y-92831699D01*
X141740430Y-92853703D01*
X141751226Y-92862564D01*
X141742819Y-92889640D01*
X141720272Y-92940303D01*
X141687613Y-93005817D01*
X141668520Y-93041841D01*
X141585800Y-93194832D01*
X141709075Y-93377088D01*
X141772228Y-93470125D01*
X141841727Y-93571985D01*
X141907165Y-93667438D01*
X141940117Y-93715250D01*
X141985273Y-93782495D01*
X142021057Y-93839436D01*
X142042938Y-93878646D01*
X142047563Y-93891381D01*
X142035085Y-93909917D01*
X142000252Y-93950941D01*
X141946678Y-94010475D01*
X141877983Y-94084542D01*
X141797781Y-94169165D01*
X141746286Y-94222685D01*
X141654286Y-94316319D01*
X141571999Y-94397241D01*
X141502945Y-94462177D01*
X141450644Y-94507858D01*
X141418616Y-94531011D01*
X141412116Y-94533232D01*
X141387394Y-94522924D01*
X141337405Y-94494439D01*
X141267212Y-94450937D01*
X141181875Y-94395577D01*
X141086456Y-94331520D01*
X141059854Y-94313303D01*
X140963167Y-94246927D01*
X140876117Y-94187378D01*
X140803595Y-94137984D01*
X140750493Y-94102075D01*
X140721703Y-94082981D01*
X140718726Y-94081136D01*
X140695782Y-94083895D01*
X140645336Y-94098538D01*
X140574041Y-94122513D01*
X140488547Y-94153266D01*
X140395507Y-94188244D01*
X140301574Y-94224893D01*
X140213399Y-94260661D01*
X140137634Y-94292994D01*
X140080931Y-94319338D01*
X140049943Y-94337142D01*
X140048457Y-94338407D01*
X140039601Y-94349294D01*
X140030843Y-94367682D01*
X140021277Y-94397606D01*
X140009996Y-94443103D01*
X139996093Y-94508209D01*
X139978663Y-94596961D01*
X139956798Y-94713393D01*
X139929591Y-94861542D01*
X139923741Y-94893618D01*
X139905374Y-94988686D01*
X139887405Y-95071565D01*
X139871569Y-95134930D01*
X139859600Y-95171458D01*
X139856810Y-95176356D01*
X139832072Y-95184427D01*
X139776790Y-95190987D01*
X139697389Y-95196033D01*
X139600296Y-95199559D01*
X139491938Y-95201561D01*
X139378740Y-95202036D01*
X139267128Y-95200977D01*
X139163529Y-95198382D01*
X139074368Y-95194246D01*
X139006072Y-95188563D01*
X138965066Y-95181331D01*
X138956674Y-95176971D01*
X138948208Y-95152698D01*
X138934435Y-95097426D01*
X138916550Y-95016662D01*
X138895748Y-94915912D01*
X138873223Y-94800683D01*
X138861418Y-94737902D01*
X138839151Y-94618787D01*
X138818979Y-94512565D01*
X138801915Y-94424427D01*
X138788969Y-94359566D01*
X138781155Y-94323174D01*
X138779422Y-94317184D01*
X138759890Y-94307061D01*
X138712843Y-94285662D01*
X138645003Y-94255839D01*
X138563091Y-94220445D01*
X138473828Y-94182332D01*
X138383935Y-94144353D01*
X138300135Y-94109360D01*
X138229147Y-94080206D01*
X138177694Y-94059743D01*
X138152497Y-94050823D01*
X138151396Y-94050657D01*
X138131519Y-94060769D01*
X138085777Y-94089117D01*
X138018717Y-94132723D01*
X137934884Y-94188606D01*
X137838826Y-94253787D01*
X137783650Y-94291679D01*
X137682481Y-94360725D01*
X137590630Y-94422050D01*
X137512744Y-94472663D01*
X137453469Y-94509571D01*
X137417451Y-94529782D01*
X137409377Y-94532701D01*
X137390584Y-94520153D01*
X137350457Y-94485463D01*
X137293493Y-94433063D01*
X137224185Y-94367384D01*
X137147031Y-94292856D01*
X137066525Y-94213913D01*
X136987163Y-94134983D01*
X136913440Y-94060500D01*
X136849852Y-93994894D01*
X136800894Y-93942596D01*
X136771061Y-93908039D01*
X136763942Y-93896478D01*
X136773953Y-93877654D01*
X136802078Y-93832631D01*
X136845454Y-93765787D01*
X136901218Y-93681499D01*
X136966506Y-93584144D01*
X137016246Y-93510707D01*
X137268551Y-93139667D01*
X137013555Y-92521095D01*
X136568931Y-92437275D01*
X136124307Y-92353454D01*
X136124307Y-91428006D01*
X136568931Y-91344186D01*
D10*
G04 #@! TO.C,D1*
X145375000Y-91800000D02*
X145375000Y-92800000D01*
X144025000Y-92800000D02*
X144025000Y-91800000D01*
G04 #@! TO.C,J1*
X131445000Y-69850000D02*
X130810000Y-70485000D01*
X130810000Y-71755000D02*
X131445000Y-72390000D01*
X131445000Y-72390000D02*
X130810000Y-73025000D01*
X130810000Y-74295000D02*
X131445000Y-74930000D01*
X131445000Y-74930000D02*
X130810000Y-75565000D01*
X130810000Y-76835000D02*
X131445000Y-77470000D01*
X131445000Y-77470000D02*
X130810000Y-78105000D01*
X130810000Y-79375000D02*
X131445000Y-80010000D01*
X131445000Y-80010000D02*
X130810000Y-80645000D01*
X130810000Y-81915000D02*
X131445000Y-82550000D01*
X131445000Y-82550000D02*
X130810000Y-83185000D01*
X130810000Y-84455000D02*
X131445000Y-85090000D01*
X131445000Y-69850000D02*
X135255000Y-69850000D01*
X135255000Y-69850000D02*
X135890000Y-70485000D01*
X135890000Y-70485000D02*
X135890000Y-71755000D01*
X135890000Y-71755000D02*
X135255000Y-72390000D01*
X135255000Y-72390000D02*
X135890000Y-73025000D01*
X135890000Y-73025000D02*
X135890000Y-74295000D01*
X135890000Y-74295000D02*
X135255000Y-74930000D01*
X135255000Y-74930000D02*
X135890000Y-75565000D01*
X135890000Y-75565000D02*
X135890000Y-76835000D01*
X135890000Y-76835000D02*
X135255000Y-77470000D01*
X135255000Y-77470000D02*
X135890000Y-78105000D01*
X135890000Y-78105000D02*
X135890000Y-79375000D01*
X135890000Y-79375000D02*
X135255000Y-80010000D01*
X135255000Y-80010000D02*
X135890000Y-80645000D01*
X135890000Y-80645000D02*
X135890000Y-81915000D01*
X135890000Y-81915000D02*
X135255000Y-82550000D01*
X135255000Y-82550000D02*
X135890000Y-83185000D01*
X135890000Y-83185000D02*
X135890000Y-84455000D01*
X135890000Y-84455000D02*
X135255000Y-85090000D01*
X135255000Y-85090000D02*
X135890000Y-85725000D01*
X135890000Y-85725000D02*
X135890000Y-86995000D01*
X135890000Y-86995000D02*
X135255000Y-87630000D01*
X135255000Y-87630000D02*
X135890000Y-88265000D01*
X135890000Y-88265000D02*
X135890000Y-89535000D01*
X135890000Y-89535000D02*
X135255000Y-90170000D01*
X135255000Y-90170000D02*
X135890000Y-90805000D01*
X135890000Y-90805000D02*
X135890000Y-92075000D01*
X135890000Y-92075000D02*
X135255000Y-92710000D01*
X131445000Y-92710000D02*
X130810000Y-92075000D01*
X131445000Y-90170000D02*
X130810000Y-90805000D01*
X131445000Y-90170000D02*
X130810000Y-89535000D01*
X131445000Y-87630000D02*
X130810000Y-88265000D01*
X131445000Y-87630000D02*
X130810000Y-86995000D01*
X131445000Y-85090000D02*
X130810000Y-85725000D01*
X135255000Y-72390000D02*
X131445000Y-72390000D01*
X135255000Y-74930000D02*
X131445000Y-74930000D01*
X135255000Y-77470000D02*
X131445000Y-77470000D01*
X135255000Y-80010000D02*
X131445000Y-80010000D01*
X135255000Y-82550000D02*
X131445000Y-82550000D01*
X135255000Y-85090000D02*
X131445000Y-85090000D01*
X135255000Y-87630000D02*
X131445000Y-87630000D01*
X135255000Y-90170000D02*
X131445000Y-90170000D01*
X135255000Y-92710000D02*
X131445000Y-92710000D01*
X130810000Y-90805000D02*
X130810000Y-92075000D01*
X130810000Y-88265000D02*
X130810000Y-89535000D01*
X130810000Y-85725000D02*
X130810000Y-86995000D01*
X130810000Y-83185000D02*
X130810000Y-84455000D01*
X130810000Y-80645000D02*
X130810000Y-81915000D01*
X130810000Y-78105000D02*
X130810000Y-79375000D01*
X130810000Y-75565000D02*
X130810000Y-76835000D01*
X130810000Y-73025000D02*
X130810000Y-74295000D01*
X130810000Y-70485000D02*
X130810000Y-71755000D01*
X135255000Y-92710000D02*
X135890000Y-93345000D01*
X135890000Y-93345000D02*
X135890000Y-94615000D01*
X135890000Y-94615000D02*
X135255000Y-95250000D01*
X131445000Y-95250000D02*
X130810000Y-94615000D01*
X131445000Y-92710000D02*
X130810000Y-93345000D01*
X135255000Y-95250000D02*
X131445000Y-95250000D01*
X130810000Y-93345000D02*
X130810000Y-94615000D01*
G04 #@! TO.C,J2*
X144575000Y-86650000D02*
X144575000Y-86450000D01*
X144475000Y-86750000D02*
X144475000Y-86350000D01*
X144375000Y-86850000D02*
X144375000Y-86350000D01*
X144275000Y-86850000D02*
X144275000Y-86250000D01*
X144175000Y-86950000D02*
X144175000Y-86150000D01*
X144075000Y-85950000D02*
X144075000Y-87150000D01*
X144675000Y-86550000D02*
X144075000Y-85950000D01*
X144075000Y-87150000D02*
X144675000Y-86550000D01*
X145375000Y-83650000D02*
X144775000Y-83650000D01*
X145375000Y-81450000D02*
X144775000Y-81450000D01*
X144725000Y-88175000D02*
X141025000Y-88175000D01*
X144725000Y-76925000D02*
X144725000Y-88175000D01*
X141025000Y-76925000D02*
X144725000Y-76925000D01*
X141025000Y-88175000D02*
X141025000Y-76925000D01*
X145375000Y-88875000D02*
X140375000Y-88875000D01*
X145375000Y-76225000D02*
X145375000Y-88875000D01*
X140375000Y-76225000D02*
X145375000Y-76225000D01*
X140375000Y-88875000D02*
X140375000Y-76225000D01*
G04 #@! TO.C,R1*
X142425000Y-92800000D02*
X142425000Y-91800000D01*
X143775000Y-91800000D02*
X143775000Y-92800000D01*
G04 #@! TO.C,S2*
X139301020Y-71201400D02*
X139301020Y-71701780D01*
X139301020Y-73698220D02*
X139301020Y-74198600D01*
X139301020Y-74198600D02*
X143298980Y-74198600D01*
X143298980Y-74198600D02*
X143298980Y-73698220D01*
X143298980Y-71701780D02*
X143298980Y-71201400D01*
X143298980Y-71201400D02*
X139301020Y-71201400D01*
G04 #@! TO.C,N2*
X139247619Y-86819047D02*
X139200000Y-86771428D01*
X139152380Y-86676190D01*
X139152380Y-86438095D01*
X139200000Y-86342857D01*
X139247619Y-86295238D01*
X139342857Y-86247619D01*
X139438095Y-86247619D01*
X139580952Y-86295238D01*
X140152380Y-86866666D01*
X140152380Y-86247619D01*
X139152380Y-85628571D02*
X139152380Y-85533333D01*
X139200000Y-85438095D01*
X139247619Y-85390476D01*
X139342857Y-85342857D01*
X139533333Y-85295238D01*
X139771428Y-85295238D01*
X139961904Y-85342857D01*
X140057142Y-85390476D01*
X140104761Y-85438095D01*
X140152380Y-85533333D01*
X140152380Y-85628571D01*
X140104761Y-85723809D01*
X140057142Y-85771428D01*
X139961904Y-85819047D01*
X139771428Y-85866666D01*
X139533333Y-85866666D01*
X139342857Y-85819047D01*
X139247619Y-85771428D01*
X139200000Y-85723809D01*
X139152380Y-85628571D01*
X140152380Y-84342857D02*
X140152380Y-84914285D01*
X140152380Y-84628571D02*
X139152380Y-84628571D01*
X139295238Y-84723809D01*
X139390476Y-84819047D01*
X139438095Y-84914285D01*
X139580952Y-83771428D02*
X139533333Y-83866666D01*
X139485714Y-83914285D01*
X139390476Y-83961904D01*
X139342857Y-83961904D01*
X139247619Y-83914285D01*
X139200000Y-83866666D01*
X139152380Y-83771428D01*
X139152380Y-83580952D01*
X139200000Y-83485714D01*
X139247619Y-83438095D01*
X139342857Y-83390476D01*
X139390476Y-83390476D01*
X139485714Y-83438095D01*
X139533333Y-83485714D01*
X139580952Y-83580952D01*
X139580952Y-83771428D01*
X139628571Y-83866666D01*
X139676190Y-83914285D01*
X139771428Y-83961904D01*
X139961904Y-83961904D01*
X140057142Y-83914285D01*
X140104761Y-83866666D01*
X140152380Y-83771428D01*
X140152380Y-83580952D01*
X140104761Y-83485714D01*
X140057142Y-83438095D01*
X139961904Y-83390476D01*
X139771428Y-83390476D01*
X139676190Y-83438095D01*
X139628571Y-83485714D01*
X139580952Y-83580952D01*
X140152380Y-82438095D02*
X140152380Y-83009523D01*
X140152380Y-82723809D02*
X139152380Y-82723809D01*
X139295238Y-82819047D01*
X139390476Y-82914285D01*
X139438095Y-83009523D01*
X140152380Y-81485714D02*
X140152380Y-82057142D01*
X140152380Y-81771428D02*
X139152380Y-81771428D01*
X139295238Y-81866666D01*
X139390476Y-81961904D01*
X139438095Y-82057142D01*
X139247619Y-81104761D02*
X139200000Y-81057142D01*
X139152380Y-80961904D01*
X139152380Y-80723809D01*
X139200000Y-80628571D01*
X139247619Y-80580952D01*
X139342857Y-80533333D01*
X139438095Y-80533333D01*
X139580952Y-80580952D01*
X140152380Y-81152380D01*
X140152380Y-80533333D01*
X139247619Y-80152380D02*
X139200000Y-80104761D01*
X139152380Y-80009523D01*
X139152380Y-79771428D01*
X139200000Y-79676190D01*
X139247619Y-79628571D01*
X139342857Y-79580952D01*
X139438095Y-79580952D01*
X139580952Y-79628571D01*
X140152380Y-80200000D01*
X140152380Y-79580952D01*
X139152380Y-88271428D02*
X140152380Y-87938095D01*
X139152380Y-87604761D01*
X140057142Y-87271428D02*
X140104761Y-87223809D01*
X140152380Y-87271428D01*
X140104761Y-87319047D01*
X140057142Y-87271428D01*
X140152380Y-87271428D01*
X139533333Y-87271428D02*
X139580952Y-87223809D01*
X139628571Y-87271428D01*
X139580952Y-87319047D01*
X139533333Y-87271428D01*
X139628571Y-87271428D01*
G04 #@! TO.C,D1*
X145152380Y-90638095D02*
X144152380Y-90638095D01*
X144152380Y-90400000D01*
X144200000Y-90257142D01*
X144295238Y-90161904D01*
X144390476Y-90114285D01*
X144580952Y-90066666D01*
X144723809Y-90066666D01*
X144914285Y-90114285D01*
X145009523Y-90161904D01*
X145104761Y-90257142D01*
X145152380Y-90400000D01*
X145152380Y-90638095D01*
X145152380Y-89114285D02*
X145152380Y-89685714D01*
X145152380Y-89400000D02*
X144152380Y-89400000D01*
X144295238Y-89495238D01*
X144390476Y-89590476D01*
X144438095Y-89685714D01*
G04 #@! TO.C,J1*
X136252380Y-71433333D02*
X136966666Y-71433333D01*
X137109523Y-71480952D01*
X137204761Y-71576190D01*
X137252380Y-71719047D01*
X137252380Y-71814285D01*
X137252380Y-70433333D02*
X137252380Y-71004761D01*
X137252380Y-70719047D02*
X136252380Y-70719047D01*
X136395238Y-70814285D01*
X136490476Y-70909523D01*
X136538095Y-71004761D01*
G04 #@! TO.C,J2*
X139052380Y-77233333D02*
X139766666Y-77233333D01*
X139909523Y-77280952D01*
X140004761Y-77376190D01*
X140052380Y-77519047D01*
X140052380Y-77614285D01*
X139147619Y-76804761D02*
X139100000Y-76757142D01*
X139052380Y-76661904D01*
X139052380Y-76423809D01*
X139100000Y-76328571D01*
X139147619Y-76280952D01*
X139242857Y-76233333D01*
X139338095Y-76233333D01*
X139480952Y-76280952D01*
X140052380Y-76852380D01*
X140052380Y-76233333D01*
G04 #@! TO.C,R1*
X143552380Y-90066666D02*
X143076190Y-90400000D01*
X143552380Y-90638095D02*
X142552380Y-90638095D01*
X142552380Y-90257142D01*
X142600000Y-90161904D01*
X142647619Y-90114285D01*
X142742857Y-90066666D01*
X142885714Y-90066666D01*
X142980952Y-90114285D01*
X143028571Y-90161904D01*
X143076190Y-90257142D01*
X143076190Y-90638095D01*
X143552380Y-89114285D02*
X143552380Y-89685714D01*
X143552380Y-89400000D02*
X142552380Y-89400000D01*
X142695238Y-89495238D01*
X142790476Y-89590476D01*
X142838095Y-89685714D01*
G04 #@! TO.C,S2*
X140538095Y-75404761D02*
X140680952Y-75452380D01*
X140919047Y-75452380D01*
X141014285Y-75404761D01*
X141061904Y-75357142D01*
X141109523Y-75261904D01*
X141109523Y-75166666D01*
X141061904Y-75071428D01*
X141014285Y-75023809D01*
X140919047Y-74976190D01*
X140728571Y-74928571D01*
X140633333Y-74880952D01*
X140585714Y-74833333D01*
X140538095Y-74738095D01*
X140538095Y-74642857D01*
X140585714Y-74547619D01*
X140633333Y-74500000D01*
X140728571Y-74452380D01*
X140966666Y-74452380D01*
X141109523Y-74500000D01*
X141490476Y-74547619D02*
X141538095Y-74500000D01*
X141633333Y-74452380D01*
X141871428Y-74452380D01*
X141966666Y-74500000D01*
X142014285Y-74547619D01*
X142061904Y-74642857D01*
X142061904Y-74738095D01*
X142014285Y-74880952D01*
X141442857Y-75452380D01*
X142061904Y-75452380D01*
G04 #@! TD*
M02*
