G04 #@! TF.GenerationSoftware,KiCad,Pcbnew,5.0.1-33cea8e~68~ubuntu18.04.1*
G04 #@! TF.CreationDate,2018-11-09T10:03:27+01:00*
G04 #@! TF.ProjectId,MCP1702_SOT89_breakoutmodule,4D4350313730325F534F5438395F6272,rev?*
G04 #@! TF.SameCoordinates,Original*
G04 #@! TF.FileFunction,Soldermask,Top*
G04 #@! TF.FilePolarity,Negative*
%FSLAX46Y46*%
G04 Gerber Fmt 4.6, Leading zero omitted, Abs format (unit mm)*
G04 Created by KiCad (PCBNEW 5.0.1-33cea8e~68~ubuntu18.04.1) date vr 09 nov 2018 10:03:27 CET*
%MOMM*%
%LPD*%
G01*
G04 APERTURE LIST*
%ADD10C,0.100000*%
G04 APERTURE END LIST*
D10*
G36*
X140071144Y-84629024D02*
X140104538Y-84639154D01*
X140135302Y-84655597D01*
X140162270Y-84677730D01*
X140184403Y-84704698D01*
X140200846Y-84735462D01*
X140210976Y-84768856D01*
X140215000Y-84809712D01*
X140215000Y-87640288D01*
X140210976Y-87681144D01*
X140200846Y-87714538D01*
X140184403Y-87745302D01*
X140162270Y-87772270D01*
X140135302Y-87794403D01*
X140104538Y-87810846D01*
X140071144Y-87820976D01*
X140030288Y-87825000D01*
X138099712Y-87825000D01*
X138058856Y-87820976D01*
X138025462Y-87810846D01*
X137994698Y-87794403D01*
X137967730Y-87772270D01*
X137945597Y-87745302D01*
X137929154Y-87714538D01*
X137919024Y-87681144D01*
X137915000Y-87640288D01*
X137915000Y-84809712D01*
X137919024Y-84768856D01*
X137929154Y-84735462D01*
X137945597Y-84704698D01*
X137967730Y-84677730D01*
X137994698Y-84655597D01*
X138025462Y-84639154D01*
X138058856Y-84629024D01*
X138099712Y-84625000D01*
X140030288Y-84625000D01*
X140071144Y-84629024D01*
X140071144Y-84629024D01*
G37*
G36*
X133721144Y-84629024D02*
X133754538Y-84639154D01*
X133785302Y-84655597D01*
X133812270Y-84677730D01*
X133834403Y-84704698D01*
X133850846Y-84735462D01*
X133860976Y-84768856D01*
X133865000Y-84809712D01*
X133865000Y-87640288D01*
X133860976Y-87681144D01*
X133850846Y-87714538D01*
X133834403Y-87745302D01*
X133812270Y-87772270D01*
X133785302Y-87794403D01*
X133754538Y-87810846D01*
X133721144Y-87820976D01*
X133680288Y-87825000D01*
X131749712Y-87825000D01*
X131708856Y-87820976D01*
X131675462Y-87810846D01*
X131644698Y-87794403D01*
X131617730Y-87772270D01*
X131595597Y-87745302D01*
X131579154Y-87714538D01*
X131569024Y-87681144D01*
X131565000Y-87640288D01*
X131565000Y-84809712D01*
X131569024Y-84768856D01*
X131579154Y-84735462D01*
X131595597Y-84704698D01*
X131617730Y-84677730D01*
X131644698Y-84655597D01*
X131675462Y-84639154D01*
X131708856Y-84629024D01*
X131749712Y-84625000D01*
X133680288Y-84625000D01*
X133721144Y-84629024D01*
X133721144Y-84629024D01*
G37*
G36*
X135613960Y-82429196D02*
X135649023Y-82439832D01*
X135681332Y-82457102D01*
X135709655Y-82480345D01*
X135732898Y-82508668D01*
X135750168Y-82540977D01*
X135760804Y-82576040D01*
X135765602Y-82624753D01*
X135770383Y-82648786D01*
X135779760Y-82671425D01*
X135793374Y-82691800D01*
X135810701Y-82709127D01*
X135831076Y-82722741D01*
X135853715Y-82732118D01*
X135877749Y-82736898D01*
X135902253Y-82736898D01*
X135926286Y-82732117D01*
X135948925Y-82722740D01*
X135969300Y-82709126D01*
X135986627Y-82691799D01*
X136000241Y-82671424D01*
X136009618Y-82648785D01*
X136014398Y-82624753D01*
X136019196Y-82576040D01*
X136029832Y-82540977D01*
X136047102Y-82508668D01*
X136070345Y-82480345D01*
X136098668Y-82457102D01*
X136130977Y-82439832D01*
X136166040Y-82429196D01*
X136208641Y-82425000D01*
X136821359Y-82425000D01*
X136863960Y-82429196D01*
X136899023Y-82439832D01*
X136931332Y-82457102D01*
X136959655Y-82480345D01*
X136982898Y-82508668D01*
X137000168Y-82540977D01*
X137010804Y-82576040D01*
X137015000Y-82618641D01*
X137015000Y-84031359D01*
X137010804Y-84073960D01*
X137000168Y-84109023D01*
X136982898Y-84141332D01*
X136959655Y-84169655D01*
X136931332Y-84192898D01*
X136899023Y-84210168D01*
X136863960Y-84220804D01*
X136821359Y-84225000D01*
X136208641Y-84225000D01*
X136166040Y-84220804D01*
X136130977Y-84210168D01*
X136098668Y-84192898D01*
X136070345Y-84169655D01*
X136047102Y-84141332D01*
X136029832Y-84109023D01*
X136019196Y-84073960D01*
X136014398Y-84025247D01*
X136009617Y-84001214D01*
X136000240Y-83978575D01*
X135986626Y-83958200D01*
X135969299Y-83940873D01*
X135948924Y-83927259D01*
X135926285Y-83917882D01*
X135902251Y-83913102D01*
X135877747Y-83913102D01*
X135853714Y-83917883D01*
X135831075Y-83927260D01*
X135810700Y-83940874D01*
X135793373Y-83958201D01*
X135779759Y-83978576D01*
X135770382Y-84001215D01*
X135765602Y-84025247D01*
X135760804Y-84073960D01*
X135750168Y-84109023D01*
X135732898Y-84141332D01*
X135709655Y-84169655D01*
X135681332Y-84192898D01*
X135649023Y-84210168D01*
X135613960Y-84220804D01*
X135571359Y-84225000D01*
X134958641Y-84225000D01*
X134916040Y-84220804D01*
X134880977Y-84210168D01*
X134848668Y-84192898D01*
X134820345Y-84169655D01*
X134797102Y-84141332D01*
X134779832Y-84109023D01*
X134769196Y-84073960D01*
X134765000Y-84031359D01*
X134765000Y-82618641D01*
X134769196Y-82576040D01*
X134779832Y-82540977D01*
X134797102Y-82508668D01*
X134820345Y-82480345D01*
X134848668Y-82457102D01*
X134880977Y-82439832D01*
X134916040Y-82429196D01*
X134958641Y-82425000D01*
X135571359Y-82425000D01*
X135613960Y-82429196D01*
X135613960Y-82429196D01*
G37*
G36*
X141720000Y-82030000D02*
X140220000Y-82030000D01*
X140220000Y-80530000D01*
X141720000Y-80530000D01*
X141720000Y-82030000D01*
X141720000Y-82030000D01*
G37*
G36*
X130956318Y-80544411D02*
X131028767Y-80558822D01*
X131085303Y-80582240D01*
X131165257Y-80615358D01*
X131288100Y-80697439D01*
X131392561Y-80801900D01*
X131474642Y-80924743D01*
X131531178Y-81061234D01*
X131560000Y-81206130D01*
X131560000Y-81353870D01*
X131531178Y-81498766D01*
X131474642Y-81635257D01*
X131392561Y-81758100D01*
X131288100Y-81862561D01*
X131165257Y-81944642D01*
X131085303Y-81977760D01*
X131028767Y-82001178D01*
X130956318Y-82015589D01*
X130883870Y-82030000D01*
X130736130Y-82030000D01*
X130663682Y-82015589D01*
X130591233Y-82001178D01*
X130534697Y-81977760D01*
X130454743Y-81944642D01*
X130331900Y-81862561D01*
X130227439Y-81758100D01*
X130145358Y-81635257D01*
X130088822Y-81498766D01*
X130060000Y-81353870D01*
X130060000Y-81206130D01*
X130088822Y-81061234D01*
X130145358Y-80924743D01*
X130227439Y-80801900D01*
X130331900Y-80697439D01*
X130454743Y-80615358D01*
X130534697Y-80582240D01*
X130591233Y-80558822D01*
X130663682Y-80544411D01*
X130736130Y-80530000D01*
X130883870Y-80530000D01*
X130956318Y-80544411D01*
X130956318Y-80544411D01*
G37*
G36*
X137500000Y-81725000D02*
X136300000Y-81725000D01*
X136300000Y-80275000D01*
X137500000Y-80275000D01*
X137500000Y-81725000D01*
X137500000Y-81725000D01*
G37*
G36*
X135500000Y-81725000D02*
X134300000Y-81725000D01*
X134300000Y-80275000D01*
X135500000Y-80275000D01*
X135500000Y-81725000D01*
X135500000Y-81725000D01*
G37*
G36*
X136240000Y-76589360D02*
X136242402Y-76613746D01*
X136249515Y-76637195D01*
X136261066Y-76658806D01*
X136285700Y-76685986D01*
X136290778Y-76690153D01*
X136290781Y-76690155D01*
X136397370Y-76777630D01*
X136484845Y-76884219D01*
X136549845Y-77005825D01*
X136589872Y-77137776D01*
X136600000Y-77240610D01*
X136600000Y-78959390D01*
X136589872Y-79062224D01*
X136549845Y-79194175D01*
X136484845Y-79315781D01*
X136397369Y-79422370D01*
X136290780Y-79509845D01*
X136169174Y-79574845D01*
X136037223Y-79614872D01*
X135900000Y-79628387D01*
X135762776Y-79614872D01*
X135630825Y-79574845D01*
X135509219Y-79509845D01*
X135402630Y-79422369D01*
X135315155Y-79315780D01*
X135250155Y-79194174D01*
X135210128Y-79062223D01*
X135200000Y-78959389D01*
X135200000Y-77275010D01*
X135200001Y-77275000D01*
X135200001Y-77240610D01*
X135210129Y-77137776D01*
X135250156Y-77005825D01*
X135315156Y-76884219D01*
X135402631Y-76777630D01*
X135509220Y-76690155D01*
X135509224Y-76690153D01*
X135514300Y-76685987D01*
X135531627Y-76668660D01*
X135545240Y-76648285D01*
X135554618Y-76625646D01*
X135560000Y-76589361D01*
X135560000Y-75300000D01*
X136240000Y-75300000D01*
X136240000Y-76589360D01*
X136240000Y-76589360D01*
G37*
G36*
X141116318Y-78004411D02*
X141188767Y-78018822D01*
X141245303Y-78042240D01*
X141325257Y-78075358D01*
X141448100Y-78157439D01*
X141552561Y-78261900D01*
X141634642Y-78384743D01*
X141667760Y-78464697D01*
X141691178Y-78521233D01*
X141720000Y-78666131D01*
X141720000Y-78813869D01*
X141691178Y-78958767D01*
X141690920Y-78959389D01*
X141634642Y-79095257D01*
X141552561Y-79218100D01*
X141448100Y-79322561D01*
X141325257Y-79404642D01*
X141245303Y-79437760D01*
X141188767Y-79461178D01*
X141116318Y-79475589D01*
X141043870Y-79490000D01*
X140896130Y-79490000D01*
X140823682Y-79475589D01*
X140751233Y-79461178D01*
X140694697Y-79437760D01*
X140614743Y-79404642D01*
X140491900Y-79322561D01*
X140387439Y-79218100D01*
X140305358Y-79095257D01*
X140249080Y-78959389D01*
X140248822Y-78958767D01*
X140220000Y-78813869D01*
X140220000Y-78666131D01*
X140248822Y-78521233D01*
X140272240Y-78464697D01*
X140305358Y-78384743D01*
X140387439Y-78261900D01*
X140491900Y-78157439D01*
X140614743Y-78075358D01*
X140694697Y-78042240D01*
X140751233Y-78018822D01*
X140823682Y-78004411D01*
X140896130Y-77990000D01*
X141043870Y-77990000D01*
X141116318Y-78004411D01*
X141116318Y-78004411D01*
G37*
G36*
X130956318Y-78004411D02*
X131028767Y-78018822D01*
X131085303Y-78042240D01*
X131165257Y-78075358D01*
X131288100Y-78157439D01*
X131392561Y-78261900D01*
X131474642Y-78384743D01*
X131507760Y-78464697D01*
X131531178Y-78521233D01*
X131560000Y-78666131D01*
X131560000Y-78813869D01*
X131531178Y-78958767D01*
X131530920Y-78959389D01*
X131474642Y-79095257D01*
X131392561Y-79218100D01*
X131288100Y-79322561D01*
X131165257Y-79404642D01*
X131085303Y-79437760D01*
X131028767Y-79461178D01*
X130956318Y-79475589D01*
X130883870Y-79490000D01*
X130736130Y-79490000D01*
X130663682Y-79475589D01*
X130591233Y-79461178D01*
X130534697Y-79437760D01*
X130454743Y-79404642D01*
X130331900Y-79322561D01*
X130227439Y-79218100D01*
X130145358Y-79095257D01*
X130089080Y-78959389D01*
X130088822Y-78958767D01*
X130060000Y-78813869D01*
X130060000Y-78666131D01*
X130088822Y-78521233D01*
X130112240Y-78464697D01*
X130145358Y-78384743D01*
X130227439Y-78261900D01*
X130331900Y-78157439D01*
X130454743Y-78075358D01*
X130534697Y-78042240D01*
X130591233Y-78018822D01*
X130663682Y-78004411D01*
X130736130Y-77990000D01*
X130883870Y-77990000D01*
X130956318Y-78004411D01*
X130956318Y-78004411D01*
G37*
G36*
X130956318Y-75464411D02*
X131028767Y-75478822D01*
X131085303Y-75502240D01*
X131165257Y-75535358D01*
X131288100Y-75617439D01*
X131392561Y-75721900D01*
X131474642Y-75844743D01*
X131531178Y-75981234D01*
X131560000Y-76126130D01*
X131560000Y-76273870D01*
X131531178Y-76418766D01*
X131474642Y-76555257D01*
X131392561Y-76678100D01*
X131288100Y-76782561D01*
X131165257Y-76864642D01*
X131117991Y-76884220D01*
X131028767Y-76921178D01*
X130956318Y-76935589D01*
X130883870Y-76950000D01*
X130736130Y-76950000D01*
X130663682Y-76935589D01*
X130591233Y-76921178D01*
X130502009Y-76884220D01*
X130454743Y-76864642D01*
X130331900Y-76782561D01*
X130227439Y-76678100D01*
X130145358Y-76555257D01*
X130088822Y-76418766D01*
X130060000Y-76273870D01*
X130060000Y-76126130D01*
X130088822Y-75981234D01*
X130145358Y-75844743D01*
X130227439Y-75721900D01*
X130331900Y-75617439D01*
X130454743Y-75535358D01*
X130534697Y-75502240D01*
X130591233Y-75478822D01*
X130663682Y-75464411D01*
X130736130Y-75450000D01*
X130883870Y-75450000D01*
X130956318Y-75464411D01*
X130956318Y-75464411D01*
G37*
G36*
X141116318Y-75464411D02*
X141188767Y-75478822D01*
X141245303Y-75502240D01*
X141325257Y-75535358D01*
X141448100Y-75617439D01*
X141552561Y-75721900D01*
X141634642Y-75844743D01*
X141691178Y-75981234D01*
X141720000Y-76126130D01*
X141720000Y-76273870D01*
X141691178Y-76418766D01*
X141634642Y-76555257D01*
X141552561Y-76678100D01*
X141448100Y-76782561D01*
X141325257Y-76864642D01*
X141277991Y-76884220D01*
X141188767Y-76921178D01*
X141116318Y-76935589D01*
X141043870Y-76950000D01*
X140896130Y-76950000D01*
X140823682Y-76935589D01*
X140751233Y-76921178D01*
X140662009Y-76884220D01*
X140614743Y-76864642D01*
X140491900Y-76782561D01*
X140387439Y-76678100D01*
X140305358Y-76555257D01*
X140248822Y-76418766D01*
X140220000Y-76273870D01*
X140220000Y-76126130D01*
X140248822Y-75981234D01*
X140305358Y-75844743D01*
X140387439Y-75721900D01*
X140491900Y-75617439D01*
X140614743Y-75535358D01*
X140694697Y-75502240D01*
X140751233Y-75478822D01*
X140823682Y-75464411D01*
X140896130Y-75450000D01*
X141043870Y-75450000D01*
X141116318Y-75464411D01*
X141116318Y-75464411D01*
G37*
G36*
X137740000Y-76900000D02*
X137060000Y-76900000D01*
X137060000Y-75300000D01*
X137740000Y-75300000D01*
X137740000Y-76900000D01*
X137740000Y-76900000D01*
G37*
G36*
X134740000Y-76900000D02*
X134060000Y-76900000D01*
X134060000Y-75300000D01*
X134740000Y-75300000D01*
X134740000Y-76900000D01*
X134740000Y-76900000D01*
G37*
G36*
X135500000Y-74625000D02*
X134300000Y-74625000D01*
X134300000Y-73175000D01*
X135500000Y-73175000D01*
X135500000Y-74625000D01*
X135500000Y-74625000D01*
G37*
G36*
X137500000Y-74625000D02*
X136300000Y-74625000D01*
X136300000Y-73175000D01*
X137500000Y-73175000D01*
X137500000Y-74625000D01*
X137500000Y-74625000D01*
G37*
G36*
X141116318Y-72924411D02*
X141188767Y-72938822D01*
X141245303Y-72962240D01*
X141325257Y-72995358D01*
X141448100Y-73077439D01*
X141552561Y-73181900D01*
X141634642Y-73304743D01*
X141691178Y-73441234D01*
X141720000Y-73586130D01*
X141720000Y-73733870D01*
X141691178Y-73878766D01*
X141634642Y-74015257D01*
X141552561Y-74138100D01*
X141448100Y-74242561D01*
X141325257Y-74324642D01*
X141245303Y-74357760D01*
X141188767Y-74381178D01*
X141116318Y-74395589D01*
X141043870Y-74410000D01*
X140896130Y-74410000D01*
X140823682Y-74395589D01*
X140751233Y-74381178D01*
X140694697Y-74357760D01*
X140614743Y-74324642D01*
X140491900Y-74242561D01*
X140387439Y-74138100D01*
X140305358Y-74015257D01*
X140248822Y-73878766D01*
X140220000Y-73733870D01*
X140220000Y-73586130D01*
X140248822Y-73441234D01*
X140305358Y-73304743D01*
X140387439Y-73181900D01*
X140491900Y-73077439D01*
X140614743Y-72995358D01*
X140694697Y-72962240D01*
X140751233Y-72938822D01*
X140823682Y-72924411D01*
X140896130Y-72910000D01*
X141043870Y-72910000D01*
X141116318Y-72924411D01*
X141116318Y-72924411D01*
G37*
G36*
X131560000Y-74410000D02*
X130060000Y-74410000D01*
X130060000Y-72910000D01*
X131560000Y-72910000D01*
X131560000Y-74410000D01*
X131560000Y-74410000D01*
G37*
G36*
X135613960Y-70719196D02*
X135649023Y-70729832D01*
X135681332Y-70747102D01*
X135709655Y-70770345D01*
X135732898Y-70798668D01*
X135750168Y-70830977D01*
X135760804Y-70866040D01*
X135765602Y-70914753D01*
X135770383Y-70938786D01*
X135779760Y-70961425D01*
X135793374Y-70981800D01*
X135810701Y-70999127D01*
X135831076Y-71012741D01*
X135853715Y-71022118D01*
X135877749Y-71026898D01*
X135902253Y-71026898D01*
X135926286Y-71022117D01*
X135948925Y-71012740D01*
X135969300Y-70999126D01*
X135986627Y-70981799D01*
X136000241Y-70961424D01*
X136009618Y-70938785D01*
X136014398Y-70914753D01*
X136019196Y-70866040D01*
X136029832Y-70830977D01*
X136047102Y-70798668D01*
X136070345Y-70770345D01*
X136098668Y-70747102D01*
X136130977Y-70729832D01*
X136166040Y-70719196D01*
X136208641Y-70715000D01*
X136821359Y-70715000D01*
X136863960Y-70719196D01*
X136899023Y-70729832D01*
X136931332Y-70747102D01*
X136959655Y-70770345D01*
X136982898Y-70798668D01*
X137000168Y-70830977D01*
X137010804Y-70866040D01*
X137015000Y-70908641D01*
X137015000Y-72321359D01*
X137010804Y-72363960D01*
X137000168Y-72399023D01*
X136982898Y-72431332D01*
X136959655Y-72459655D01*
X136931332Y-72482898D01*
X136899023Y-72500168D01*
X136863960Y-72510804D01*
X136821359Y-72515000D01*
X136208641Y-72515000D01*
X136166040Y-72510804D01*
X136130977Y-72500168D01*
X136098668Y-72482898D01*
X136070345Y-72459655D01*
X136047102Y-72431332D01*
X136029832Y-72399023D01*
X136019196Y-72363960D01*
X136014398Y-72315247D01*
X136009617Y-72291214D01*
X136000240Y-72268575D01*
X135986626Y-72248200D01*
X135969299Y-72230873D01*
X135948924Y-72217259D01*
X135926285Y-72207882D01*
X135902251Y-72203102D01*
X135877747Y-72203102D01*
X135853714Y-72207883D01*
X135831075Y-72217260D01*
X135810700Y-72230874D01*
X135793373Y-72248201D01*
X135779759Y-72268576D01*
X135770382Y-72291215D01*
X135765602Y-72315247D01*
X135760804Y-72363960D01*
X135750168Y-72399023D01*
X135732898Y-72431332D01*
X135709655Y-72459655D01*
X135681332Y-72482898D01*
X135649023Y-72500168D01*
X135613960Y-72510804D01*
X135571359Y-72515000D01*
X134958641Y-72515000D01*
X134916040Y-72510804D01*
X134880977Y-72500168D01*
X134848668Y-72482898D01*
X134820345Y-72459655D01*
X134797102Y-72431332D01*
X134779832Y-72399023D01*
X134769196Y-72363960D01*
X134765000Y-72321359D01*
X134765000Y-70908641D01*
X134769196Y-70866040D01*
X134779832Y-70830977D01*
X134797102Y-70798668D01*
X134820345Y-70770345D01*
X134848668Y-70747102D01*
X134880977Y-70729832D01*
X134916040Y-70719196D01*
X134958641Y-70715000D01*
X135571359Y-70715000D01*
X135613960Y-70719196D01*
X135613960Y-70719196D01*
G37*
G36*
X133721144Y-67119024D02*
X133754538Y-67129154D01*
X133785302Y-67145597D01*
X133812270Y-67167730D01*
X133834403Y-67194698D01*
X133850846Y-67225462D01*
X133860976Y-67258856D01*
X133865000Y-67299712D01*
X133865000Y-70130288D01*
X133860976Y-70171144D01*
X133850846Y-70204538D01*
X133834403Y-70235302D01*
X133812270Y-70262270D01*
X133785302Y-70284403D01*
X133754538Y-70300846D01*
X133721144Y-70310976D01*
X133680288Y-70315000D01*
X131749712Y-70315000D01*
X131708856Y-70310976D01*
X131675462Y-70300846D01*
X131644698Y-70284403D01*
X131617730Y-70262270D01*
X131595597Y-70235302D01*
X131579154Y-70204538D01*
X131569024Y-70171144D01*
X131565000Y-70130288D01*
X131565000Y-67299712D01*
X131569024Y-67258856D01*
X131579154Y-67225462D01*
X131595597Y-67194698D01*
X131617730Y-67167730D01*
X131644698Y-67145597D01*
X131675462Y-67129154D01*
X131708856Y-67119024D01*
X131749712Y-67115000D01*
X133680288Y-67115000D01*
X133721144Y-67119024D01*
X133721144Y-67119024D01*
G37*
G36*
X140071144Y-67119024D02*
X140104538Y-67129154D01*
X140135302Y-67145597D01*
X140162270Y-67167730D01*
X140184403Y-67194698D01*
X140200846Y-67225462D01*
X140210976Y-67258856D01*
X140215000Y-67299712D01*
X140215000Y-70130288D01*
X140210976Y-70171144D01*
X140200846Y-70204538D01*
X140184403Y-70235302D01*
X140162270Y-70262270D01*
X140135302Y-70284403D01*
X140104538Y-70300846D01*
X140071144Y-70310976D01*
X140030288Y-70315000D01*
X138099712Y-70315000D01*
X138058856Y-70310976D01*
X138025462Y-70300846D01*
X137994698Y-70284403D01*
X137967730Y-70262270D01*
X137945597Y-70235302D01*
X137929154Y-70204538D01*
X137919024Y-70171144D01*
X137915000Y-70130288D01*
X137915000Y-67299712D01*
X137919024Y-67258856D01*
X137929154Y-67225462D01*
X137945597Y-67194698D01*
X137967730Y-67167730D01*
X137994698Y-67145597D01*
X138025462Y-67129154D01*
X138058856Y-67119024D01*
X138099712Y-67115000D01*
X140030288Y-67115000D01*
X140071144Y-67119024D01*
X140071144Y-67119024D01*
G37*
M02*
