G04 #@! TF.GenerationSoftware,KiCad,Pcbnew,5.0.1-33cea8e~68~ubuntu18.04.1*
G04 #@! TF.CreationDate,2018-11-09T10:03:27+01:00*
G04 #@! TF.ProjectId,MCP1702_SOT89_breakoutmodule,4D4350313730325F534F5438395F6272,rev?*
G04 #@! TF.SameCoordinates,Original*
G04 #@! TF.FileFunction,Legend,Bot*
G04 #@! TF.FilePolarity,Positive*
%FSLAX46Y46*%
G04 Gerber Fmt 4.6, Leading zero omitted, Abs format (unit mm)*
G04 Created by KiCad (PCBNEW 5.0.1-33cea8e~68~ubuntu18.04.1) date vr 09 nov 2018 10:03:27 CET*
%MOMM*%
%LPD*%
G01*
G04 APERTURE LIST*
%ADD10C,0.010000*%
%ADD11C,0.150000*%
G04 APERTURE END LIST*
D10*
G04 #@! TO.C,N1*
G36*
X132368931Y-83655814D02*
X132813555Y-83739635D01*
X132941053Y-84048920D01*
X133068551Y-84358206D01*
X132816246Y-84729246D01*
X132745996Y-84833157D01*
X132683272Y-84927087D01*
X132630938Y-85006652D01*
X132591857Y-85067470D01*
X132568893Y-85105157D01*
X132563942Y-85115421D01*
X132576676Y-85133910D01*
X132611882Y-85173420D01*
X132665062Y-85229522D01*
X132731718Y-85297787D01*
X132807354Y-85373786D01*
X132887472Y-85453092D01*
X132967574Y-85531275D01*
X133043164Y-85603907D01*
X133109745Y-85666559D01*
X133162818Y-85714803D01*
X133197887Y-85744210D01*
X133209623Y-85751241D01*
X133231260Y-85741123D01*
X133278662Y-85712759D01*
X133347193Y-85669129D01*
X133432215Y-85613218D01*
X133529093Y-85548006D01*
X133584350Y-85510219D01*
X133685248Y-85441343D01*
X133776299Y-85380140D01*
X133852970Y-85329578D01*
X133910728Y-85292628D01*
X133945043Y-85272258D01*
X133952254Y-85269197D01*
X133972748Y-85276136D01*
X134020513Y-85295051D01*
X134088832Y-85323087D01*
X134170989Y-85357391D01*
X134260270Y-85395109D01*
X134349958Y-85433387D01*
X134433338Y-85469370D01*
X134503694Y-85500206D01*
X134554310Y-85523039D01*
X134578471Y-85535017D01*
X134579422Y-85535724D01*
X134584036Y-85554531D01*
X134594328Y-85604618D01*
X134609287Y-85680793D01*
X134627901Y-85777865D01*
X134649159Y-85890643D01*
X134661418Y-85956442D01*
X134684362Y-86076950D01*
X134706195Y-86185797D01*
X134725722Y-86277476D01*
X134741748Y-86346481D01*
X134753079Y-86387304D01*
X134756674Y-86395511D01*
X134781006Y-86403548D01*
X134835959Y-86410033D01*
X134915108Y-86414970D01*
X135012026Y-86418364D01*
X135120287Y-86420218D01*
X135233465Y-86420538D01*
X135345135Y-86419327D01*
X135448868Y-86416590D01*
X135538241Y-86412331D01*
X135606826Y-86406555D01*
X135648197Y-86399267D01*
X135656810Y-86394895D01*
X135667133Y-86368764D01*
X135681892Y-86313393D01*
X135699352Y-86236107D01*
X135717780Y-86144230D01*
X135723741Y-86112158D01*
X135752066Y-85957524D01*
X135774876Y-85835375D01*
X135793080Y-85741673D01*
X135807583Y-85672384D01*
X135819292Y-85623471D01*
X135829115Y-85590897D01*
X135837956Y-85570628D01*
X135846724Y-85558626D01*
X135848457Y-85556947D01*
X135876371Y-85540184D01*
X135930695Y-85514614D01*
X136004777Y-85482788D01*
X136091965Y-85447260D01*
X136185608Y-85410583D01*
X136279052Y-85375311D01*
X136365647Y-85343996D01*
X136438740Y-85319193D01*
X136491678Y-85303454D01*
X136517811Y-85299332D01*
X136518726Y-85299676D01*
X136540086Y-85313641D01*
X136587084Y-85345322D01*
X136654827Y-85391391D01*
X136738423Y-85448518D01*
X136832982Y-85513373D01*
X136859854Y-85531843D01*
X136957275Y-85597699D01*
X137046163Y-85655650D01*
X137121412Y-85702538D01*
X137177920Y-85735207D01*
X137210581Y-85750500D01*
X137214593Y-85751241D01*
X137235684Y-85738392D01*
X137277464Y-85702888D01*
X137335445Y-85649293D01*
X137405135Y-85582171D01*
X137482045Y-85506087D01*
X137561683Y-85425604D01*
X137639561Y-85345287D01*
X137711186Y-85269699D01*
X137772070Y-85203405D01*
X137817721Y-85150969D01*
X137843650Y-85116955D01*
X137847883Y-85107545D01*
X137837912Y-85085643D01*
X137811020Y-85040800D01*
X137771736Y-84980321D01*
X137740117Y-84933789D01*
X137682098Y-84849475D01*
X137613784Y-84749626D01*
X137545579Y-84649473D01*
X137509075Y-84595627D01*
X137385800Y-84413371D01*
X137468520Y-84260381D01*
X137504759Y-84190682D01*
X137532926Y-84131414D01*
X137548991Y-84091311D01*
X137551226Y-84081103D01*
X137534722Y-84068829D01*
X137488082Y-84044613D01*
X137415609Y-84010263D01*
X137321606Y-83967588D01*
X137210374Y-83918394D01*
X137086215Y-83864490D01*
X136953432Y-83807684D01*
X136816327Y-83749782D01*
X136679202Y-83692593D01*
X136546358Y-83637924D01*
X136422098Y-83587584D01*
X136310725Y-83543380D01*
X136216539Y-83507119D01*
X136143844Y-83480609D01*
X136096941Y-83465658D01*
X136080833Y-83463254D01*
X136060286Y-83482311D01*
X136026933Y-83524036D01*
X135987702Y-83579706D01*
X135984599Y-83584378D01*
X135869423Y-83728264D01*
X135735053Y-83844283D01*
X135585784Y-83931430D01*
X135425913Y-83988699D01*
X135259737Y-84015086D01*
X135091552Y-84009585D01*
X134925655Y-83971190D01*
X134766342Y-83898895D01*
X134731487Y-83877626D01*
X134590737Y-83766996D01*
X134477714Y-83636302D01*
X134393003Y-83490064D01*
X134337194Y-83332808D01*
X134310874Y-83169057D01*
X134314630Y-83003333D01*
X134349050Y-82840162D01*
X134414723Y-82684065D01*
X134512235Y-82539567D01*
X134551813Y-82494869D01*
X134675703Y-82381112D01*
X134806124Y-82298218D01*
X134952315Y-82241356D01*
X135097088Y-82209687D01*
X135259860Y-82201869D01*
X135423440Y-82227938D01*
X135582298Y-82285245D01*
X135730906Y-82371144D01*
X135863735Y-82482986D01*
X135975256Y-82618123D01*
X135987011Y-82635883D01*
X136025508Y-82692150D01*
X136058863Y-82734923D01*
X136080160Y-82755372D01*
X136080833Y-82755669D01*
X136103871Y-82751279D01*
X136156157Y-82733876D01*
X136233390Y-82705268D01*
X136331268Y-82667265D01*
X136445491Y-82621674D01*
X136571758Y-82570303D01*
X136705767Y-82514962D01*
X136843218Y-82457458D01*
X136979808Y-82399601D01*
X137111237Y-82343198D01*
X137233205Y-82290058D01*
X137341409Y-82241990D01*
X137431549Y-82200801D01*
X137499323Y-82168301D01*
X137540430Y-82146297D01*
X137551226Y-82137436D01*
X137542819Y-82110360D01*
X137520272Y-82059697D01*
X137487613Y-81994183D01*
X137468520Y-81958159D01*
X137385800Y-81805168D01*
X137509075Y-81622912D01*
X137572228Y-81529875D01*
X137641727Y-81428015D01*
X137707165Y-81332562D01*
X137740117Y-81284750D01*
X137785273Y-81217505D01*
X137821057Y-81160564D01*
X137842938Y-81121354D01*
X137847563Y-81108619D01*
X137835085Y-81090083D01*
X137800252Y-81049059D01*
X137746678Y-80989525D01*
X137677983Y-80915458D01*
X137597781Y-80830835D01*
X137546286Y-80777315D01*
X137454286Y-80683681D01*
X137371999Y-80602759D01*
X137302945Y-80537823D01*
X137250644Y-80492142D01*
X137218616Y-80468989D01*
X137212116Y-80466768D01*
X137187394Y-80477076D01*
X137137405Y-80505561D01*
X137067212Y-80549063D01*
X136981875Y-80604423D01*
X136886456Y-80668480D01*
X136859854Y-80686697D01*
X136763167Y-80753073D01*
X136676117Y-80812622D01*
X136603595Y-80862016D01*
X136550493Y-80897925D01*
X136521703Y-80917019D01*
X136518726Y-80918864D01*
X136495782Y-80916105D01*
X136445336Y-80901462D01*
X136374041Y-80877487D01*
X136288547Y-80846734D01*
X136195507Y-80811756D01*
X136101574Y-80775107D01*
X136013399Y-80739339D01*
X135937634Y-80707006D01*
X135880931Y-80680662D01*
X135849943Y-80662858D01*
X135848457Y-80661593D01*
X135839601Y-80650706D01*
X135830843Y-80632318D01*
X135821277Y-80602394D01*
X135809996Y-80556897D01*
X135796093Y-80491791D01*
X135778663Y-80403039D01*
X135756798Y-80286607D01*
X135729591Y-80138458D01*
X135723741Y-80106382D01*
X135705374Y-80011314D01*
X135687405Y-79928435D01*
X135671569Y-79865070D01*
X135659600Y-79828542D01*
X135656810Y-79823644D01*
X135632072Y-79815573D01*
X135576790Y-79809013D01*
X135497389Y-79803967D01*
X135400296Y-79800441D01*
X135291938Y-79798439D01*
X135178740Y-79797964D01*
X135067128Y-79799023D01*
X134963529Y-79801618D01*
X134874368Y-79805754D01*
X134806072Y-79811437D01*
X134765066Y-79818669D01*
X134756674Y-79823029D01*
X134748208Y-79847302D01*
X134734435Y-79902574D01*
X134716550Y-79983338D01*
X134695748Y-80084088D01*
X134673223Y-80199317D01*
X134661418Y-80262098D01*
X134639151Y-80381213D01*
X134618979Y-80487435D01*
X134601915Y-80575573D01*
X134588969Y-80640434D01*
X134581155Y-80676826D01*
X134579422Y-80682816D01*
X134559890Y-80692939D01*
X134512843Y-80714338D01*
X134445003Y-80744161D01*
X134363091Y-80779555D01*
X134273828Y-80817668D01*
X134183935Y-80855647D01*
X134100135Y-80890640D01*
X134029147Y-80919794D01*
X133977694Y-80940257D01*
X133952497Y-80949177D01*
X133951396Y-80949343D01*
X133931519Y-80939231D01*
X133885777Y-80910883D01*
X133818717Y-80867277D01*
X133734884Y-80811394D01*
X133638826Y-80746213D01*
X133583650Y-80708321D01*
X133482481Y-80639275D01*
X133390630Y-80577950D01*
X133312744Y-80527337D01*
X133253469Y-80490429D01*
X133217451Y-80470218D01*
X133209377Y-80467299D01*
X133190584Y-80479847D01*
X133150457Y-80514537D01*
X133093493Y-80566937D01*
X133024185Y-80632616D01*
X132947031Y-80707144D01*
X132866525Y-80786087D01*
X132787163Y-80865017D01*
X132713440Y-80939500D01*
X132649852Y-81005106D01*
X132600894Y-81057404D01*
X132571061Y-81091961D01*
X132563942Y-81103522D01*
X132573953Y-81122346D01*
X132602078Y-81167369D01*
X132645454Y-81234213D01*
X132701218Y-81318501D01*
X132766506Y-81415856D01*
X132816246Y-81489293D01*
X133068551Y-81860333D01*
X132813555Y-82478905D01*
X132368931Y-82562725D01*
X131924307Y-82646546D01*
X131924307Y-83571994D01*
X132368931Y-83655814D01*
X132368931Y-83655814D01*
G37*
X132368931Y-83655814D02*
X132813555Y-83739635D01*
X132941053Y-84048920D01*
X133068551Y-84358206D01*
X132816246Y-84729246D01*
X132745996Y-84833157D01*
X132683272Y-84927087D01*
X132630938Y-85006652D01*
X132591857Y-85067470D01*
X132568893Y-85105157D01*
X132563942Y-85115421D01*
X132576676Y-85133910D01*
X132611882Y-85173420D01*
X132665062Y-85229522D01*
X132731718Y-85297787D01*
X132807354Y-85373786D01*
X132887472Y-85453092D01*
X132967574Y-85531275D01*
X133043164Y-85603907D01*
X133109745Y-85666559D01*
X133162818Y-85714803D01*
X133197887Y-85744210D01*
X133209623Y-85751241D01*
X133231260Y-85741123D01*
X133278662Y-85712759D01*
X133347193Y-85669129D01*
X133432215Y-85613218D01*
X133529093Y-85548006D01*
X133584350Y-85510219D01*
X133685248Y-85441343D01*
X133776299Y-85380140D01*
X133852970Y-85329578D01*
X133910728Y-85292628D01*
X133945043Y-85272258D01*
X133952254Y-85269197D01*
X133972748Y-85276136D01*
X134020513Y-85295051D01*
X134088832Y-85323087D01*
X134170989Y-85357391D01*
X134260270Y-85395109D01*
X134349958Y-85433387D01*
X134433338Y-85469370D01*
X134503694Y-85500206D01*
X134554310Y-85523039D01*
X134578471Y-85535017D01*
X134579422Y-85535724D01*
X134584036Y-85554531D01*
X134594328Y-85604618D01*
X134609287Y-85680793D01*
X134627901Y-85777865D01*
X134649159Y-85890643D01*
X134661418Y-85956442D01*
X134684362Y-86076950D01*
X134706195Y-86185797D01*
X134725722Y-86277476D01*
X134741748Y-86346481D01*
X134753079Y-86387304D01*
X134756674Y-86395511D01*
X134781006Y-86403548D01*
X134835959Y-86410033D01*
X134915108Y-86414970D01*
X135012026Y-86418364D01*
X135120287Y-86420218D01*
X135233465Y-86420538D01*
X135345135Y-86419327D01*
X135448868Y-86416590D01*
X135538241Y-86412331D01*
X135606826Y-86406555D01*
X135648197Y-86399267D01*
X135656810Y-86394895D01*
X135667133Y-86368764D01*
X135681892Y-86313393D01*
X135699352Y-86236107D01*
X135717780Y-86144230D01*
X135723741Y-86112158D01*
X135752066Y-85957524D01*
X135774876Y-85835375D01*
X135793080Y-85741673D01*
X135807583Y-85672384D01*
X135819292Y-85623471D01*
X135829115Y-85590897D01*
X135837956Y-85570628D01*
X135846724Y-85558626D01*
X135848457Y-85556947D01*
X135876371Y-85540184D01*
X135930695Y-85514614D01*
X136004777Y-85482788D01*
X136091965Y-85447260D01*
X136185608Y-85410583D01*
X136279052Y-85375311D01*
X136365647Y-85343996D01*
X136438740Y-85319193D01*
X136491678Y-85303454D01*
X136517811Y-85299332D01*
X136518726Y-85299676D01*
X136540086Y-85313641D01*
X136587084Y-85345322D01*
X136654827Y-85391391D01*
X136738423Y-85448518D01*
X136832982Y-85513373D01*
X136859854Y-85531843D01*
X136957275Y-85597699D01*
X137046163Y-85655650D01*
X137121412Y-85702538D01*
X137177920Y-85735207D01*
X137210581Y-85750500D01*
X137214593Y-85751241D01*
X137235684Y-85738392D01*
X137277464Y-85702888D01*
X137335445Y-85649293D01*
X137405135Y-85582171D01*
X137482045Y-85506087D01*
X137561683Y-85425604D01*
X137639561Y-85345287D01*
X137711186Y-85269699D01*
X137772070Y-85203405D01*
X137817721Y-85150969D01*
X137843650Y-85116955D01*
X137847883Y-85107545D01*
X137837912Y-85085643D01*
X137811020Y-85040800D01*
X137771736Y-84980321D01*
X137740117Y-84933789D01*
X137682098Y-84849475D01*
X137613784Y-84749626D01*
X137545579Y-84649473D01*
X137509075Y-84595627D01*
X137385800Y-84413371D01*
X137468520Y-84260381D01*
X137504759Y-84190682D01*
X137532926Y-84131414D01*
X137548991Y-84091311D01*
X137551226Y-84081103D01*
X137534722Y-84068829D01*
X137488082Y-84044613D01*
X137415609Y-84010263D01*
X137321606Y-83967588D01*
X137210374Y-83918394D01*
X137086215Y-83864490D01*
X136953432Y-83807684D01*
X136816327Y-83749782D01*
X136679202Y-83692593D01*
X136546358Y-83637924D01*
X136422098Y-83587584D01*
X136310725Y-83543380D01*
X136216539Y-83507119D01*
X136143844Y-83480609D01*
X136096941Y-83465658D01*
X136080833Y-83463254D01*
X136060286Y-83482311D01*
X136026933Y-83524036D01*
X135987702Y-83579706D01*
X135984599Y-83584378D01*
X135869423Y-83728264D01*
X135735053Y-83844283D01*
X135585784Y-83931430D01*
X135425913Y-83988699D01*
X135259737Y-84015086D01*
X135091552Y-84009585D01*
X134925655Y-83971190D01*
X134766342Y-83898895D01*
X134731487Y-83877626D01*
X134590737Y-83766996D01*
X134477714Y-83636302D01*
X134393003Y-83490064D01*
X134337194Y-83332808D01*
X134310874Y-83169057D01*
X134314630Y-83003333D01*
X134349050Y-82840162D01*
X134414723Y-82684065D01*
X134512235Y-82539567D01*
X134551813Y-82494869D01*
X134675703Y-82381112D01*
X134806124Y-82298218D01*
X134952315Y-82241356D01*
X135097088Y-82209687D01*
X135259860Y-82201869D01*
X135423440Y-82227938D01*
X135582298Y-82285245D01*
X135730906Y-82371144D01*
X135863735Y-82482986D01*
X135975256Y-82618123D01*
X135987011Y-82635883D01*
X136025508Y-82692150D01*
X136058863Y-82734923D01*
X136080160Y-82755372D01*
X136080833Y-82755669D01*
X136103871Y-82751279D01*
X136156157Y-82733876D01*
X136233390Y-82705268D01*
X136331268Y-82667265D01*
X136445491Y-82621674D01*
X136571758Y-82570303D01*
X136705767Y-82514962D01*
X136843218Y-82457458D01*
X136979808Y-82399601D01*
X137111237Y-82343198D01*
X137233205Y-82290058D01*
X137341409Y-82241990D01*
X137431549Y-82200801D01*
X137499323Y-82168301D01*
X137540430Y-82146297D01*
X137551226Y-82137436D01*
X137542819Y-82110360D01*
X137520272Y-82059697D01*
X137487613Y-81994183D01*
X137468520Y-81958159D01*
X137385800Y-81805168D01*
X137509075Y-81622912D01*
X137572228Y-81529875D01*
X137641727Y-81428015D01*
X137707165Y-81332562D01*
X137740117Y-81284750D01*
X137785273Y-81217505D01*
X137821057Y-81160564D01*
X137842938Y-81121354D01*
X137847563Y-81108619D01*
X137835085Y-81090083D01*
X137800252Y-81049059D01*
X137746678Y-80989525D01*
X137677983Y-80915458D01*
X137597781Y-80830835D01*
X137546286Y-80777315D01*
X137454286Y-80683681D01*
X137371999Y-80602759D01*
X137302945Y-80537823D01*
X137250644Y-80492142D01*
X137218616Y-80468989D01*
X137212116Y-80466768D01*
X137187394Y-80477076D01*
X137137405Y-80505561D01*
X137067212Y-80549063D01*
X136981875Y-80604423D01*
X136886456Y-80668480D01*
X136859854Y-80686697D01*
X136763167Y-80753073D01*
X136676117Y-80812622D01*
X136603595Y-80862016D01*
X136550493Y-80897925D01*
X136521703Y-80917019D01*
X136518726Y-80918864D01*
X136495782Y-80916105D01*
X136445336Y-80901462D01*
X136374041Y-80877487D01*
X136288547Y-80846734D01*
X136195507Y-80811756D01*
X136101574Y-80775107D01*
X136013399Y-80739339D01*
X135937634Y-80707006D01*
X135880931Y-80680662D01*
X135849943Y-80662858D01*
X135848457Y-80661593D01*
X135839601Y-80650706D01*
X135830843Y-80632318D01*
X135821277Y-80602394D01*
X135809996Y-80556897D01*
X135796093Y-80491791D01*
X135778663Y-80403039D01*
X135756798Y-80286607D01*
X135729591Y-80138458D01*
X135723741Y-80106382D01*
X135705374Y-80011314D01*
X135687405Y-79928435D01*
X135671569Y-79865070D01*
X135659600Y-79828542D01*
X135656810Y-79823644D01*
X135632072Y-79815573D01*
X135576790Y-79809013D01*
X135497389Y-79803967D01*
X135400296Y-79800441D01*
X135291938Y-79798439D01*
X135178740Y-79797964D01*
X135067128Y-79799023D01*
X134963529Y-79801618D01*
X134874368Y-79805754D01*
X134806072Y-79811437D01*
X134765066Y-79818669D01*
X134756674Y-79823029D01*
X134748208Y-79847302D01*
X134734435Y-79902574D01*
X134716550Y-79983338D01*
X134695748Y-80084088D01*
X134673223Y-80199317D01*
X134661418Y-80262098D01*
X134639151Y-80381213D01*
X134618979Y-80487435D01*
X134601915Y-80575573D01*
X134588969Y-80640434D01*
X134581155Y-80676826D01*
X134579422Y-80682816D01*
X134559890Y-80692939D01*
X134512843Y-80714338D01*
X134445003Y-80744161D01*
X134363091Y-80779555D01*
X134273828Y-80817668D01*
X134183935Y-80855647D01*
X134100135Y-80890640D01*
X134029147Y-80919794D01*
X133977694Y-80940257D01*
X133952497Y-80949177D01*
X133951396Y-80949343D01*
X133931519Y-80939231D01*
X133885777Y-80910883D01*
X133818717Y-80867277D01*
X133734884Y-80811394D01*
X133638826Y-80746213D01*
X133583650Y-80708321D01*
X133482481Y-80639275D01*
X133390630Y-80577950D01*
X133312744Y-80527337D01*
X133253469Y-80490429D01*
X133217451Y-80470218D01*
X133209377Y-80467299D01*
X133190584Y-80479847D01*
X133150457Y-80514537D01*
X133093493Y-80566937D01*
X133024185Y-80632616D01*
X132947031Y-80707144D01*
X132866525Y-80786087D01*
X132787163Y-80865017D01*
X132713440Y-80939500D01*
X132649852Y-81005106D01*
X132600894Y-81057404D01*
X132571061Y-81091961D01*
X132563942Y-81103522D01*
X132573953Y-81122346D01*
X132602078Y-81167369D01*
X132645454Y-81234213D01*
X132701218Y-81318501D01*
X132766506Y-81415856D01*
X132816246Y-81489293D01*
X133068551Y-81860333D01*
X132813555Y-82478905D01*
X132368931Y-82562725D01*
X131924307Y-82646546D01*
X131924307Y-83571994D01*
X132368931Y-83655814D01*
G04 #@! TO.C,N2*
D11*
X138299449Y-79503206D02*
X138251830Y-79550825D01*
X138204210Y-79646063D01*
X138204210Y-79884158D01*
X138251830Y-79979396D01*
X138299449Y-80027015D01*
X138394687Y-80074634D01*
X138489925Y-80074634D01*
X138632782Y-80027015D01*
X139204210Y-79455587D01*
X139204210Y-80074634D01*
X138204210Y-80693682D02*
X138204210Y-80788920D01*
X138251830Y-80884158D01*
X138299449Y-80931777D01*
X138394687Y-80979396D01*
X138585163Y-81027015D01*
X138823258Y-81027015D01*
X139013734Y-80979396D01*
X139108972Y-80931777D01*
X139156591Y-80884158D01*
X139204210Y-80788920D01*
X139204210Y-80693682D01*
X139156591Y-80598444D01*
X139108972Y-80550825D01*
X139013734Y-80503206D01*
X138823258Y-80455587D01*
X138585163Y-80455587D01*
X138394687Y-80503206D01*
X138299449Y-80550825D01*
X138251830Y-80598444D01*
X138204210Y-80693682D01*
X139204210Y-81979396D02*
X139204210Y-81407968D01*
X139204210Y-81693682D02*
X138204210Y-81693682D01*
X138347068Y-81598444D01*
X138442306Y-81503206D01*
X138489925Y-81407968D01*
X138632782Y-82550825D02*
X138585163Y-82455587D01*
X138537544Y-82407968D01*
X138442306Y-82360349D01*
X138394687Y-82360349D01*
X138299449Y-82407968D01*
X138251830Y-82455587D01*
X138204210Y-82550825D01*
X138204210Y-82741301D01*
X138251830Y-82836539D01*
X138299449Y-82884158D01*
X138394687Y-82931777D01*
X138442306Y-82931777D01*
X138537544Y-82884158D01*
X138585163Y-82836539D01*
X138632782Y-82741301D01*
X138632782Y-82550825D01*
X138680401Y-82455587D01*
X138728020Y-82407968D01*
X138823258Y-82360349D01*
X139013734Y-82360349D01*
X139108972Y-82407968D01*
X139156591Y-82455587D01*
X139204210Y-82550825D01*
X139204210Y-82741301D01*
X139156591Y-82836539D01*
X139108972Y-82884158D01*
X139013734Y-82931777D01*
X138823258Y-82931777D01*
X138728020Y-82884158D01*
X138680401Y-82836539D01*
X138632782Y-82741301D01*
X139204210Y-83884158D02*
X139204210Y-83312730D01*
X139204210Y-83598444D02*
X138204210Y-83598444D01*
X138347068Y-83503206D01*
X138442306Y-83407968D01*
X138489925Y-83312730D01*
X139204210Y-84836539D02*
X139204210Y-84265111D01*
X139204210Y-84550825D02*
X138204210Y-84550825D01*
X138347068Y-84455587D01*
X138442306Y-84360349D01*
X138489925Y-84265111D01*
X139204210Y-85788920D02*
X139204210Y-85217492D01*
X139204210Y-85503206D02*
X138204210Y-85503206D01*
X138347068Y-85407968D01*
X138442306Y-85312730D01*
X138489925Y-85217492D01*
X138204210Y-86407968D02*
X138204210Y-86503206D01*
X138251830Y-86598444D01*
X138299449Y-86646063D01*
X138394687Y-86693682D01*
X138585163Y-86741301D01*
X138823258Y-86741301D01*
X139013734Y-86693682D01*
X139108972Y-86646063D01*
X139156591Y-86598444D01*
X139204210Y-86503206D01*
X139204210Y-86407968D01*
X139156591Y-86312730D01*
X139108972Y-86265111D01*
X139013734Y-86217492D01*
X138823258Y-86169873D01*
X138585163Y-86169873D01*
X138394687Y-86217492D01*
X138299449Y-86265111D01*
X138251830Y-86312730D01*
X138204210Y-86407968D01*
X138204210Y-78028571D02*
X139204210Y-78361904D01*
X138204210Y-78695238D01*
X139108972Y-79028571D02*
X139156591Y-79076190D01*
X139204210Y-79028571D01*
X139156591Y-78980952D01*
X139108972Y-79028571D01*
X139204210Y-79028571D01*
X138585163Y-79028571D02*
X138632782Y-79076190D01*
X138680401Y-79028571D01*
X138632782Y-78980952D01*
X138585163Y-79028571D01*
X138680401Y-79028571D01*
G04 #@! TD*
M02*
