G04 #@! TF.GenerationSoftware,KiCad,Pcbnew,5.0.1-33cea8e~68~ubuntu18.04.1*
G04 #@! TF.CreationDate,2018-11-17T13:39:52+01:00*
G04 #@! TF.ProjectId,MCP1702_SOT89_breakoutmodule_JST,4D4350313730325F534F5438395F6272,rev?*
G04 #@! TF.SameCoordinates,Original*
G04 #@! TF.FileFunction,Legend,Top*
G04 #@! TF.FilePolarity,Positive*
%FSLAX46Y46*%
G04 Gerber Fmt 4.6, Leading zero omitted, Abs format (unit mm)*
G04 Created by KiCad (PCBNEW 5.0.1-33cea8e~68~ubuntu18.04.1) date za 17 nov 2018 13:39:52 CET*
%MOMM*%
%LPD*%
G01*
G04 APERTURE LIST*
%ADD10C,0.300000*%
%ADD11C,0.150000*%
%ADD12C,0.152400*%
%ADD13C,0.120000*%
G04 APERTURE END LIST*
D10*
X140378571Y-89842857D02*
X141878571Y-89342857D01*
X140378571Y-88842857D01*
X140378571Y-88057142D02*
X140378571Y-87771428D01*
X140450000Y-87628571D01*
X140592857Y-87485714D01*
X140878571Y-87414285D01*
X141378571Y-87414285D01*
X141664285Y-87485714D01*
X141807142Y-87628571D01*
X141878571Y-87771428D01*
X141878571Y-88057142D01*
X141807142Y-88200000D01*
X141664285Y-88342857D01*
X141378571Y-88414285D01*
X140878571Y-88414285D01*
X140592857Y-88342857D01*
X140450000Y-88200000D01*
X140378571Y-88057142D01*
X140378571Y-86771428D02*
X141592857Y-86771428D01*
X141735714Y-86700000D01*
X141807142Y-86628571D01*
X141878571Y-86485714D01*
X141878571Y-86200000D01*
X141807142Y-86057142D01*
X141735714Y-85985714D01*
X141592857Y-85914285D01*
X140378571Y-85914285D01*
X140378571Y-85414285D02*
X140378571Y-84557142D01*
X141878571Y-84985714D02*
X140378571Y-84985714D01*
X131378571Y-70000000D02*
X131378571Y-70857142D01*
X131378571Y-70428571D02*
X129878571Y-70428571D01*
X130092857Y-70571428D01*
X130235714Y-70714285D01*
X130307142Y-70857142D01*
X129878571Y-69500000D02*
X129878571Y-68571428D01*
X130450000Y-69071428D01*
X130450000Y-68857142D01*
X130521428Y-68714285D01*
X130592857Y-68642857D01*
X130735714Y-68571428D01*
X131092857Y-68571428D01*
X131235714Y-68642857D01*
X131307142Y-68714285D01*
X131378571Y-68857142D01*
X131378571Y-69285714D01*
X131307142Y-69428571D01*
X131235714Y-69500000D01*
X131235714Y-67928571D02*
X131307142Y-67857142D01*
X131378571Y-67928571D01*
X131307142Y-68000000D01*
X131235714Y-67928571D01*
X131378571Y-67928571D01*
X130021428Y-67285714D02*
X129950000Y-67214285D01*
X129878571Y-67071428D01*
X129878571Y-66714285D01*
X129950000Y-66571428D01*
X130021428Y-66500000D01*
X130164285Y-66428571D01*
X130307142Y-66428571D01*
X130521428Y-66500000D01*
X131378571Y-67357142D01*
X131378571Y-66428571D01*
X129878571Y-66000000D02*
X131378571Y-65500000D01*
X129878571Y-65000000D01*
X140378571Y-68142857D02*
X141878571Y-67642857D01*
X140378571Y-67142857D01*
X141878571Y-66642857D02*
X140378571Y-66642857D01*
X141878571Y-65928571D02*
X140378571Y-65928571D01*
X141878571Y-65071428D01*
X140378571Y-65071428D01*
D11*
G04 #@! TO.C,C1*
X135400000Y-74750000D02*
X136400000Y-74750000D01*
X136400000Y-73050000D02*
X135400000Y-73050000D01*
G04 #@! TO.C,C2*
X135400000Y-81850000D02*
X136400000Y-81850000D01*
X136400000Y-80150000D02*
X135400000Y-80150000D01*
D12*
G04 #@! TO.C,J1*
X131445000Y-77470000D02*
X132080000Y-78105000D01*
X132080000Y-78105000D02*
X132080000Y-79375000D01*
X132080000Y-79375000D02*
X131445000Y-80010000D01*
X131445000Y-80010000D02*
X130175000Y-80010000D01*
X130175000Y-80010000D02*
X129540000Y-79375000D01*
X129540000Y-79375000D02*
X129540000Y-78105000D01*
X129540000Y-78105000D02*
X130175000Y-77470000D01*
X132080000Y-73025000D02*
X132080000Y-74295000D01*
X132080000Y-74295000D02*
X131445000Y-74930000D01*
X131445000Y-74930000D02*
X130175000Y-74930000D01*
X130175000Y-74930000D02*
X129540000Y-74295000D01*
X131445000Y-74930000D02*
X132080000Y-75565000D01*
X132080000Y-75565000D02*
X132080000Y-76835000D01*
X132080000Y-76835000D02*
X131445000Y-77470000D01*
X131445000Y-77470000D02*
X130175000Y-77470000D01*
X130175000Y-77470000D02*
X129540000Y-76835000D01*
X129540000Y-76835000D02*
X129540000Y-75565000D01*
X129540000Y-75565000D02*
X130175000Y-74930000D01*
X131445000Y-72390000D02*
X130175000Y-72390000D01*
X132080000Y-73025000D02*
X131445000Y-72390000D01*
X130175000Y-72390000D02*
X129540000Y-73025000D01*
X129540000Y-74295000D02*
X129540000Y-73025000D01*
X132080000Y-80645000D02*
X132080000Y-81915000D01*
X132080000Y-81915000D02*
X131445000Y-82550000D01*
X131445000Y-82550000D02*
X130175000Y-82550000D01*
X130175000Y-82550000D02*
X129540000Y-81915000D01*
X132080000Y-80645000D02*
X131445000Y-80010000D01*
X130175000Y-80010000D02*
X129540000Y-80645000D01*
X129540000Y-81915000D02*
X129540000Y-80645000D01*
G04 #@! TO.C,J4*
X142240000Y-73025000D02*
X142240000Y-74295000D01*
X141605000Y-74930000D02*
X142240000Y-74295000D01*
X139700000Y-74295000D02*
X140335000Y-74930000D01*
X141605000Y-72390000D02*
X142240000Y-73025000D01*
X140335000Y-72390000D02*
X141605000Y-72390000D01*
X139700000Y-73025000D02*
X140335000Y-72390000D01*
X139700000Y-74295000D02*
X139700000Y-73025000D01*
X142240000Y-80645000D02*
X142240000Y-81915000D01*
X141605000Y-82550000D02*
X142240000Y-81915000D01*
X139700000Y-81915000D02*
X140335000Y-82550000D01*
X140335000Y-82550000D02*
X141605000Y-82550000D01*
X142240000Y-79375000D02*
X141605000Y-80010000D01*
X142240000Y-78105000D02*
X142240000Y-79375000D01*
X141605000Y-77470000D02*
X142240000Y-78105000D01*
X140335000Y-77470000D02*
X141605000Y-77470000D01*
X139700000Y-78105000D02*
X140335000Y-77470000D01*
X139700000Y-79375000D02*
X139700000Y-78105000D01*
X140335000Y-80010000D02*
X139700000Y-79375000D01*
X141605000Y-80010000D02*
X142240000Y-80645000D01*
X140335000Y-80010000D02*
X141605000Y-80010000D01*
X139700000Y-80645000D02*
X140335000Y-80010000D01*
X139700000Y-81915000D02*
X139700000Y-80645000D01*
X142240000Y-76835000D02*
X141605000Y-77470000D01*
X142240000Y-75565000D02*
X142240000Y-76835000D01*
X141605000Y-74930000D02*
X142240000Y-75565000D01*
X140335000Y-74930000D02*
X141605000Y-74930000D01*
X139700000Y-75565000D02*
X140335000Y-74930000D01*
X139700000Y-76835000D02*
X139700000Y-75565000D01*
X140335000Y-77470000D02*
X139700000Y-76835000D01*
D11*
G04 #@! TO.C,U1*
X133900000Y-78800000D02*
X133900000Y-77100000D01*
X134900000Y-78800000D02*
X133900000Y-78800000D01*
X137900000Y-78800000D02*
X136900000Y-78800000D01*
X137900000Y-77100000D02*
X137900000Y-78800000D01*
D13*
G04 #@! TO.C,J2*
X134040000Y-84040000D02*
X134040000Y-82825000D01*
X134100000Y-88000000D02*
X134100000Y-90260000D01*
X134600000Y-88000000D02*
X134600000Y-90260000D01*
X137200000Y-86400000D02*
X138200000Y-86400000D01*
X137200000Y-88000000D02*
X137200000Y-86400000D01*
X138200000Y-88000000D02*
X137200000Y-88000000D01*
X138200000Y-86400000D02*
X138200000Y-88000000D01*
X134600000Y-86400000D02*
X133600000Y-86400000D01*
X134600000Y-88000000D02*
X134600000Y-86400000D01*
X133600000Y-88000000D02*
X134600000Y-88000000D01*
X133600000Y-86400000D02*
X133600000Y-88000000D01*
X138960000Y-84040000D02*
X138040000Y-84040000D01*
X132840000Y-84040000D02*
X133760000Y-84040000D01*
X136400000Y-85900000D02*
X136400000Y-90260000D01*
X135400000Y-85900000D02*
X136400000Y-85900000D01*
X135400000Y-90260000D02*
X135400000Y-85900000D01*
X138040000Y-84040000D02*
X137760000Y-84040000D01*
X138040000Y-82440000D02*
X138040000Y-84040000D01*
X138960000Y-82440000D02*
X138040000Y-82440000D01*
X138960000Y-90260000D02*
X138960000Y-82440000D01*
X132840000Y-90260000D02*
X138960000Y-90260000D01*
X132840000Y-82440000D02*
X132840000Y-90260000D01*
X133760000Y-82440000D02*
X132840000Y-82440000D01*
X133760000Y-84040000D02*
X133760000Y-82440000D01*
X134040000Y-84040000D02*
X133760000Y-84040000D01*
G04 #@! TO.C,J3*
X137760000Y-70860000D02*
X138040000Y-70860000D01*
X138040000Y-70860000D02*
X138040000Y-72460000D01*
X138040000Y-72460000D02*
X138960000Y-72460000D01*
X138960000Y-72460000D02*
X138960000Y-64640000D01*
X138960000Y-64640000D02*
X132840000Y-64640000D01*
X132840000Y-64640000D02*
X132840000Y-72460000D01*
X132840000Y-72460000D02*
X133760000Y-72460000D01*
X133760000Y-72460000D02*
X133760000Y-70860000D01*
X133760000Y-70860000D02*
X134040000Y-70860000D01*
X136400000Y-64640000D02*
X136400000Y-69000000D01*
X136400000Y-69000000D02*
X135400000Y-69000000D01*
X135400000Y-69000000D02*
X135400000Y-64640000D01*
X138960000Y-70860000D02*
X138040000Y-70860000D01*
X132840000Y-70860000D02*
X133760000Y-70860000D01*
X138200000Y-68500000D02*
X138200000Y-66900000D01*
X138200000Y-66900000D02*
X137200000Y-66900000D01*
X137200000Y-66900000D02*
X137200000Y-68500000D01*
X137200000Y-68500000D02*
X138200000Y-68500000D01*
X133600000Y-68500000D02*
X133600000Y-66900000D01*
X133600000Y-66900000D02*
X134600000Y-66900000D01*
X134600000Y-66900000D02*
X134600000Y-68500000D01*
X134600000Y-68500000D02*
X133600000Y-68500000D01*
X137200000Y-66900000D02*
X137200000Y-64640000D01*
X137700000Y-66900000D02*
X137700000Y-64640000D01*
X137760000Y-70860000D02*
X137760000Y-72075000D01*
G04 #@! TO.C,C1*
D11*
X138433333Y-74257142D02*
X138385714Y-74304761D01*
X138242857Y-74352380D01*
X138147619Y-74352380D01*
X138004761Y-74304761D01*
X137909523Y-74209523D01*
X137861904Y-74114285D01*
X137814285Y-73923809D01*
X137814285Y-73780952D01*
X137861904Y-73590476D01*
X137909523Y-73495238D01*
X138004761Y-73400000D01*
X138147619Y-73352380D01*
X138242857Y-73352380D01*
X138385714Y-73400000D01*
X138433333Y-73447619D01*
X139385714Y-74352380D02*
X138814285Y-74352380D01*
X139100000Y-74352380D02*
X139100000Y-73352380D01*
X139004761Y-73495238D01*
X138909523Y-73590476D01*
X138814285Y-73638095D01*
G04 #@! TO.C,C2*
X132933333Y-81357142D02*
X132885714Y-81404761D01*
X132742857Y-81452380D01*
X132647619Y-81452380D01*
X132504761Y-81404761D01*
X132409523Y-81309523D01*
X132361904Y-81214285D01*
X132314285Y-81023809D01*
X132314285Y-80880952D01*
X132361904Y-80690476D01*
X132409523Y-80595238D01*
X132504761Y-80500000D01*
X132647619Y-80452380D01*
X132742857Y-80452380D01*
X132885714Y-80500000D01*
X132933333Y-80547619D01*
X133314285Y-80547619D02*
X133361904Y-80500000D01*
X133457142Y-80452380D01*
X133695238Y-80452380D01*
X133790476Y-80500000D01*
X133838095Y-80547619D01*
X133885714Y-80642857D01*
X133885714Y-80738095D01*
X133838095Y-80880952D01*
X133266666Y-81452380D01*
X133885714Y-81452380D01*
G04 #@! TO.C,J1*
X132262380Y-77803333D02*
X132976666Y-77803333D01*
X133119523Y-77850952D01*
X133214761Y-77946190D01*
X133262380Y-78089047D01*
X133262380Y-78184285D01*
X133262380Y-76803333D02*
X133262380Y-77374761D01*
X133262380Y-77089047D02*
X132262380Y-77089047D01*
X132405238Y-77184285D01*
X132500476Y-77279523D01*
X132548095Y-77374761D01*
G04 #@! TO.C,J4*
X138422380Y-77803333D02*
X139136666Y-77803333D01*
X139279523Y-77850952D01*
X139374761Y-77946190D01*
X139422380Y-78089047D01*
X139422380Y-78184285D01*
X138755714Y-76898571D02*
X139422380Y-76898571D01*
X138374761Y-77136666D02*
X139089047Y-77374761D01*
X139089047Y-76755714D01*
G04 #@! TO.C,U1*
X138138095Y-79052380D02*
X138138095Y-79861904D01*
X138185714Y-79957142D01*
X138233333Y-80004761D01*
X138328571Y-80052380D01*
X138519047Y-80052380D01*
X138614285Y-80004761D01*
X138661904Y-79957142D01*
X138709523Y-79861904D01*
X138709523Y-79052380D01*
X139709523Y-80052380D02*
X139138095Y-80052380D01*
X139423809Y-80052380D02*
X139423809Y-79052380D01*
X139328571Y-79195238D01*
X139233333Y-79290476D01*
X139138095Y-79338095D01*
G04 #@! TO.C,J2*
X131552380Y-84333333D02*
X132266666Y-84333333D01*
X132409523Y-84380952D01*
X132504761Y-84476190D01*
X132552380Y-84619047D01*
X132552380Y-84714285D01*
X131647619Y-83904761D02*
X131600000Y-83857142D01*
X131552380Y-83761904D01*
X131552380Y-83523809D01*
X131600000Y-83428571D01*
X131647619Y-83380952D01*
X131742857Y-83333333D01*
X131838095Y-83333333D01*
X131980952Y-83380952D01*
X132552380Y-83952380D01*
X132552380Y-83333333D01*
G04 #@! TO.C,J3*
X139152380Y-71233333D02*
X139866666Y-71233333D01*
X140009523Y-71280952D01*
X140104761Y-71376190D01*
X140152380Y-71519047D01*
X140152380Y-71614285D01*
X139152380Y-70852380D02*
X139152380Y-70233333D01*
X139533333Y-70566666D01*
X139533333Y-70423809D01*
X139580952Y-70328571D01*
X139628571Y-70280952D01*
X139723809Y-70233333D01*
X139961904Y-70233333D01*
X140057142Y-70280952D01*
X140104761Y-70328571D01*
X140152380Y-70423809D01*
X140152380Y-70709523D01*
X140104761Y-70804761D01*
X140057142Y-70852380D01*
G04 #@! TD*
M02*
